<?xml version="1.0" standalone="no"?>
<!DOCTYPE svg PUBLIC "-//W3C//DTD SVG 1.1//EN" "http://www.w3.org/Graphics/SVG/1.1/DTD/svg11.dtd" >
<svg xmlns="http://www.w3.org/2000/svg" xmlns:xlink="http://www.w3.org/1999/xlink" version="1.1">
<metadata>
Created by FontForge 20170731 at Mon Mar  4 15:47:41 2013
 By Aleksey,,,
</metadata>
<defs>
<font id="olivier" horiz-adv-x="500" >
  <font-face 
    font-family="olivier"
    font-weight="400"
    font-stretch="normal"
    units-per-em="1000"
    panose-1="0 0 0 0 0 0 0 0 0 0"
    ascent="750"
    descent="-250"
    x-height="405"
    cap-height="690"
    bbox="-42.5806 -401.261 975.524 895.25"
    underline-thickness="50"
    underline-position="-150"
    unicode-range="U+0020-FB02"
  />
<missing-glyph horiz-adv-x="281" 
 />
    <glyph glyph-name=".notdef" horiz-adv-x="281" 
 />
    <glyph glyph-name=".null" horiz-adv-x="0" 
 />
    <glyph glyph-name="nonmarkingreturn" horiz-adv-x="333" 
 />
    <glyph glyph-name="space" unicode=" " horiz-adv-x="281" 
 />
    <glyph glyph-name="exclam" unicode="!" horiz-adv-x="230" 
d="M155 660q10 -14 11 -31t-2 -35.5t-7 -37t-4 -35.5q0 -25 5 -58.5t7 -68t-3.5 -66.5t-26.5 -54q-4 -3 -10 -14t-12.5 -20t-14 -11t-14.5 13q-15 25 -18.5 54t-5.5 57q-3 41 -8 83.5t-7.5 85.5t0.5 85.5t15 83.5q6 14 19 14.5t27.5 -6.5t28 -18.5t20.5 -20.5zM89 80
q18 -5 34 -20.5t14 -35.5q0 -23 -19.5 -27t-43.5 7q-14 4 -20 17.5t-4.5 27.5t11.5 24t28 7z" />
    <glyph glyph-name="quotedbl" unicode="&#x22;" horiz-adv-x="354" 
d="M173 624q-1 10 -3 30.5t-2 41.5t5 37.5t18 18.5q10 2 23 -5t25 -18.5t20.5 -24.5t10.5 -22q2 -17 0 -37t-7 -39.5t-13 -35.5t-18 -25t-20.5 0t-19 24.5t-14 32t-5.5 22.5zM72 586q-14 33 -17 69t2 71q10 14 23 15.5t25 -5t21 -18.5t12 -24q23 -71 0 -143q-4 -14 -13 -14
t-19.5 7.5t-20 19.5t-13.5 22z" />
    <glyph glyph-name="numbersign" unicode="#" horiz-adv-x="570" 
d="M332 -6q2 33 4.5 66t-4.5 65q-3 -1 -13 -3.5t-23 -7t-26.5 -10t-23.5 -11.5q-1 -7 -3.5 -27t-8.5 -40t-16 -34.5t-26 -10.5q-12 3 -19 19t-10.5 33t-4 30.5t1.5 11.5q-27 -10 -52 -17q-21 -7 -41.5 -12t-31.5 -5q-23 -1 -29.5 7t-4.5 18t9 20t12 13q12 9 21.5 14t19 9
t19.5 8t22 10q8 4 17.5 7.5t17 7t12.5 7.5t4 9q-2 8 -3.5 24t-2.5 33.5t-1.5 33.5t-0.5 24q-14 -1 -27 -7t-25.5 -12t-25 -10.5t-24.5 -1.5q-29 8 -32.5 26.5t19.5 33.5q28 16 62 32.5t63 30.5q5 1 7.5 13t3 28.5t1 34t2.5 29.5q3 16 6 49.5t9 68.5t17 63t31 33
q12 3 19.5 -12.5t11 -42t3.5 -59.5t-1 -65t-2.5 -59t-2.5 -41q13 0 26.5 3t24.5 7t18.5 8t7.5 5q-1 10 -2 26.5t-0.5 34t4.5 33.5t13 24q12 10 23.5 8t21.5 -11t16 -21t7 -21q2 -14 4 -27t6 -26q14 -2 29 3t29 9q6 1 17.5 2.5t24.5 3t24 2t15 -2.5q1 -14 -18 -28t-43 -27
t-44.5 -24.5t-23.5 -20.5q-2 -5 -2.5 -20t-0.5 -33t0.5 -35t0.5 -27q13 0 33.5 1t38 0.5t27.5 -3.5t3 -11q-10 -15 -26 -27t-32 -21.5t-27 -16t-10 -9.5q1 -20 -4 -55t-14 -71.5t-21.5 -68.5t-27.5 -47q-17 -15 -26.5 -11.5t-14.5 15.5t-6.5 28.5t-0.5 27.5zM330 334
q-17 0 -31.5 -6t-31.5 -10q-3 -1 -3.5 -15.5t-0.5 -34t-0.5 -39t-2.5 -31.5q12 3 19.5 6.5t14 7t14 7t19.5 5.5q2 1 2 14v30.5v35.5t1 30z" />
    <glyph glyph-name="dollar" unicode="$" horiz-adv-x="531" 
d="M262 -251q-15 -5 -24 6t-15 30t-9 42.5t-5 44t-3.5 34.5t-4.5 14q-31 5 -69 23t-67 42.5t-43 52t3 51.5q10 6 27 0.5t40.5 -16t51.5 -21.5t60 -16q1 25 3 63.5t3.5 75.5t1.5 64t-4 29q-26 11 -54.5 36t-50 58.5t-30 73.5t5.5 82q10 22 26 36.5t35 23t40.5 12t43.5 4.5
q-5 35 -1 63l8 56q3 20 11 27t18 6.5t19.5 -5t15.5 -5.5q9 -9 14 -29.5t7.5 -44t3 -45t0.5 -33.5q0 -4 15 -8.5t32.5 -12.5t32 -21t13.5 -33q-44 -27 -87 -17q-3 -13 -3 -31.5t1 -39t2 -40t-1 -34.5q0 -2 15 -9.5t38 -21.5t49 -35.5t48.5 -50t36.5 -64.5t13 -80
q-1 -38 -14.5 -65.5t-33.5 -47t-43.5 -31.5t-45.5 -19t-38.5 -9.5t-21.5 -3.5q-2 -4 -2 -27t-5 -50.5t-18.5 -52t-40.5 -31.5zM404 44q26 8 34.5 20.5t4.5 27t-18 30.5t-30.5 30.5t-34 27t-28.5 19.5q-1 -24 0.5 -46t2.5 -43t1.5 -41t-2.5 -40q12 1 20 2t15 3t15 4.5t20 5.5
q4 2 0.5 1t-7.5 -2.5l-4 -1.5zM158 465q-6 -30 13 -47t43 -24q4 24 3 52t0 53q-27 12 -41 1t-18 -35z" />
    <glyph glyph-name="percent" unicode="%" horiz-adv-x="522" 
d="M509 161q20 -24 12.5 -49.5t-27.5 -46.5t-46 -36t-44 -19q-35 -9 -61 9t-40.5 49t-16 66.5t13 61.5t46 34.5t84.5 -15.5q1 -2 11 -7t23 -12.5t25.5 -16t19.5 -18.5zM433 86q4 8 -7 20t-26.5 23t-30.5 20t-19 12q-11 -16 -11 -41.5t11 -45.5q19 -8 44 -5t39 17zM427 378
q-25 -38 -67.5 -79.5t-89 -82t-91.5 -78t-75 -67.5q-24 -24 -35.5 -24.5t-13.5 11.5t3 32.5t14 38.5q18 41 44 76.5t54 71.5q12 16 27 31.5t31 30.5t31 31t26 34q10 18 24.5 38t31.5 38.5t36.5 32t39.5 17.5q0 -3 6.5 -18.5t11.5 -38t5 -48t-13 -47.5zM216 657
q43 -15 62.5 -48t20.5 -73t-13.5 -80.5t-39.5 -70t-57.5 -41.5t-66.5 6q-29 13 -44 34.5t-21 47t-4 53.5t7 55q3 23 16.5 45.5t34 38.5t46 21.5t52.5 -4.5q5 4 4 9t3 7zM194 411q12 13 20 33t12 42.5t2.5 44.5t-9.5 39t-23 25.5t-38 3.5q-22 -5 -33.5 -26t-13.5 -49
t3.5 -56.5t17 -47.5t27.5 -24t35 15q8 9 7.5 9t-3.5 -3.5t-5.5 -6.5t1.5 1z" />
    <glyph glyph-name="ampersand" unicode="&#x26;" horiz-adv-x="541" 
d="M244 11q-40 -17 -73 -19.5t-59.5 6t-46.5 25t-33 39.5q-28 48 -28.5 88.5t14.5 75t40.5 63.5t49.5 54q3 3 -10.5 19t-30.5 40.5t-33 55.5t-17 64q-1 28 3.5 57.5t17.5 55t34 45.5t53 30q21 7 52.5 9t63 -4.5t58.5 -24t40 -49.5q12 -31 10.5 -61.5t-11.5 -59t-25 -53.5
t-30 -44.5t-26 -32t-13 -15.5q-5 -8 4 -21t24 -27t32 -27.5t28 -22.5q4 8 13 25.5t21.5 38.5t27.5 43.5t31 40t32.5 27.5t31.5 6q29 -7 44.5 -23t15.5 -32q0 -2 -9.5 -16t-23.5 -34.5t-31 -44t-32.5 -45t-26.5 -37t-14 -19.5q-4 -4 10 -16t36 -25t47.5 -24t43.5 -12
q16 -3 20 -16t-4 -27t-26 -23.5t-45 -4.5q-25 4 -42 10.5t-30.5 14t-25.5 16t-28 17.5q-4 0 -11 -11t-20.5 -27t-36 -34.5t-56.5 -33.5zM174 277q-14 -16 -32.5 -38t-32.5 -45t-19 -45.5t7 -39.5q18 -25 45.5 -23.5t55.5 17t50.5 40t28.5 45.5q2 6 -13.5 21t-35 31t-36.5 27
t-18 10zM262 592q-7 16 -17 24.5t-20.5 12t-21 3t-18.5 -1.5q-32 -5 -41.5 -28.5t-5.5 -52.5t16 -57.5t24 -42.5q9 5 26.5 20.5t33.5 36t24.5 43.5t-0.5 43z" />
    <glyph glyph-name="quotesingle" unicode="'" horiz-adv-x="164" 
d="M25 568q-9 42 1.5 85t22.5 85q13 15 28.5 14t28 -11t21.5 -26t11 -31q3 -22 0 -38t-9.5 -30.5t-17 -28.5t-23.5 -32q-11 -15 -21.5 -19.5t-18.5 -1.5t-14 12.5t-9 21.5z" />
    <glyph glyph-name="parenleft" unicode="(" horiz-adv-x="244" 
d="M30 382q5 43 14.5 77t22 63.5t27.5 57.5t33 60q0 2 7 14t17.5 27.5t23.5 31.5t24.5 26.5t20 13t10.5 -8.5q0 -24 -13 -61.5t-31 -87t-36 -109t-27 -127.5q-6 -41 -3.5 -84.5t9 -85.5t14.5 -79.5t13.5 -66.5t6 -47.5t-7.5 -20.5q-5 -2 -18.5 12t-30 39.5t-33.5 63
t-29.5 83t-17 98.5t3.5 111z" />
    <glyph glyph-name="parenright" unicode=")" horiz-adv-x="245" 
d="M142 261q0 39 -1 72.5t-3 64.5t-5 61t-8 63q-2 9 -10 30t-19 46.5t-22.5 53t-19.5 50.5t-10.5 38.5t5.5 17.5q17 3 38.5 -13.5t43.5 -47t42.5 -72.5t36.5 -90t26.5 -99t11.5 -99q1 -68 -10.5 -134t-31 -117.5t-43 -82.5t-44.5 -29q-7 3 -8.5 19t0.5 39.5t6 53.5t9 60.5
t9.5 60.5t6.5 54z" />
    <glyph glyph-name="asterisk" unicode="*" 
d="M429 233q-5 -12 -22.5 -9t-37.5 13t-37.5 21t-22.5 14q-24 16 -39 12t-26.5 -20t-21.5 -38.5t-25 -42.5q-24 -33 -37.5 -40t-19 3.5t-5 33t4.5 48t9.5 49.5t9.5 37q-6 1 -19.5 0t-30 -1.5t-33 0t-28 6t-15 16.5t6.5 30q7 15 23 22t34 10t36.5 3.5t31.5 2.5
q-3 12 -14.5 20.5t-22.5 17.5t-18.5 19.5t-3.5 25.5q5 18 14 21.5t19 -0.5t20 -12t18 -13q24 -18 45.5 -20.5t40.5 3.5t35 17.5t28 22t20.5 16.5t12.5 1q5 -6 2 -16.5t-10 -24t-14.5 -29t-10.5 -29.5q17 -3 33.5 -1.5t33 4t32.5 4.5t32 0q3 -9 -5.5 -17t-21 -14t-24.5 -10.5
t-16 -5.5q-14 -5 -29.5 -11.5t-29.5 -14.5q-6 -4 0 -13t17.5 -21.5t26.5 -26.5t27.5 -26.5t20.5 -22.5t6 -14z" />
    <glyph glyph-name="plus" unicode="+" horiz-adv-x="469" 
d="M282 74q-6 -8 -23 -4.5t-36.5 16.5t-36.5 34t-23 48q-2 10 -3 23t-1 24q-1 13 0 27q-7 -2 -31 -1.5t-50.5 4t-47 11t-20.5 20.5q1 20 12.5 32.5t28 19.5t35.5 9t35 2t27 -0.5t11 0.5q-1 2 -1.5 19.5t1 41t5.5 48.5t11 41.5t18.5 20.5t28.5 -15q21 -22 37.5 -35
t28.5 -25.5t18 -30.5t6 -50q0 -3 21 -0.5t72 7.5q15 1 24.5 -8.5t15.5 -23t10 -26t10 -16.5q-3 -13 -23 -19t-45.5 -9.5t-50.5 -6.5t-38 -10q-2 -12 -1 -32t0 -43.5t-6 -47.5t-19 -45z" />
    <glyph glyph-name="comma" unicode="," horiz-adv-x="295" 
d="M211 82q13 -10 18 -22.5t3.5 -27t-8 -30t-16.5 -30.5q-17 -26 -38.5 -49.5t-48.5 -41.5q-16 -11 -32 -15t-26 -0.5t-10.5 15.5t14.5 34q18 25 25 47t11.5 41.5t10.5 36.5t22 32q22 20 39.5 21t35.5 -11z" />
    <glyph glyph-name="hyphen" unicode="-" horiz-adv-x="479" 
d="M326 350q20 -5 44 -14t41 -17q13 -8 17.5 -19t1.5 -22t-12 -18.5t-22 -7.5q-56 -5 -100.5 -9.5t-99.5 -10.5q-31 -2 -52.5 5t-50.5 19q-13 9 -17 20.5t-2 22.5t7.5 19.5t11.5 11.5q7 5 38.5 10t70 8t74 4t50.5 -2z" />
    <glyph glyph-name="period" unicode="." horiz-adv-x="263" 
d="M159 134q14 0 27 -8t21.5 -20.5t10.5 -27.5t-5 -28q-10 -18 -31.5 -33t-44.5 -17.5t-42.5 11.5t-25.5 53q-3 22 7 34t25.5 18.5t32 9.5t25.5 8z" />
    <glyph glyph-name="slash" unicode="/" horiz-adv-x="316" 
d="M225 350q-2 -23 -6 -56t-10.5 -69.5t-15 -73.5t-20 -67t-26 -50.5t-32.5 -24.5q-26 -7 -37.5 9.5t-12.5 46t5 68t14.5 74.5t16 65t10.5 41q4 19 14 56t24 80.5t30.5 88t33.5 80t34 55t31 13.5q13 -5 9 -34t-16 -74t-26 -104t-20 -124z" />
    <glyph glyph-name="zero" unicode="0" horiz-adv-x="492" 
d="M358 615q0 -27 11.5 -42.5t27 -28.5t32.5 -29t29 -43q11 -27 16 -57.5t4 -63t-6 -64.5t-13 -60q-11 -38 -32.5 -79.5t-52 -75t-71 -54t-88.5 -17.5q-47 3 -86 31t-67.5 69.5t-44 90t-13.5 92.5q2 61 16.5 112t36.5 90t49.5 66t54.5 41q30 14 52.5 15.5t44 -1t45 -3
t55.5 10.5zM334 421q-3 15 -10 36t-18 40.5t-26 33t-33 14.5q-17 0 -30.5 -13.5t-24 -33t-18 -40t-11.5 -34.5q-11 -34 -18.5 -72t-10 -75.5t-0.5 -72.5t10.5 -63t23 -46t36.5 -21q32 -3 56 13.5t40.5 45t26 66.5t13.5 77.5t2 77.5t-8 67z" />
    <glyph glyph-name="one" unicode="1" horiz-adv-x="391" 
d="M194 175q5 73 11.5 150t2.5 151q-17 -6 -32 -20.5t-28.5 -32.5t-25.5 -36.5t-21 -31.5q-10 -12 -22.5 -37.5t-26.5 -49.5t-29 -38.5t-30 -2.5q-8 6 0.5 31t26 58t39 67.5t39.5 58.5q16 23 33.5 45t34.5 43.5t32.5 43t27.5 45.5q10 17 21.5 29.5t29.5 17.5q7 -2 18.5 -6.5
t23 -10t20 -12t10.5 -13.5q2 -12 0 -25t-5.5 -26l-7 -26t-4.5 -25q-2 -27 -0.5 -50.5t6.5 -51.5q2 -60 2 -121t2 -121q1 -11 3.5 -39.5t-0.5 -58.5t-15.5 -52t-41.5 -18q-29 2 -48 15t-29.5 35t-14 51t-2.5 64z" />
    <glyph glyph-name="two" unicode="2" horiz-adv-x="479" 
d="M332 -6q-34 2 -58 4.5t-42.5 6t-34.5 8.5t-34 11q-16 7 -30 14.5t-22.5 17t-9.5 22t11 28.5q26 36 40.5 79t28.5 82q11 36 26.5 75.5t27 80t16.5 80t-5 75.5q-8 40 -29.5 48t-45.5 -6.5t-45 -44.5t-27 -66q-2 -6 -3 -14.5t-0.5 -17.5t4.5 -16.5t12 -12.5q0 -11 -6.5 -20
t-15.5 -15t-18.5 -9t-15.5 -3q-15 -2 -24 5t-13.5 20t-4.5 29t3 32q8 27 27 63t47 68.5t64 54.5t78 22q21 0 43 -7t41 -19t31.5 -29t14.5 -36q11 -53 3.5 -107t-25.5 -105.5t-43 -97.5t-49 -83t-42.5 -63t-25.5 -37q16 -6 50.5 -9t72 -5t70 -3.5t45.5 -4.5q6 0 15 -1.5
t17.5 -5t14 -9.5t5.5 -14q0 -2 -2.5 -12.5t-16 -23t-41.5 -22t-79 -7.5z" />
    <glyph glyph-name="three" unicode="3" horiz-adv-x="464" 
d="M235 118q33 10 53 35t26 55.5t-3 61.5t-34 54q-20 19 -44.5 23t-49.5 6.5t-46 9.5t-33 31q-10 15 -0.5 30.5t27.5 31.5t40 33.5t38.5 36.5t21.5 39.5t-10 44.5q-4 9 -16 10t-27 -2.5t-30.5 -12t-25.5 -19.5q-5 -5 -13 -15.5t-17 -19t-19.5 -11t-20.5 8.5
q-14 16 -8.5 36.5t22 40.5t38.5 37.5t42 26.5q44 17 80.5 15.5t62.5 -17t39 -43.5t10 -63q-3 -27 -16 -54t-30 -51t-36 -43.5t-35 -29.5q29 1 61.5 -6.5t63 -22.5t56.5 -38t41.5 -53t18.5 -67.5t-12 -80.5q-9 -26 -29.5 -48.5t-48 -40t-60 -29.5t-63.5 -18q-38 -6 -71.5 2.5
t-61 26.5t-49 42t-34.5 49t-17 49.5t3 41.5q7 21 13.5 18.5t16 -17.5t23.5 -37t36 -39.5t53 -24.5t74 7z" />
    <glyph glyph-name="four" unicode="4" horiz-adv-x="430" 
d="M278 307q-1 1 0.5 -21t4 -56t4 -74t1 -75t-5 -60t-14.5 -27q-12 -2 -27 1.5t-28.5 10.5t-24 16t-14.5 19q-10 25 -14.5 52.5t-6 54.5t-1 54t0.5 52q0 20 -0.5 29.5t-5 14t-14 6.5t-27.5 8q-27 4 -53 15.5t-46 31.5q-18 18 -11.5 43t23 51.5t37 50t30.5 37.5q17 25 41 55
t48.5 54.5t47.5 38.5t39 8q4 -10 0.5 -17t-10.5 -14.5t-14.5 -15.5t-11.5 -20q10 -16 18.5 -51t15 -72.5t10 -69.5t3.5 -42q0 -1 12 0t30 2t38.5 2t38.5 0t30 -5.5t12 -13.5q0 -16 -19.5 -29.5t-45 -23t-52 -15t-39.5 -5.5zM75 406q12 -4 25.5 -10t25 -8t19.5 1t8 17
q0 27 -2.5 54t-2.5 50q-20 -27 -36.5 -50t-36.5 -54z" />
    <glyph glyph-name="five" unicode="5" horiz-adv-x="539" 
d="M256 95q34 14 55 36.5t33 46.5t17 45.5t7 33.5q2 29 -15.5 42t-43 14.5t-53 -6.5t-45.5 -21q-40 -38 -73 -45t-61 21q-18 16 -29 38t-16 46t-5.5 48.5t1.5 46.5q4 29 11 62.5t11 62.5q-11 6 -21 13.5t-15 16.5t-2.5 19t16.5 20q22 16 45.5 19t46.5 -1t46 -10t45 -8
q27 -4 68.5 1t81.5 6.5t70 -6.5t34 -38q1 -11 -17 -19t-47 -13.5t-65 -9.5t-70.5 -6t-63.5 -3.5t-44 -2.5q4 -53 2.5 -106t2.5 -110q12 19 36.5 40.5t55.5 38.5t65.5 27t66.5 5t59.5 -28.5t43.5 -71.5q14 -44 16 -79t-4.5 -63.5t-20.5 -51.5t-32 -44q-24 -30 -56.5 -51.5
t-69.5 -34t-76.5 -16.5t-77.5 0q-19 2 -43 8t-45.5 15.5t-35.5 22.5t-12 30q2 16 24 16t54.5 -3.5t71 -5t73.5 12.5z" />
    <glyph glyph-name="six" unicode="6" horiz-adv-x="565" 
d="M221 30q-32 18 -45 29t-17 4q-7 -25 -7.5 -45t-0.5 -34t-2.5 -21.5t-12.5 -7.5q-5 -2 -13 9.5t-14 32.5t-8.5 50.5t2.5 62.5q0 5 -9.5 17t-23 38t-29 70t-27.5 115q-4 19 -6.5 56t2 81.5t20.5 92.5t49 90q36 47 69 60.5t54 -3.5q0 -9 -5.5 -16t-14.5 -14.5t-20 -17
t-21 -23.5q-14 -42 -23.5 -87t-9.5 -92q1 -63 7.5 -100.5t13.5 -57t13 -25t8 -5.5q3 9 15 22t27 26.5t30.5 26t26.5 19.5q78 39 144 18.5t120 -84.5q16 -20 23 -56.5t-1 -78t-34.5 -81.5t-77.5 -66q-60 -32 -108 -29t-94 24zM211 195q-1 -3 5.5 -12.5t19.5 -21.5t30.5 -25
t38 -22.5t44 -12.5t46.5 4q19 5 29.5 17.5t14.5 27.5t3 31t-5 28q-11 35 -39 52t-62 15t-68 -22t-57 -59z" />
    <glyph glyph-name="seven" unicode="7" horiz-adv-x="586" 
d="M514 312q-33 -6 -56.5 -6t-25.5 -8q-3 -14 -9.5 -43t-14 -61t-15.5 -60.5t-14 -40.5q-8 -19 -15.5 -37.5t-15.5 -33.5t-17.5 -23.5t-21.5 -6.5q-14 2 -20 23.5t-6.5 54t2.5 71t7 73.5t8 62.5t6 38.5q-15 4 -40 6.5t-53 4t-57.5 3t-53.5 3.5t-40 6t-18 11t13.5 17.5
t39.5 19.5t52 15t49 5q9 -2 28.5 -2t38.5 1t33.5 2.5t14.5 3.5q12 58 14.5 112t9.5 103q-39 -1 -80 1.5t-82 4t-81.5 -1t-80.5 -13.5q-13 22 -5 38t30.5 27t56 17.5t71 9.5t76 3t71.5 -2.5t56.5 -6t31.5 -7.5q8 -3 21.5 -13.5t27 -25t23.5 -30t11 -28.5q-3 -47 -10 -103.5
t-13 -102.5q0 -2 7 -3.5t17 -3t21.5 -2t21.5 -0.5q17 -1 31.5 -5.5t25.5 -11t18 -14.5t8 -15q0 -9 -11.5 -13.5t-27 -6.5t-32 -3.5t-26.5 -2.5z" />
    <glyph glyph-name="eight" unicode="8" horiz-adv-x="416" 
d="M378 638q8 -32 -7.5 -75.5t-39 -85.5t-46.5 -77t-29 -51q0 -2 19 -21t42 -48.5t43.5 -65.5t23 -72.5t-20.5 -70.5t-86 -59q-21 -8 -51 -10.5t-59 1t-53 14t-31 28.5q-9 17 -7 45t10 60.5t20 66.5t24 63.5t21.5 51.5t12.5 31q0 1 -11.5 7.5t-27.5 18t-34.5 28.5t-32 38.5
t-20 48t1.5 58.5q5 25 19.5 47t30 39.5t27.5 29.5t12 17t-8.5 6.5t-20 1t-23.5 -2.5t-18 -5q8 36 33.5 52t59.5 17t72.5 -11t71 -30t55.5 -41t27 -44zM225 288q-10 -23 -23 -53.5t-24.5 -59t-17.5 -50.5t-1 -28q6 -7 26.5 -3t43.5 14t43 24.5t25 29.5q4 13 -1 29.5
t-16.5 33.5t-26 33.5t-28.5 29.5zM235 564q4 16 8 31t4.5 27t-5 20.5t-18.5 11.5q-13 4 -35.5 -5.5t-44.5 -26t-39 -37t-18 -38.5q0 -22 8 -41t21.5 -35t31.5 -28.5t37 -21.5q6 19 13 36l14 34t12.5 35t10.5 38q3 10 3.5 10t-0.5 -4.5t-3 -11t-3 -10t-0.5 -1t3.5 16.5z" />
    <glyph glyph-name="nine" unicode="9" horiz-adv-x="541" 
d="M122 39q-23 9 -45 23t-37 30t-21 31.5t3 26.5q9 12 30 8t52 -13t71 -19t87 -10q45 0 76 23t48 58t19.5 76t-9.5 77q-8 18 -16.5 36.5t-28.5 25.5q-5 -5 -10 -17.5t-12.5 -27.5t-19.5 -29.5t-30.5 -22t-45 -5t-63.5 20.5q-48 21 -82 56.5t-44.5 80t5.5 95t68 102.5
q22 24 56 29t70 -4.5t68.5 -33t50.5 -57.5q9 -18 6 -38t-10 -37t-15.5 -29t-10.5 -15q4 -2 23 -8.5t42.5 -17t46 -26t33.5 -35.5q10 -18 18 -40t13 -45t6.5 -44.5t0.5 -37.5q-8 -51 -24 -87.5t-48 -65.5q-29 -34 -64.5 -49.5t-76.5 -17.5t-86.5 7.5t-93.5 25.5zM271 384
q14 10 23.5 24t12 27.5t-3.5 25.5t-22 19q-13 6 -17.5 16.5t-6 23t-4 26t-12.5 26t-31 22t-59 14.5q-17 -17 -22 -44.5t0 -58.5t17.5 -60t31.5 -48t43 -24.5t50 11.5z" />
    <glyph glyph-name="colon" unicode=":" horiz-adv-x="330" 
d="M256 442q-6 -18 -15 -34t-22.5 -25.5t-30 -10.5t-37.5 10q-13 7 -27 14.5t-25.5 17.5t-19 23.5t-7.5 34.5q0 14 15 22.5t37 11.5t47 1t45.5 -10t32.5 -21.5t7 -33.5zM237 39q-17 -19 -37 -30.5t-40.5 -13t-40.5 9t-36 34.5q-9 15 -11 32.5t3.5 33t18.5 27.5t33 16
q21 4 32.5 0.5t16 -11.5t2 -20.5t-9.5 -27.5q2 -4 15 -5t27 -4t23.5 -12t3.5 -29z" />
    <glyph glyph-name="semicolon" unicode=";" horiz-adv-x="316" 
d="M108 437q26 45 53 52.5t59 -18.5q12 -9 19.5 -30t4 -43.5t-21 -41.5t-55.5 -23q-17 -2 -33 6.5t-26 23t-11.5 34t11.5 40.5zM211 82q13 -10 18 -22.5t3.5 -27t-8 -30t-16.5 -30.5q-17 -26 -38.5 -49.5t-48.5 -41.5q-16 -11 -32 -15t-26 -0.5t-10.5 15.5t14.5 34
q18 25 25 47t11.5 41.5t10.5 36.5t22 32q22 20 39.5 21t35.5 -11z" />
    <glyph glyph-name="less" unicode="&#x3c;" horiz-adv-x="321" 
d="M210 106q-40 16 -78 44t-61.5 61.5t-25 69t31.5 65.5q17 15 39 36.5t47 39t51 26t52 -1.5q25 -11 27.5 -26.5t-9 -34t-33 -38.5t-44 -37.5t-41.5 -32.5t-27 -23q11 -7 30.5 -17.5t41.5 -23.5t44 -28t38 -31q5 -7 11 -15.5t9.5 -16t4 -14.5t-4.5 -11q-15 -11 -44.5 -6.5
t-58.5 15.5z" />
    <glyph glyph-name="equal" unicode="=" 
d="M77 232q22 16 59 24t80 9.5t86.5 -3t79 -12.5t58 -18.5t22.5 -21.5q0 -6 -18 -12.5t-47 -13.5t-67 -12.5t-78.5 -8.5t-80 -3t-72.5 6q-8 4 -15.5 13.5t-12 20t-3.5 19.5t9 13zM55 330q0 26 22 41t55 15q27 5 60 5.5t66.5 -2t64.5 -7.5t56 -10.5t41 -10.5t19 -8
q9 -9 3 -23t-26.5 -25.5t-56 -15t-84.5 8.5h-153q-13 0 -26.5 0.5t-24 3.5t-15.5 9.5t-1 18.5z" />
    <glyph glyph-name="greater" unicode="&#x3e;" horiz-adv-x="354" 
d="M115 141q12 21 33.5 47.5t43 50.5t38.5 41.5t20 21.5q-7 4 -25 13t-40 21t-42.5 26t-32 29t-8.5 29.5t28 27.5q22 12 48 4t51 -24.5t46.5 -36t34.5 -32.5q32 -32 36.5 -61t-9 -55.5t-39 -49t-53 -41.5t-53 -34t-37.5 -25q-12 -9 -22.5 -7t-17 10t-7.5 20t7 25z" />
    <glyph glyph-name="question" unicode="?" horiz-adv-x="412" 
d="M178 401q1 7 11.5 16t26 21t33.5 28.5t34 39.5q12 18 21 32.5t14.5 30t7 33t-2.5 40.5q-2 16 -14.5 18.5t-31.5 -4.5t-41 -21t-42.5 -30t-36.5 -31.5t-22 -26.5q-6 -9 -12 -27.5t-14.5 -34t-20 -21.5t-27.5 9q-26 23 -29 47.5t11 56.5q14 29 35 57.5t47 52.5t57 40.5
t64 22.5q36 6 65 -6.5t48.5 -36.5t28 -56t3.5 -64q-2 -17 -18.5 -46.5t-38.5 -60.5t-44 -57t-35 -34q-10 -7 -10.5 -17t3.5 -21.5t10.5 -23.5t9.5 -24q2 -12 6.5 -31t4 -37.5t-10.5 -32t-37 -13.5q-18 1 -29.5 13.5t-18 32t-9 43.5t-2.5 47t2 43.5t4 32.5zM222 77
q15 4 29.5 -4.5t22 -21.5t4.5 -27t-23 -21q-20 -6 -35 4t-22 24t-2 28.5t26 17.5z" />
    <glyph glyph-name="at" unicode="@" horiz-adv-x="815" 
 />
    <glyph glyph-name="A" unicode="A" horiz-adv-x="618" 
d="M537 -137q-12 -2 -19 4.5t-11 17t-5 23t-1 23.5q0 10 -2.5 40.5t-8.5 71.5t-17 88t-29 89q-4 8 -39 3t-89 -5q-17 1 -33.5 -0.5t-29.5 -3.5t-21.5 -4t-8.5 -3q-1 -13 -2.5 -33.5t-5 -43.5t-10 -46t-17.5 -41t-27 -29t-39 -9q-15 1 -21.5 30t-9 66t-1.5 70.5t1 43.5
q-55 7 -74.5 19t-13.5 24.5t33 23.5t66 18q4 36 9 90t15.5 110t29 105.5t50.5 76.5q17 13 44 9t56.5 -21t57.5 -44t48 -60q12 -22 25.5 -57t26 -71.5t23.5 -67.5t18 -45q2 -4 16 -3t30.5 0t30.5 -7t15 -24q1 -15 -11.5 -26.5t-27.5 -19t-28 -11.5t-13 -5q12 -63 23 -126.5
t16 -115t1 -85.5t-20 -39zM261 599q-10 -7 -16 -26t-9 -45.5t-4.5 -58t-1.5 -62v-57v-44.5q4 -1 20 -1t36.5 0.5t43.5 2t42 3.5t31 4t12 4q-2 14 -11 42t-22.5 61.5t-30 68t-33 61t-32 40.5t-25.5 7z" />
    <glyph glyph-name="B" unicode="B" horiz-adv-x="491" 
d="M288 391q44 2 77.5 -13.5t56 -43t34 -63t12.5 -71.5t-8.5 -69.5t-28.5 -57.5q-28 -32 -66 -51.5t-77.5 -22t-76.5 14t-62 55.5q-5 7 -5.5 2.5t0 -14.5t-0.5 -23t-5.5 -23t-16 -14.5t-31.5 2.5q-29 8 -43.5 28.5t-21.5 44.5t-9 47t-4 36q-1 45 1 84t6.5 76.5t13 76
t20.5 81.5q9 33 20.5 62.5t27.5 56t37.5 50.5t51.5 45q32 21 69.5 20t69 -18.5t49.5 -48.5t11 -70q-6 -29 -17 -54.5t-24.5 -48t-29 -41.5t-30.5 -35zM304 608q-15 7 -31.5 -5.5t-33 -36t-31 -53t-23.5 -55t-11.5 -42.5t4.5 -16q31 3 56 19t42.5 38.5t28 47.5t14 47t0 37.5
t-14.5 18.5zM370 153q13 34 11 68t-14 61.5t-32 45.5t-41 20q-25 4 -46 0.5t-37.5 -10.5t-27.5 -16t-15 -17q-8 -17 -12.5 -39.5t-2.5 -48.5q12 10 28.5 16t31.5 9t27 1.5t16 -6.5q7 -6 -0.5 -10t-21 -11.5t-28.5 -20.5t-24 -38q-6 -20 -1.5 -36.5t26.5 -27.5
q20 -10 45.5 -9.5t49 9t42.5 24t26 36.5z" />
    <glyph glyph-name="C" unicode="C" horiz-adv-x="526" 
d="M512 238q3 -6 0.5 -26t-7 -42.5t-9.5 -42t-8 -23.5q-20 -26 -45 -51t-57 -38q-53 -21 -104.5 -17.5t-96 26.5t-80.5 62.5t-58 89.5q-21 47 -27.5 108t2 122.5t32 115.5t64.5 87q43 34 87 44.5t85 6t76 -20.5t59 -34q7 -5 24.5 -18t29 -27.5t9 -25.5t-34.5 -12
q-22 -1 -42 3t-40 9.5t-40 10t-42 4.5q-115 0 -142 -157q-4 -24 -7.5 -55.5t-4 -66t3.5 -67.5t14.5 -60t29 -44t48.5 -19q27 -2 52.5 6.5t49 23t45 31.5t40.5 34q3 3 15.5 18.5t28.5 29.5t30 21t20 -6q3 -6 3 -6.5t-0.5 1t-1.5 3.5z" />
    <glyph glyph-name="D" unicode="D" horiz-adv-x="562" 
d="M422 376q-1 27 -9 60.5t-22.5 65.5t-35 57.5t-46.5 36.5q-21 9 -43.5 15t-41.5 3.5t-31.5 -16t-11.5 -44.5q1 -51 3 -102.5t3 -103.5t-0.5 -104t-7.5 -104q-3 -26 -7.5 -53t-11.5 -50t-17.5 -38t-25.5 -17q-20 -1 -32.5 12t-20.5 34.5t-12 47.5t-5.5 51.5t-1.5 47.5
t-1 34q-2 72 -1 142.5t3 141.5q0 12 -2.5 31.5t-4.5 41t-2 42.5t5 37.5t17 26.5t33 8q19 -2 38.5 1t39.5 6.5t41 5.5t43 -1q24 -3 51.5 -14.5t54.5 -26.5t51 -33t40 -34q45 -49 63.5 -109t16.5 -120t-21 -114.5t-49 -91.5q-38 -47 -90.5 -76t-109.5 -34q-10 -2 -22 -2
t-22.5 1.5t-17.5 6t-7 13.5t18 15t44 14.5t56 22.5t54 39q35 38 49 97t9 130z" />
    <glyph glyph-name="E" unicode="E" horiz-adv-x="469" 
d="M439 141q10 -7 5.5 -23.5t-19 -35.5t-37.5 -36.5t-51 -27.5q-24 -9 -50 -15.5t-53.5 -7.5t-57.5 5t-61 23q-65 34 -86 81t-12.5 97t38.5 96.5t67 78.5q-54 24 -75 60.5t-19 77t22.5 81t51 73t66 52t67.5 17.5q30 -2 61.5 -14.5t55.5 -28.5t35 -32.5t1 -26.5
q-6 -6 -19.5 -0.5t-34.5 13.5t-49.5 15t-63.5 5q-54 -3 -76.5 -37.5t-26.5 -88.5q-2 -33 7.5 -56t22 -37t24 -19.5t14.5 -3.5q36 30 76.5 49t76.5 23.5t62 -7t32 -43.5q-1 -17 -16 -31t-38 -25t-50 -20t-50 -15t-39 -9.5t-17 -4.5q-26 -19 -51.5 -43t-37.5 -61
q-11 -34 -0.5 -61t36 -43.5t62.5 -22t80 3.5q15 2 33 9t36 12.5t33.5 8t24.5 -4.5zM360 444q-23 14 -46 1t-51 -39q13 1 32 5.5t35.5 10.5t26 12.5t3.5 9.5z" />
    <glyph glyph-name="F" unicode="F" horiz-adv-x="426" 
d="M285 -3q-3 -18 -19.5 -19.5t-37 7t-40 25t-28.5 35.5q-8 16 -14.5 39.5t-11 49t-8 50t-4.5 42.5q-5 48 -5.5 73.5t-11.5 25.5q-12 0 -32 5.5t-34.5 14t-17.5 17.5t17 17q17 3 35 6t36 7q5 29 10 64t11 64q12 48 35.5 82t55 54t69 26.5t78.5 0.5q14 -2 39.5 -8.5t52 -16.5
t48.5 -22.5t29 -26.5q4 -14 -5.5 -20t-26 -6.5t-38 2.5t-41 7t-34.5 8t-19 5q-42 12 -69 5t-43 -26t-23.5 -45.5t-10 -52.5t-2 -48.5t-0.5 -33.5q11 1 39.5 -0.5t57.5 -7t50.5 -15t19.5 -23.5q0 -5 -22 -10t-50 -9.5t-54.5 -8t-36.5 -4.5q-3 -15 0 -54.5t10.5 -88t19 -99
t26.5 -87.5z" />
    <glyph glyph-name="G" unicode="G" horiz-adv-x="579" 
d="M428 -186q-27 -21 -60.5 -30.5t-65 -6.5t-54.5 18.5t-29 44.5q-5 30 0 57.5t17.5 52.5t32.5 48.5t44 46.5q28 26 57 45.5t55 36.5v47.5t-0.5 66t-3 72.5t-6.5 68q-21 -59 -43.5 -115.5t-51 -103.5t-65.5 -82t-87 -51q-38 -12 -65 -2t-44.5 35t-26.5 60.5t-11 74.5t2 77.5
t13 68.5q15 52 41.5 108.5t61.5 105.5t76.5 85t85.5 47q31 7 56.5 0t45 -22t33 -34.5t20.5 -37.5t7 -31t-7 -14q-14 -3 -31 17t-47 48q-11 9 -27.5 7.5t-35.5 -11.5t-38 -28t-34 -42q-29 -43 -50 -84.5t-33.5 -84t-17.5 -89t-3 -98.5q0 -47 12.5 -63t31.5 -9.5t42.5 30.5
t46 57.5t41.5 72t29 72.5q8 27 22.5 57t34 50.5t44.5 26t55 -15.5q10 -7 16.5 -29t10.5 -51.5t6 -63t2.5 -64.5t0 -56t-1.5 -37q12 7 27 17.5t30 17t28.5 7.5t23.5 -10q9 -9 -0.5 -22t-28 -28t-41.5 -31.5t-41 -31.5q-2 -2 -3.5 -32t-10 -72t-28.5 -87t-60 -76zM427 37
q-25 -15 -47 -34q-19 -17 -37.5 -40t-27.5 -52q-6 -31 0 -45.5t19.5 -16t31 8.5t33.5 28q18 14 24.5 39t7.5 50q1 29 -4 62z" />
    <glyph glyph-name="H" unicode="H" horiz-adv-x="574" 
d="M397 312q-19 -2 -48.5 -1.5t-57.5 0t-48 -2.5t-21 -7q-3 -17 -4.5 -42t-2.5 -52.5t-0.5 -53t0.5 -43.5q1 -8 1.5 -23t1 -31t0 -30t-2.5 -20q-6 -15 -17 -10t-23 17t-21 25.5t-10 16.5q-17 34 -31 71.5t-17 74.5q-2 22 -2.5 46.5t-2.5 44.5q-9 -1 -22 -2.5t-25.5 -0.5
t-22.5 6.5t-14 19.5q1 16 6.5 25.5t16 14.5t25.5 8l35 7q0 14 -1 40.5t-1.5 58.5t-0.5 67t2.5 66t7.5 54t15 31q25 22 43.5 11t31 -41.5t21 -73t13 -83.5t7 -74t3.5 -43q23 4 50.5 5t51 1.5t39.5 2.5t16 8q0 19 -2 55t-4 74t-2 70.5t4 44.5q8 25 21.5 28t26.5 -6t23 -25.5
t11 -29.5q1 -23 4.5 -48.5t6.5 -52t4.5 -52.5t0.5 -48q14 -2 29.5 0t29.5 4t24.5 1t14.5 -8q4 -12 -7 -23t-28 -20.5t-34.5 -18t-25.5 -15.5q-1 -2 -0.5 -11.5t1 -23t1.5 -29.5t1 -31q0 -10 0.5 -34t0 -53.5t-2 -60t-5.5 -54t-10.5 -35t-16.5 -3.5q-21 17 -30.5 56.5
t-14 86.5t-6.5 94t-6 80z" />
    <glyph glyph-name="I" unicode="I" horiz-adv-x="306" 
d="M221 383q2 -24 -1 -57.5t-9 -70t-15 -72t-19.5 -62.5t-21.5 -43t-21 -13q-13 3 -21 25.5t-13.5 54.5t-8 70t-4 72.5t-2.5 62t-2 38.5q-3 22 -5 53t-2.5 64.5t0 67t2 60t3.5 42.5t5 15q47 -3 73.5 -36.5t39.5 -80t16.5 -98t5.5 -92.5z" />
    <glyph glyph-name="J" unicode="J" horiz-adv-x="453" 
d="M74 130q11 -12 38.5 -20.5t59.5 -5.5t61.5 21t44.5 59q9 32 12.5 73t3.5 84.5t-3.5 86.5t-8 80t-9 64.5t-7.5 39.5q-5 20 -13 34l-14 24.5t-6.5 20t10.5 20.5q20 20 38.5 15.5t34.5 -24t29 -49t23 -59.5t16 -55.5t8 -36.5q7 -38 16 -82.5t14 -91.5t3.5 -93.5t-14.5 -87.5
t-41 -75t-75 -55q-72 -34 -136.5 -24t-121.5 58q-24 21 -29 57t2 71t21 61t28 26q10 0 13 -8t2.5 -20.5t-3 -28t-4 -31t-0.5 -28.5t7 -20z" />
    <glyph glyph-name="K" unicode="K" horiz-adv-x="521" 
d="M100 -20q-14 1 -23.5 23t-15 53.5t-8.5 68t-4.5 68.5t-2.5 54t-3 25q-14 21 -14 41.5t6 39t13.5 33.5t8.5 24q3 22 4.5 56t4 70t6.5 69.5t11 55.5q8 27 24.5 37t33.5 7.5t29.5 -15.5t13.5 -32q1 -23 2 -54t1.5 -61t1 -54t0.5 -32q16 11 30 25.5t31 33.5t40.5 41.5
t58.5 48.5q27 20 58.5 37t63.5 30q15 5 27 3.5t17.5 -8.5t3.5 -18.5t-15 -24.5q-20 -19 -50.5 -47t-64.5 -59t-68 -63.5t-61 -61.5t-43 -52t-15 -35q3 -26 16 -46.5t29 -46.5q11 -17 27 -32t35 -23.5t40.5 -8.5t43.5 14q31 19 57.5 16.5t44 -16.5t22 -33t-7.5 -32
q-36 -38 -70 -52t-65.5 -10t-60.5 22t-55 44t-48 56.5t-40 59.5q-2 3 -3 -13.5t-2.5 -43.5t-5.5 -59t-11 -60t-18.5 -46t-29.5 -17z" />
    <glyph glyph-name="L" unicode="L" horiz-adv-x="407" 
d="M-17 -14q-13 33 -3.5 62t32.5 48t56 24t68 -10q2 -1 5 10t5 29t2 40.5t-3 44.5q-13 -7 -31.5 -14t-36 -10t-31 -1.5t-14.5 11.5q-2 9 8 18t26 20t36 26t38 37q1 1 1.5 26.5t2 64.5t4 85.5t8 88.5t14 74t22.5 43q25 22 58 17.5t61.5 -28t47.5 -62.5t18 -86
q-2 -63 -21 -109t-41 -77.5t-40 -48.5t-18 -22q-2 -28 -2 -57.5t-0.5 -57t-2.5 -50.5t-8 -38q35 -21 64 -42.5t61.5 -36.5t73.5 -20.5t101 4.5q15 3 16 -8t-14 -26t-46 -28.5t-80 -16.5q-48 -3 -89 9.5t-72 29.5q-36 19 -67 45q-6 -9 -16 -20q-8 -9 -20 -19.5t-29 -18.5
q-17 -9 -37 -11.5t-39.5 2.5t-37 19t-30.5 40zM36 17q4 -14 13 -22t21 -8t25 11t27 35q-11 8 -28 14t-32 6.5t-24 -7.5t-2 -29zM249 412q32 33 48 69q14 31 13 70t-36 81q-3 3 -5.5 -5t-5 -23t-4.5 -35t-3 -41q-4 -50 -7 -116z" />
    <glyph glyph-name="M" unicode="M" horiz-adv-x="854" 
d="M871 -80q-98 8 -154 81.5t-77 194.5q-8 43 -10.5 88t-3.5 89.5t-1 88t-1 84.5q-30 -4 -52 -41.5t-37.5 -92t-25.5 -118t-17.5 -120t-12.5 -98t-10 -50.5q-6 -14 -20 -22t-30.5 -9.5t-33 3t-26.5 15.5q-24 26 -37 69.5t-15 87.5q-4 106 -15.5 216.5t-34.5 212.5
q-7 -5 -14.5 -10.5t-15 -16t-16 -27.5t-17.5 -44q-7 -21 -13 -58t-10.5 -82t-8 -94t-6 -93.5t-4 -80t-2.5 -54.5q-1 -15 -15.5 -24.5t-33.5 -10.5t-38 7t-28 27q-14 28 -18 62.5t-2.5 70.5t7 71t10.5 66q4 27 12 69.5t20.5 89t30.5 91.5t43 77.5t58.5 46.5t75.5 -1
q27 -10 46 -44t31 -82t18.5 -104.5t9.5 -110.5t3.5 -100t1.5 -73q8 21 18.5 57.5t24 81t30 92t36.5 91t43 78.5t49 53t55.5 15.5t62.5 -33.5q22 -21 36.5 -67.5t25 -105.5t18.5 -124t16.5 -122t18.5 -99.5t26 -57.5q24 -24 46 -30.5t39 -7.5t29.5 -1t17.5 -11
q4 -9 -2.5 -19.5t-20.5 -19t-35 -14t-45 -3.5z" />
    <glyph glyph-name="N" unicode="N" horiz-adv-x="547" 
d="M157 130q1 -15 -1 -42t-10.5 -48.5t-25.5 -28t-46 19.5q-18 14 -27.5 45t-13 73.5t-2 94t7 105.5t13.5 108.5t16 103.5q3 18 10 40.5t16 42.5t20.5 34.5t24.5 16.5t27 -11t29 -47q18 -43 27 -90t15 -94.5t12 -94t17.5 -88.5t32.5 -78t56 -63q15 9 23.5 29.5t13 47.5
t5.5 57t0 58t-2.5 51.5t-1.5 36.5q-1 28 0.5 62t4.5 68.5t7 66t9 54t9 33t8 2.5q2 -4 4 -24.5t5 -51t7 -68t9 -76t11 -74.5t13 -63q13 -29 19 -71t4 -86t-11 -84t-25 -64q-18 -28 -39 -33.5t-43 4.5t-44.5 32.5t-42 51t-36 59.5t-27.5 57q-9 22 -18.5 49.5t-18.5 56.5
t-17 58.5t-15 57.5q-17 64 -32 132q-2 -10 -4 -27q-2 -14 -2.5 -38.5t0.5 -59.5q1 -43 5 -89t8.5 -87t9 -74.5t6.5 -52.5z" />
    <glyph glyph-name="O" unicode="O" horiz-adv-x="531" 
d="M397 71q-26 -33 -60.5 -53t-72 -24.5t-75 7t-69.5 40.5q-60 52 -85.5 124.5t-26 151t19.5 155t51 137.5q13 27 43.5 51.5t68 37.5t78 11t74.5 -27q27 -20 40 -44.5t32 -53.5q49 -77 60.5 -156.5t1.5 -150t-34 -125t-46 -81.5zM147 522q-9 -19 -19.5 -63.5t-17 -99
t-6 -110.5t13 -99t40 -64t74.5 -5q35 12 57 39.5t35.5 62t20 73t10.5 71.5q5 49 0.5 99t-17 93t-32 75.5t-43.5 48.5q-23 9 -41 -4t-32 -34.5t-25 -45.5t-18 -37z" />
    <glyph glyph-name="P" unicode="P" horiz-adv-x="397" 
d="M187 88q4 -18 7 -36.5t-2 -37.5q-8 -12 -23 -15t-31.5 0t-32 9.5t-24.5 12.5q-17 49 -24 102t-8 106t2 105t8 98q2 34 12.5 72t27.5 73.5t41 65.5t54.5 46.5t67.5 17.5t79 -21t55 -56t5.5 -73.5t-32.5 -80t-57.5 -74.5t-69 -57t-68.5 -27q-2 -57 0 -115t13 -115zM328 640
q-39 1 -66.5 -20t-45.5 -51t-26 -63.5t-7 -55.5q2 1 16.5 9t34.5 20.5t41.5 30t37 38t21.5 44t-6 48.5z" />
    <glyph glyph-name="Q" unicode="Q" horiz-adv-x="571" 
d="M199 42q-47 23 -82 66t-57.5 94.5t-32.5 105.5t-6 100q3 36 10.5 81t23.5 87t43 74t69 43q34 8 73.5 9.5t77.5 -6t71 -24t54 -44.5q19 -24 33 -54t23.5 -62t14 -64t3.5 -62q-2 -36 -6.5 -68.5t-9 -58t-8.5 -41.5t-4 -19q-1 -2 10.5 -17t27.5 -37.5t33.5 -48.5t28.5 -49
q10 -21 -3 -31.5t-38 -7t-56.5 21t-59.5 52.5q-2 0 -20 -15.5t-49 -29t-72.5 -16.5t-91.5 21zM132 445q-39 -146 -12 -232.5t138 -104.5q36 -6 48 5t8.5 30.5t-18 44t-30.5 47t-29 38.5t-14 18q-3 15 7 20t26 3t36.5 -9t39.5 -16t34 -18t21 -15q6 12 15 42.5t13.5 70.5
t3 84.5t-16.5 84.5t-46 70t-83 42q-19 4 -36 -6t-31.5 -29t-26.5 -43.5t-21.5 -49t-16 -45.5t-9.5 -32z" />
    <glyph glyph-name="R" unicode="R" horiz-adv-x="536" 
d="M474 2q-34 15 -59.5 44.5t-46.5 58.5q-23 33 -47 74.5t-51.5 78.5t-59 62.5t-69.5 25.5q-7 0 -10.5 -16.5t-5.5 -39.5t-3 -49t-1 -45q-1 -41 3.5 -77.5t6 -64t-3 -43t-23.5 -14.5q-16 1 -31 10t-27.5 23.5t-21.5 33.5t-12 40q-8 60 -7.5 136t14.5 151.5t43.5 144
t80.5 113.5q29 26 65 39t70.5 10.5t64 -20.5t46.5 -55q19 -42 8.5 -79t-38 -66.5t-64.5 -49t-70 -25.5q25 -9 55 -29.5t59 -45t55.5 -51t46.5 -48.5q22 -25 35.5 -41t22.5 -29.5t15.5 -27t13.5 -34.5q13 -35 8.5 -55.5t-16 -30.5t-25.5 -11.5t-21 2.5zM304 619
q-30 -5 -53 -23.5t-40.5 -45t-31 -58t-25.5 -62.5q16 -6 39 1t46 21.5t44 35t32 43.5t10 46t-21 42z" />
    <glyph glyph-name="S" unicode="S" horiz-adv-x="539" 
d="M398 583q-12 -2 -32 -4.5t-43.5 -12t-49 -28.5t-49.5 -53q-33 -47 -17.5 -76t82.5 -58q34 -14 71.5 -24.5t70 -29t56.5 -51t32 -89.5q6 -44 -15.5 -75t-57.5 -51.5t-79.5 -30t-80.5 -9.5q-76 -1 -129 19.5t-84 46.5t-39 50.5t6 32.5q9 5 24.5 0t38 -13.5t51 -16.5t64 -9
t78 8t92.5 36q18 10 21.5 28.5t-8.5 39t-40.5 38.5t-74.5 28q-40 9 -78.5 19t-69.5 28t-51 46t-24 72q-2 30 18 69t52.5 77t74.5 70.5t84.5 48.5t80.5 10t64 -44q17 -26 37.5 -42.5t36 -27.5t22 -20t-3.5 -20q-11 -11 -24 -8.5t-29.5 9.5t-36 13.5t-41.5 3.5z" />
    <glyph glyph-name="T" unicode="T" horiz-adv-x="412" 
d="M292 602q4 -47 7 -107.5t3.5 -124.5t-2.5 -125.5t-10 -110.5t-18.5 -79.5t-28.5 -32.5q-11 -1 -20.5 19t-18 52t-15.5 72t-12 79t-9 72.5t-6 53.5q-3 22 -5 52t-2.5 62t-1.5 62t-2 52q-1 6 -10.5 7.5t-25 3t-35 6t-38.5 17.5q-24 15 -18 25t29.5 16.5t58 10t68 5t59 1.5
t30.5 -1q8 -1 26.5 -1t42 -1t49 -2.5t46.5 -4.5t34.5 -7.5t13.5 -10.5q0 -10 -17.5 -20.5t-45 -19.5t-61 -14.5t-65.5 -5.5z" />
    <glyph glyph-name="U" unicode="U" horiz-adv-x="485" 
d="M131 511q6 -39 13.5 -91.5t18.5 -106t26.5 -103t38.5 -82.5q22 -31 40.5 -28.5t33 21t24.5 44t13 41.5q7 33 14 78.5t14 93.5t14.5 94.5t16.5 82.5t20.5 58t25.5 21q8 1 10.5 -13.5t1.5 -36.5t-3 -46.5t-3 -42.5q-2 -31 -0.5 -62t3 -62.5t1.5 -63t-4 -63.5
q-5 -38 -14.5 -84t-28.5 -85t-51.5 -65.5t-83.5 -25.5q-66 1 -111 30t-74 76t-44 106.5t-19.5 122.5t-2 124t9 110.5t14 82t12.5 38.5q11 14 20.5 9.5t17.5 -20t14 -38.5t11 -45.5t7.5 -41.5t3.5 -27z" />
    <glyph glyph-name="V" unicode="V" horiz-adv-x="437" 
d="M160 172q-19 44 -34 93t-27.5 98.5t-22 97t-16.5 87.5t-12 71t-8 47q-6 31 7 40.5t32.5 5.5t39 -18t25.5 -32q21 -51 29.5 -104.5t15 -112t17.5 -122.5t38 -136q4 13 12.5 55.5t20 99.5t26.5 119t31.5 114t35 85t37.5 31q2 -1 0.5 -15.5t-4.5 -38t-6.5 -52.5t-6 -59
t-2.5 -58t5 -48q7 -32 5 -73.5t-10.5 -86t-22 -88.5t-28 -80t-28.5 -60t-24 -29q-15 -7 -32 6.5t-33.5 39t-31.5 58.5t-28 65z" />
    <glyph glyph-name="W" unicode="W" horiz-adv-x="838" 
d="M380 231q-6 -26 -12.5 -59.5t-17 -66.5t-27 -61t-42.5 -42q-34 -17 -61 -7.5t-49.5 37t-39.5 69.5t-30 90t-21.5 98t-14.5 93.5t-9 77t-4 47.5q-1 28 1.5 61t9 61.5t17.5 47.5t26 20t28 -13t22.5 -36t16 -48t8.5 -47q7 -58 14 -110t14.5 -102.5t17.5 -102t25 -108.5
q19 16 34 56t29 89.5t28.5 101.5t33.5 91.5t44 59.5t60 6q42 -18 67 -48t38.5 -68t19.5 -80.5t11.5 -85.5t14.5 -83.5t28 -74.5q8 25 15 78.5t16 118.5t21 133t30 121q7 21 16 41t18 35t18 23t17 5q19 -8 22 -33t-2 -73.5t-13 -124t-9 -184.5q0 -54 -18 -111.5t-47 -101.5
q-21 -32 -52 -34.5t-61.5 11t-56 38t-35.5 47.5q-20 47 -28.5 102.5t-14 110t-12.5 103t-24 82.5q-2 3 -8 -10.5t-14 -36.5t-17 -53t-17.5 -59t-15 -53.5t-8.5 -37.5z" />
    <glyph glyph-name="X" unicode="X" 
d="M490 23q-24 -14 -47.5 -6.5t-46.5 29t-45 52.5t-42 64.5t-37.5 66t-31.5 56.5q-11 -10 -25.5 -36t-30 -58.5t-32 -67t-32 -62t-29 -43.5t-23.5 -10q-18 10 -16.5 38.5t13.5 67t31 81.5t38.5 81.5t34.5 68t19 40.5q0 1 -4 9.5t-11 21.5t-14 27.5t-13 28.5q-14 32 -29.5 65
t-38.5 62q-4 5 -19.5 17.5t-29 27t-16.5 27.5t19 19q42 -2 75 -20.5t61 -46.5t53 -60.5t50 -60.5q14 20 34.5 46t42.5 52.5t44 52t40.5 44.5t31.5 29t17 6q9 -9 1 -34.5t-25.5 -60t-40.5 -72.5t-42.5 -71t-33 -56t-11.5 -28q4 -12 21.5 -40.5t39.5 -65t45.5 -77t40.5 -74.5
q13 -27 18 -49.5t5.5 -40t-2.5 -28t-7 -12.5z" />
    <glyph glyph-name="Y" unicode="Y" horiz-adv-x="422" 
d="M44 699q15 1 34 -14.5t36.5 -40t30.5 -56t16 -61.5q8 -59 21 -87t27 -39q16 -12 34 -9q20 51 38 102q14 44 27 92.5t15 89.5q1 18 19.5 16.5t39.5 -19t36.5 -49.5t9.5 -74q-5 -39 -20 -102t-44.5 -132.5t-75.5 -137t-113 -116.5q-39 -29 -76 -39t-59 -4.5t-23 24t31 45.5
q51 42 84 87.5t53 83.5q24 44 37 86q-32 7 -64 24q-27 14 -56.5 40.5t-51.5 68.5q-16 32 -34 70t-25 70.5t3 55.5t50 25z" />
    <glyph glyph-name="Z" unicode="Z" horiz-adv-x="554" 
d="M561 56q-39 -11 -89.5 -21.5t-103 -16.5t-103 -6.5t-90.5 7.5q-15 3 -34.5 7t-38.5 10.5t-34.5 16.5t-22.5 26q-9 20 -2 33t21 22t29.5 16t24.5 16q42 40 78 90t68.5 104t62.5 109t59 105q-23 3 -45.5 4.5t-44.5 4t-44 7.5t-43 16q-14 7 -29.5 25t-23 34.5t-1 25
t38.5 -2.5q52 -18 105 -26.5t108 -3.5q17 1 37 1.5t39.5 -2.5t37.5 -10.5t32 -21.5q7 -7 -2.5 -32t-29 -61.5t-46.5 -81.5t-56 -90.5t-58 -89.5t-52.5 -78.5t-38 -57t-15.5 -25.5q41 -5 72.5 -9t60 -5t57.5 2t65 12q23 5 48.5 7t46 1t33 -6t10.5 -12.5t-22.5 -18
t-64.5 -24.5z" />
    <glyph glyph-name="bracketleft" unicode="[" horiz-adv-x="507" 
d="M344 732q0 -8 -10 -13t-25 -9.5t-32 -10.5t-32.5 -16.5t-26 -27t-11.5 -43.5q-3 -72 -0.5 -143.5t2.5 -143.5q0 -38 -9.5 -75.5t-13.5 -75.5q-2 -23 -5 -48t-0.5 -45t15 -32t42.5 -9q33 4 67 12t68 15t67.5 9.5t65.5 -4.5q-1 -17 -32 -37t-77 -36.5t-101 -26.5t-103.5 -6
t-84 25.5t-43.5 66.5q-12 68 -5 138.5t15 137.5q4 35 9 76.5t11 83.5t12.5 82t12.5 72.5t11 55t9 28.5t20.5 10.5t39.5 7.5t48 3.5t46.5 -1.5t35.5 -7t14 -13z" />
    <glyph glyph-name="backslash" unicode="\" horiz-adv-x="421" 
d="M43 638q-4 9 -6.5 26.5t-1.5 34t6.5 27t17.5 5.5q11 -6 26 -27t31.5 -51t34 -65.5t33.5 -70.5t29.5 -65.5t23.5 -49.5q24 -50 46.5 -97.5t45.5 -99.5q8 -19 22 -49.5t23.5 -63t10 -62t-17.5 -45.5q-10 -10 -27.5 7.5t-38.5 50t-43.5 75t-43 84t-37 76.5t-25.5 53
q-6 12 -14 34.5t-15.5 47.5t-13.5 47.5t-9 36.5q-5 14 -12 33t-15 38.5t-16 38t-14 31.5z" />
    <glyph glyph-name="bracketright" unicode="]" 
d="M40 94q11 8 29.5 8t41 -3.5t47.5 -8.5t48.5 -7.5t44.5 0t36 14.5q19 15 30.5 59t16.5 102.5t4.5 124t-5.5 123.5t-14.5 101t-21.5 57q-22 -2 -45.5 -7t-47 -8.5t-47.5 -3t-46 11.5q-22 10 -27 18.5t0.5 16t18 13.5t27.5 10.5t29 7t22 3.5q22 1 47 7.5t49.5 9.5t47.5 -2
t42 -25q4 -14 11.5 -47t15.5 -77t16.5 -94.5t16 -99t12 -90t5.5 -68.5q1 -34 -2.5 -75.5t-12 -78.5t-23.5 -64t-37 -32q-26 -6 -66 -8t-82 1t-81 11t-63 23q-11 7 -18.5 19t-11.5 24.5t-5.5 22t-1.5 11.5z" />
    <glyph glyph-name="asciicircum" unicode="^" horiz-adv-x="378" 
d="M182 627q-16 -20 -27.5 -36.5t-23 -29t-24 -20t-30.5 -9.5t-20 15.5t4 42t16.5 49.5t16.5 38q12 28 24 44t27 21t34.5 -0.5t46.5 -19.5q20 -10 47.5 -37.5t49.5 -58.5t31 -59t-7 -39q-17 -11 -38 0.5t-43.5 30.5t-44 39.5t-39.5 28.5z" />
    <glyph glyph-name="underscore" unicode="_" 
d="M404 39q20 -5 44 -14t41 -17q13 -8 17.5 -16.5t1.5 -16.5t-12 -13t-22 -5q-42 -8 -91.5 -7.5t-99.5 3t-97 4.5t-84 -4q-31 -2 -52.5 5t-50.5 19q-13 9 -17 18t-2 17t7.5 14t11.5 9q5 3 29 7.5t59.5 8t79 6t86.5 2t83 -5t68 -14.5z" />
    <glyph glyph-name="grave" unicode="`" horiz-adv-x="354" 
d="M187 579q-8 5 -29.5 25t-42.5 45t-33 48.5t-1 36.5q8 9 33 4t57 -19t66 -34.5t60 -42t39.5 -41t4.5 -31.5q-14 -17 -33.5 -21.5t-40.5 -1.5t-42.5 12t-37.5 20z" />
    <glyph glyph-name="a" unicode="a" horiz-adv-x="490" 
d="M296 423q-3 -13 -17 -21.5t-32 -17.5t-37 -20t-32 -29q-20 -29 -28 -69t-7.5 -76.5t9 -63t21.5 -26.5q16 0 33.5 15t31.5 34.5t23 40t9 31.5t-1 30.5t0.5 38.5t6 33t15.5 15t26.5 5t29.5 1t22.5 -19.5t6.5 -56.5q-3 -81 8 -122.5t43 -48.5q22 -4 39.5 10.5t31.5 32.5
t24 32.5t16 11.5q7 -3 5 -25t-15 -49.5t-38.5 -55t-65.5 -42.5q-21 -8 -39 -8t-32.5 5t-25.5 14t-20 20q-20 25 -32 62q-10 -24 -28 -42q-15 -16 -39 -29.5t-59 -15.5q-35 -1 -66 22t-49.5 62t-20 90.5t22.5 108.5q16 37 42 63t55.5 42.5t59 24t53 8.5t38 -3.5t12.5 -12.5z
" />
    <glyph glyph-name="b" unicode="b" horiz-adv-x="484" 
d="M87 648q13 34 36 57t48.5 35t51.5 13t45 -9q20 -11 30.5 -27.5t15 -38t4.5 -46t-3 -49.5q-4 -36 -13 -70.5t-21.5 -66.5t-27 -62t-29.5 -55q-34 -60 -76 -112q-1 -42 9 -73t26 -51t34 -29.5t32 -9.5q21 0 37 21.5t25 52.5t11 65.5t-5 61.5q-7 26 -19 36t-23.5 14.5
t-18.5 8.5t-4 18q4 15 19 27t34.5 17.5t40 2.5t35.5 -19q15 -17 34 -32t38.5 -25.5t38 -16t32.5 -3.5t20.5 -4.5t3 -16t-17.5 -19t-39 -12.5q-17 -3 -33 0.5t-29 8.5q-15 6 -28 14q9 -12 13 -29q4 -14 5 -35t-4 -50q-5 -23 -16.5 -50t-32.5 -50t-52.5 -38.5t-76.5 -15.5
q-67 0 -112 33.5t-70.5 88.5t-34 125.5t-3 144t24 144.5t45.5 126zM132 298q28 38 53 86q20 42 39 99t24 127q2 28 -3 46.5t-14 24.5t-20 -1t-22 -29q-11 -23 -19.5 -50t-14.5 -56t-10 -59t-7 -57q-6 -64 -6 -131z" />
    <glyph glyph-name="c" unicode="c" horiz-adv-x="335" 
d="M290 377q-3 -5 -19 -2.5t-37 1t-42 -13t-34 -43.5q-12 -32 -16.5 -68t0 -68.5t17 -56.5t33.5 -33q30 -12 54 -8t43 13.5t32.5 20.5t21.5 14q19 6 17 -14.5t-28 -52.5q-14 -18 -35 -34.5t-47 -26.5t-56.5 -11t-64.5 12q-32 12 -58 39t-42.5 62.5t-23 76.5t1 82t30 79.5
t62.5 68.5q38 27 74.5 28t64 -10t42.5 -28.5t10 -26.5z" />
    <glyph glyph-name="d" unicode="d" horiz-adv-x="508" 
d="M291 354q6 67 10 126q3 51 5 101t0 76q-2 25 11.5 46t31.5 36t36 23t26 8t9.5 -40t0 -103.5t-4 -143.5t-1.5 -161q1 -75 9 -122t20.5 -73.5t26.5 -37.5t27 -14.5t22 -4.5t12 -7q4 -9 -6.5 -23t-31 -24t-48.5 -10.5t-59 16.5q-26 14 -39 37.5t-18 46.5q-6 26 -5 54
q-22 -40 -52 -70q-13 -13 -29 -25t-35 -21t-41 -14t-47 -3q-27 2 -48.5 21.5t-36 49t-21 66t-4.5 73t14 70t35 57.5q17 17 36 26t38.5 11.5t39 0t36.5 -7.5q40 -12 81 -40zM135 264q-9 -24 -11.5 -50.5t-1 -48.5t6.5 -37t12 -16q14 -4 29.5 6t41.5 41q12 16 24.5 39t21 45
t10.5 39t-5 20q-8 3 -25.5 6t-37 1t-38 -11.5t-27.5 -33.5z" />
    <glyph glyph-name="e" unicode="e" horiz-adv-x="386" 
d="M46 382q14 27 37 47t50.5 32.5t58 18.5t59.5 6q30 -2 51.5 -19.5t30.5 -45t3.5 -61.5t-29.5 -69q-26 -38 -55.5 -57t-54.5 -27q-29 -10 -57 -9q-1 -38 8 -65q4 -12 9.5 -22.5t14.5 -18.5t22 -11.5t30 -0.5q36 6 58.5 26.5t37.5 41.5t24.5 36.5t18.5 11.5q11 -5 11.5 -25
t-9.5 -47t-29.5 -55.5t-49.5 -48.5t-69 -27.5t-87 7.5q-39 12 -65 38t-41 60t-20 73t-1.5 77.5t15 73.5t28.5 60zM139 273q13 2 29 8q14 5 30.5 15t35.5 28q18 17 24.5 33t7.5 27q1 13 -4 24q-14 4 -30 0q-14 -4 -31 -16t-35 -38q-14 -20 -20 -35.5t-8 -25.5q-2 -12 1 -20z
" />
    <glyph glyph-name="f" unicode="f" horiz-adv-x="336" 
d="M322 695q0 -15 -14.5 -18.5t-33 -4t-36.5 -4t-25 -18.5t-11.5 -36.5t-7.5 -47t-4 -53t-1 -54.5q0 -62 4 -133q11 3 28 7q14 3 35 7t50 9q30 4 47.5 0t23.5 -11.5t0.5 -16t-21.5 -11.5q-33 -8 -62 -17.5t-51 -18.5q-26 -11 -46 -21q5 -77 4 -140q0 -27 -1.5 -54.5
t-4.5 -50.5t-8.5 -40t-12.5 -24q-14 -13 -30.5 -22.5t-31 -12.5t-25.5 1.5t-14 19.5q-2 8 -3 24.5t-1.5 37t0 44.5t0.5 47q1 55 2 119q-4 -2 -8 -5q-9 -6 -25 -7q-22 -3 -33 12t0 40q5 12 14.5 22t20.5 18q12 9 27 15q-5 77 -3 148q0 30 2 62t6 62.5t10 57.5t15 47
q15 33 37.5 49.5t47.5 20.5t50 -0.5t45 -13.5t32.5 -19t12.5 -16z" />
    <glyph glyph-name="g" unicode="g" horiz-adv-x="402" 
d="M463 115q22 9 34 8t15 -7.5t-2.5 -16.5t-17.5 -19q-10 -7 -24.5 -19t-30 -25.5t-30 -26.5t-24.5 -21q7 -47 8 -95.5t-6 -93t-23 -82t-43 -61.5q-38 -34 -77 -39t-69 13t-47 55.5t-10 88.5q8 52 32.5 92t51.5 67q32 32 69 55q-1 8 -4 22q-2 12 -7 30.5t-13 47.5
q-5 17 -12.5 32.5t-14.5 26.5q-9 13 -17 23q-16 -18 -33 -32q-14 -12 -31 -21.5t-32 -9.5q-16 0 -36 17t-35.5 45t-24 64t-2.5 74q7 38 18 61t24 36.5t28 19.5t30 9q22 4 52.5 -6t58 -25.5t47 -32t18.5 -25.5t-21.5 -6.5t-47 6.5t-52 4t-35.5 -16t-16 -38t-7.5 -44
t2.5 -40.5t15 -27.5q6 -5 16.5 3.5t24.5 21t31 24t36.5 14t40.5 -10t43 -48.5q13 -21 27.5 -48.5t25.5 -78.5q26 16 49 30.5t48 25.5zM257 -252q6 17 7.5 43.5t1.5 52.5q-1 30 -3 63q-21 -18 -37 -38q-14 -17 -24.5 -40t-8.5 -49q2 -25 11 -36.5t19.5 -13t20 4t13.5 13.5z
" />
    <glyph glyph-name="h" unicode="h" horiz-adv-x="461" 
d="M34 111q-1 33 -2 92t-0.5 129t2.5 143.5t7.5 134.5t15.5 102t26 47q28 10 55.5 1t49.5 -27.5t36.5 -42t16.5 -42.5q11 -62 0.5 -112t-29.5 -92t-40 -77t-30 -68q25 45 56 76q13 13 28 24t32 17t35 6t37 -10q31 -16 47.5 -45.5t24 -66t9.5 -76.5t4.5 -77t8.5 -68.5
t22 -50.5q23 -27 40 -37.5t29 -13t19.5 -2t11.5 -3.5q3 -3 4.5 -6.5t0 -7t-8.5 -8t-21 -9.5q-27 -9 -69.5 -2.5t-90.5 41.5q-24 17 -36.5 48t-19.5 67.5t-10.5 74t-8.5 68.5t-14.5 50.5t-27.5 20.5t-32 -13.5t-24 -39t-16.5 -55.5t-10.5 -61t-6 -57t-3 -43q-1 -25 -12 -35
t-25.5 -10t-30.5 6.5t-26 13.5q-11 8 -16 24t-7 32q-2 18 -1 40zM129 380l8.5 25.5t18.5 62.5t18 77t7 70q-2 30 -8 51.5t-14 29t-16 -2.5t-13 -43t-6 -79.5t0.5 -89t3 -72z" />
    <glyph glyph-name="i" unicode="i" horiz-adv-x="235" 
d="M4 262q3 24 8 46t12.5 41t16.5 32.5t20 19.5q11 5 28.5 10.5t33 4t23.5 -14t-1 -43.5q-4 -17 -7 -42.5t-3.5 -55t1.5 -59t7.5 -54.5t15 -42.5t23.5 -22.5q29 -10 50 2t39 37q7 11 17 18.5t16.5 6.5t6.5 -13t-13 -40q-14 -29 -35.5 -51t-48 -34.5t-56.5 -14.5t-60 9
q-30 10 -49 28.5t-29.5 49.5t-14 75.5t-1.5 106.5zM49 619q11 22 33.5 27t44 -1t37 -20.5t12.5 -33.5q-4 -23 -25.5 -39.5t-64.5 -12.5q-12 1 -21.5 9t-15.5 19.5t-6.5 25.5t6.5 26z" />
    <glyph glyph-name="j" unicode="j" horiz-adv-x="414" 
d="M324 181q-5 -6 -3.5 -25t5.5 -45t8.5 -56t4.5 -58t-1.5 -48.5t-5 -38.5t-9 -35.5t-13.5 -39.5q-11 -28 -24 -51t-30.5 -41t-40 -30t-52.5 -18q-58 -8 -88 11t-41.5 53.5t-8 78.5t11.5 85q11 78 49.5 145.5t105.5 112.5q-6 39 -21.5 76.5t-30.5 70t-25 57.5t-4 39
q11 8 26.5 9t32 -3.5t32.5 -12t27 -15.5q14 -14 24 -33.5t17.5 -41.5t13 -45t11.5 -42q4 2 19 6.5t35.5 10t43 10t42 5.5t32 -3t12.5 -15t-20 -19.5t-46.5 -17t-52 -17t-36.5 -19.5zM125 -187q22 -3 39 8t29 29t18.5 39.5t9.5 41.5q3 11 4.5 34.5t0 49t-6 48t-12.5 30.5
q-22 -13 -42 -38t-35 -54.5t-24.5 -61.5t-11.5 -58.5t5.5 -45t25.5 -22.5zM177 512q-8 3 -19.5 4.5t-22.5 5t-20 10t-12 17.5q-4 26 2 39t17.5 17t26 0.5t29 -11.5t26 -18t17.5 -19q6 -8 4 -17t-9 -16t-17.5 -11t-21.5 -1z" />
    <glyph glyph-name="k" unicode="k" horiz-adv-x="488" 
d="M168 316q4 9 22.5 28t44 36t54.5 28.5t54 5.5q35 -8 58 -26.5t29 -58.5q3 -22 -5.5 -44.5t-25.5 -42.5t-39.5 -36t-46.5 -23q-3 -1 0.5 -14.5t13 -31t25 -34.5t36.5 -26q23 -10 44 -6.5t39 14.5t32.5 26t25 29t17 23.5t8.5 9.5q9 -2 9 -18.5t-7.5 -39.5t-23 -49
t-36.5 -47.5t-47.5 -34.5t-57.5 -10q-38 3 -63 18.5t-40.5 36.5t-24 44t-12 43t-5.5 32.5t-4 11.5q-12 -4 -24.5 -5.5t-22 -1.5h-15.5h-6q-2 -39 -4 -72t-3 -53q0 -19 -13.5 -29.5t-30.5 -10t-34.5 13.5t-26.5 41q-5 16 -8 58t-4 98t-0.5 119.5t2.5 122t5 106.5t8 72
q8 45 25.5 75t39.5 47t46 21.5t45 -2.5q46 -15 62.5 -48.5t14.5 -77t-19 -92t-38 -93t-42 -80t-31 -53.5zM182 214q20 26 40 40q17 11 37.5 12t39.5 -26q27 26 27.5 49t-19.5 34q-17 10 -37 3t-38 -24t-31.5 -40.5t-18.5 -47.5zM154 410q-1 1 7 22t19.5 52.5t23 69t18 70.5
t6 57.5t-13.5 29.5q-16 6 -26 -14t-16.5 -53.5t-10 -74.5t-5 -76.5t-2 -59.5t-0.5 -23z" />
    <glyph glyph-name="l" unicode="l" horiz-adv-x="348" 
d="M326 605q-4 -45 -14 -86t-23.5 -78t-29.5 -70t-32 -60q-38 -64 -84 -116q0 -7 3 -18q2 -10 8 -24.5t19 -34.5q26 -42 57.5 -52.5t61 -2t51.5 30t30 43.5q8 23 16 30t14.5 3.5t10 -14.5t2.5 -24q-17 -45 -43 -79q-11 -15 -26 -29t-33 -25t-39.5 -17.5t-46.5 -5.5
q-64 1 -106.5 31t-68.5 77t-37 106.5t-12.5 120.5t5 117.5t15.5 98.5q10 44 26.5 87t41 76t58 52t78.5 14q33 -5 57 -23q20 -15 34 -45.5t7 -82.5zM133 283q26 43 48 89q19 39 37 85.5t26 91.5q4 22 7.5 45t3 42.5t-7.5 33t-23 15.5q-21 2 -37.5 -14.5t-28 -46t-18.5 -70
t-10 -86t-2 -93.5t5 -92z" />
    <glyph glyph-name="m" unicode="m" horiz-adv-x="860" 
d="M40 454q19 1 34 -5.5t26 -17t19 -24.5t13 -29q11 -34 14 -78q5 10 14 23q12 21 45 61q16 19 34 36t40.5 27.5t49.5 11.5t62 -12q34 -12 53.5 -33t30 -46.5t15.5 -54t11 -54.5q9 -53 14 -61.5t21 38.5q8 25 24 56.5t38 56t48 35.5t54 -4q19 -11 36.5 -31.5t31 -49
t22.5 -63t12 -72.5q3 -39 8.5 -65t15 -41t25 -19t39.5 1q18 4 25 -6t1 -23t-25.5 -24.5t-52.5 -11.5q-32 0 -58 16t-47 40t-37.5 53.5t-28 58t-19 51.5t-11.5 35q-6 18 -15 7t-20 -35.5t-23 -55t-24 -52.5t-26.5 -42t-32 -30t-39.5 -4.5t-49 34.5q-18 19 -29.5 48.5t-19 63
t-12 67.5t-7 64t-5 51.5t-5.5 30.5q-11 24 -37.5 14.5t-68.5 -57.5q-21 -23 -30 -62.5t-12 -80.5t-2 -76t1 -50t-10 -27t-26 -18t-37 -3.5t-42 17.5q-13 10 -23 44.5t-16 80.5t-8.5 97.5t-1 95t7 72.5t15.5 31z" />
    <glyph glyph-name="n" unicode="n" 
d="M39 365q6 10 17.5 18.5t24 15t25 10t20.5 3.5q4 0 6.5 -8t5 -21t3.5 -29.5t2 -33.5q2 -40 1 -91q13 26 28 51q13 21 30 43.5t35 38.5q17 15 37.5 23t41.5 6.5t40.5 -15.5t34.5 -42q10 -19 15 -47.5t7.5 -60t5 -63.5t9 -59t18 -46t33.5 -24q18 -5 35.5 -0.5t33 12t27 13
t16.5 2.5q4 -4 -4.5 -22t-28 -37t-49 -32.5t-67.5 -8.5q-75 10 -108 77.5t-38 176.5q-2 39 -9.5 58t-19.5 20t-27.5 -13.5t-33.5 -41.5q-21 -31 -31 -62t-13.5 -58t-4.5 -48t-5 -31q-5 -11 -21 -15t-34.5 -4t-36 4t-24.5 10q-4 4 -6.5 28.5t-3.5 59t-0.5 74t2 75t4.5 61.5
t7 33z" />
    <glyph glyph-name="o" unicode="o" horiz-adv-x="383" 
d="M251 406q46 -28 71 -68.5t32.5 -85t-2.5 -88.5t-33.5 -79.5t-59.5 -58.5t-82 -24q-58 -1 -97.5 25.5t-60.5 67.5t-24.5 89.5t10.5 91t46 72.5t80 33q44 3 64 9.5t29 12t12.5 7.5t14.5 -4zM134 319q-6 -6 -10 -29t-5.5 -54t0.5 -65t7.5 -62t15.5 -46t24 -16t27 18.5
t23.5 41t17 54t8 57.5t-3.5 51t-17 35q-28 29 -47.5 31.5t-39.5 -16.5z" />
    <glyph glyph-name="p" unicode="p" horiz-adv-x="454" 
d="M49 463q9 10 21 8.5t24 -9.5t22.5 -19t15.5 -19q6 -9 9 -27.5t4.5 -36t3.5 -28.5t7 -5l15 22.5t29.5 34t45 30.5t61.5 10q25 -2 49.5 -12.5t42.5 -30t28.5 -48.5t8.5 -66q-2 -39 -15 -68.5t-35 -50t-49.5 -33t-57.5 -18.5q-53 -11 -71.5 -8t-14.5 19q2 8 8 13.5t16.5 11
t26 12t36.5 17.5q19 10 34.5 29.5t21.5 42t1 45.5t-26 40q-35 29 -69.5 12t-58.5 -71q-11 -24 -17 -68t-8.5 -96.5t-2.5 -108.5t0.5 -105t0.5 -86t-2 -51q-3 -21 -15 -27t-28 -3t-32.5 13.5t-27.5 22.5q-4 4 -7 36.5t-5 82t-3 111.5t-1 126.5t1 126.5t3 111.5t4.5 81.5
t5.5 36z" />
    <glyph glyph-name="q" unicode="q" 
d="M436 451q3 -4 5.5 -31t4.5 -68.5t3.5 -94t1.5 -108.5q29 19 49 38.5t33 33t20.5 18t12.5 -5.5q4 -8 -1.5 -25t-19.5 -38t-37.5 -44t-56.5 -43q0 -47 -1 -91.5t-3 -82t-4.5 -65t-6.5 -40.5q-9 -31 -25.5 -48.5t-33.5 -22.5t-30 3t-16 29q-2 12 -2.5 39.5t-0.5 64t-0.5 79
t-2.5 85.5q-24 -5 -50 -8t-55 -2q-47 0 -86 17.5t-66.5 50t-40 77.5t-4.5 101q10 46 25 76.5t33.5 49t41 27.5t46.5 14q34 7 62 -7t48.5 -35t33 -41t16.5 -26t5 12t0.5 42t0 46t5.5 24q4 2 16.5 6t27 6t29 0t23.5 -12zM297 91q6 1 12.5 2t12.5 3q-4 43 -9.5 78.5t-16.5 58.5
q-12 25 -27.5 47t-32.5 35.5t-35.5 15.5t-36.5 -12q-14 -11 -21.5 -34.5t-7.5 -51t9 -56t28.5 -50t50 -32.5t74.5 -4z" />
    <glyph glyph-name="r" unicode="r" horiz-adv-x="344" 
d="M17 391q-11 6 -20 7t-16.5 1t-13 1.5t-9.5 9.5q-3 7 9.5 19t33.5 20t47 6.5t50 -20.5q21 -18 34.5 -34.5t21.5 -29.5q9 -15 13 -29q28 27 58 45q26 16 58 26t64 1q8 -3 7.5 -12.5t-8 -20.5t-20.5 -21t-31 -14q-35 -8 -55.5 -30t-31.5 -51.5t-14 -63t-3 -64.5
q1 -65 -18 -96.5t-51 -33.5q-37 -2 -55 34t-18 122q1 54 1 94t-3 67.5t-10 43.5t-20 23z" />
    <glyph glyph-name="s" unicode="s" horiz-adv-x="351" 
d="M264 487q4 -8 -1 -12.5t-14.5 -9t-21.5 -11t-23 -18.5t-18.5 -31t-7.5 -48q-1 -29 13.5 -56t35.5 -52.5t46 -50t45 -50t31.5 -52t7.5 -54.5q-5 -28 -31.5 -47.5t-64.5 -30t-82 -11.5t-82.5 7.5t-66.5 26.5t-35 46q-11 41 -6.5 69t16.5 46.5t27 29t26 16.5q23 13 30.5 0
t-9.5 -41q-8 -14 -4 -31.5t18.5 -33t37 -26.5t51.5 -12q18 -1 36.5 3.5t30.5 14t14.5 23t-10.5 30.5t-45 43t-65.5 57.5t-59 67t-25.5 71.5q0 71 25.5 104t82.5 43q28 5 46 4.5t28.5 -4.5t15.5 -9.5t8 -10.5z" />
    <glyph glyph-name="t" unicode="t" horiz-adv-x="320" 
d="M91 720q3 18 21 20t38 -8t37 -28.5t18 -40.5q1 -23 2 -47t2 -43q1 -23 2 -43q34 3 60 2q23 -1 41 -6t18 -18q0 -14 -17.5 -24t-39.5 -17q-26 -8 -58 -14q2 -67 4 -130q1 -55 0.5 -115t-4.5 -105q-5 -45 -15.5 -66t-23.5 -27t-27 -2.5t-26 8.5q-6 2 -11 21t-8 49t-5 67.5
t-3 76.5q-3 92 -3 206q-27 -6 -50 -6q-20 0 -37 6.5t-21 24.5q-3 14 12.5 25t35.5 19q23 9 54 16v16q0 7 0.5 14.5t0.5 12.5q0 40 -1 65t-1 41.5t1 27t4 22.5z" />
    <glyph glyph-name="u" unicode="u" horiz-adv-x="484" 
d="M142 388q-1 -10 -2 -34t-1 -53.5t2 -61.5t7 -58.5t15 -43.5t26 -17q23 0 39.5 17t28.5 43t19 58.5t11.5 63.5t6 58t2.5 42q1 18 10.5 26t23.5 8.5t30 -5.5t30 -15t23 -20.5t10 -22.5q1 -15 -1 -43.5t-3.5 -64t-1.5 -73t5.5 -69t17 -54t32.5 -27.5q19 -5 26 -13t1.5 -15.5
t-22 -11.5t-44.5 1q-46 8 -71 32t-37 50q-14 30 -17 66q-13 -40 -34 -69q-18 -26 -46.5 -44.5t-69.5 -12.5t-67.5 26.5t-43 49.5t-24.5 63.5t-11 69.5q-3 28 -3 56t2 52t6 41t9 22q6 5 25 11t39.5 6.5t36.5 -6.5t15 -28z" />
    <glyph glyph-name="v" unicode="v" horiz-adv-x="425" 
d="M36 421q22 11 45.5 10.5t42 -8.5t29.5 -21t9 -27q-8 -69 -0.5 -128.5t20.5 -101t27 -60.5t21 -7t13 49.5t17.5 83t33 89.5t59.5 69q33 21 44.5 14t9.5 -32t-12.5 -62.5t-21.5 -76.5q-7 -26 -20 -60.5t-29.5 -67t-36 -57t-38.5 -28.5q-36 -8 -62.5 0.5t-46.5 25.5
t-35.5 39t-28.5 43q-9 13 -19.5 39.5t-20 59t-16.5 67.5t-8.5 65.5t4 53t20.5 29.5z" />
    <glyph glyph-name="w" unicode="w" horiz-adv-x="794" 
d="M46 403q21 10 40 10t33 -7t22 -19.5t7 -26.5q-8 -65 1 -120.5t24 -94t31.5 -56.5t22.5 -7t14 46.5t20.5 78.5t31.5 84.5t48 64.5t50 25t36 -9t25.5 -31.5t19.5 -41.5q9 -22 16.5 -56.5t16 -65.5t18 -49.5t23.5 -8.5q9 7 19 29t21.5 51.5t25 61.5t29.5 59t35.5 44t43.5 16
q26 -1 48.5 -13.5t39 -29t25.5 -33.5t9 -28t-11 -11.5t-34 16.5q-24 17 -53 -10.5t-45 -98.5q-8 -35 -17.5 -62.5t-23 -47t-33.5 -31.5t-49 -15q-27 -3 -50 11.5t-41.5 38t-31 51.5t-16.5 52q-5 23 -8.5 32.5t-7 6.5t-8.5 -17t-14 -37l-16 -46t-21 -42.5t-33.5 -35
t-54.5 -22.5q-33 -7 -62.5 0.5t-54 23.5t-43.5 36.5t-31 40.5q-8 13 -18 37.5t-19 55t-15.5 63t-8 61t4 49.5t19.5 28z" />
    <glyph glyph-name="x" unicode="x" horiz-adv-x="476" 
d="M476 446q1 -2 4.5 -4.5t4.5 -7t-1 -12.5t-11 -20q-15 -23 -30 -45.5t-34 -48t-44.5 -56t-61.5 -68.5q36 -36 74.5 -70t69.5 -64t49.5 -55t15.5 -42q-2 -9 -27 -2.5t-64.5 24.5t-90 46t-103.5 63q-8 4 -18 14q-37 -35 -75 -63.5t-68 -44.5q10 -12 14 -23q4 -10 2 -21
t-15 -20q-14 -10 -30.5 -4.5t-25.5 21.5t-4.5 40.5t33.5 53.5q16 16 45.5 47t62.5 67q-30 33 -58 73t-51 81.5t-39.5 82t-23.5 74.5t-3 59t23 36q16 9 34 -0.5t37.5 -31t39.5 -52.5t40 -65.5t39.5 -70t38.5 -65.5q4 -5 7 -10t7 -10q31 34 54.5 58.5t43 43.5t37 34.5
t37.5 31.5q26 21 44.5 26t20.5 0z" />
    <glyph glyph-name="y" unicode="y" horiz-adv-x="459" 
d="M71 405q20 -2 28.5 -16t11.5 -33.5t2 -41.5t-0.5 -41t5 -32t18.5 -14q12 -2 23.5 10t23 31.5t24 43.5t27.5 47q11 17 24 25t24 11q13 4 26 2q21 1 42 -31q9 -14 19 -35.5t20 -54t20 -77t19 -104.5q13 -85 5.5 -156t-29 -126.5t-55 -95.5t-72.5 -63.5t-81 -30t-82 4.5
q-38 11 -67.5 42.5t-44.5 73.5t-10.5 89.5t36.5 89.5q31 42 74 66.5t82.5 35t66.5 9.5t26 -8q0 -8 -14.5 -17t-37 -23.5t-51 -37t-56.5 -57.5t-27 -65t22.5 -44.5t60.5 -7.5t87 47q24 20 38 49t20 63.5t5.5 71.5t-4.5 73q-10 84 -38 176q-16 -30 -36 -54
q-17 -20 -41.5 -36.5t-54.5 -16.5q-45 0 -72 19.5t-39.5 48.5t-13 63t5.5 62.5t17.5 47t22.5 17.5z" />
    <glyph glyph-name="z" unicode="z" horiz-adv-x="359" 
d="M399 194q3 -8 -0.5 -15.5t-12 -16t-20.5 -18t-24 -19.5q-30 -25 -44 -43q-8 -10 -13 -17q15 -24 24 -57q8 -29 11 -72.5t-7 -103.5q-8 -50 -32 -88t-54.5 -62.5t-63 -35t-56.5 -5.5q-20 6 -36.5 17t-26 32t-11 53t8.5 79q8 39 17.5 65t25 50t38 50t55.5 64q-18 36 -37 50
t-35 20t-27.5 10t-14.5 19q-3 10 6 21t23 22.5t30.5 23.5t29.5 25t22 29t11 32.5t-5.5 31.5t-26.5 25q-22 11 -36 4t-26 -17.5t-24.5 -18t-31.5 3.5q-10 6 -12.5 20.5t3 32t18 35.5t32.5 31t47 18t61 -3q65 -16 92 -62t14 -112q-6 -32 -24 -55.5t-38 -38.5q-23 -18 -49 -30
q9 0 20 -5q10 -5 23 -15t28 -30q33 34 59 53t44.5 26.5t30 5.5t14.5 -9zM190 -208q17 50 21 83t2 53q-3 24 -13 37q-29 -33 -52 -67q-20 -30 -36.5 -66.5t-15.5 -73.5t10.5 -50.5t23.5 -7t30 30t30 61.5z" />
    <glyph glyph-name="braceleft" unicode="{" horiz-adv-x="406" 
d="M354 -173q-63 -36 -131 -12q-33 10 -62.5 30t-52 47.5t-34 61t-8.5 69.5q5 38 17 78t28 74q11 19 18.5 35t18.5 30q-20 14 -39 25.5t-40 25.5q-14 9 -23 16t-14 21q-3 7 5.5 15t23 15.5t33 15t36 13.5t31 11t18.5 7q10 4 12 11.5t-1.5 16t-10 15.5t-12.5 12
q-16 13 -34 25t-33 27t-23.5 33.5t-4.5 43.5q1 17 8 38.5t18 42t26.5 37.5t33.5 25q22 10 47.5 15t48 4t39 -7t21.5 -17q8 -17 2 -23t-20.5 -8t-34.5 -4t-41 -11q-21 -12 -31 -31.5t-11.5 -40.5t4.5 -40t17 -29q15 -15 27.5 -29t22.5 -29.5t16.5 -34t8.5 -42.5
q3 -25 -11 -42t-36.5 -28t-48 -17.5t-43.5 -10.5q8 -5 33 -16t49 -25.5t37.5 -30t-1.5 -28.5q-5 -5 -16.5 -19t-24 -36.5t-23 -54t-13.5 -72.5q-1 -30 1.5 -54.5t11.5 -44.5t25.5 -35.5t43.5 -26.5q30 -12 56.5 -3t47.5 23.5t36 26t23 4.5q7 -7 1.5 -19.5t-17.5 -26
t-26.5 -25.5t-24.5 -17z" />
    <glyph glyph-name="bar" unicode="|" horiz-adv-x="311" 
d="M173 41q0 -9 -4.5 -25.5t-11 -30t-15 -20.5t-16.5 2q-7 9 -11.5 33t-6.5 56.5t-3 70.5t-1.5 74.5t-0.5 68.5t-1 53q-1 53 -2.5 103t0.5 104v52.5t3.5 64.5t14 57.5t31.5 32.5q12 4 20 -17.5t13 -58t7.5 -83t4 -90.5t1.5 -81t1 -56q1 -13 -1 -35.5t-4.5 -47t-6 -46.5
t-5.5 -35q-2 -15 -3 -34t-2 -39.5t-1 -39.5v-33z" />
    <glyph glyph-name="braceright" unicode="}" horiz-adv-x="344" 
d="M83 -164q1 9 14 15.5t31.5 14.5t39.5 20t37 32t24.5 51t1.5 76q-3 13 -8 28t-13 28.5t-19.5 23t-26.5 12.5q-14 3 -26.5 10.5t-20.5 18.5t-9 24.5t8 27.5q11 13 22.5 22t21.5 22q5 9 -4.5 19.5t-23.5 23.5t-28 29t-18 36q-3 16 6 39t22.5 46t29 44t27.5 33q12 15 19 35
t7.5 40t-5 39.5t-18.5 34.5q-10 13 -21 14t-21.5 -0.5t-20.5 -1t-19 11.5q-11 16 -4.5 27.5t20.5 18t31.5 8t27.5 -2.5q36 -17 63 -44.5t42 -61.5t16 -70.5t-15 -70.5q-6 -14 -21 -31t-31.5 -34t-32 -32t-24.5 -25q-13 -14 -0.5 -25.5t32 -24.5t38 -29t18.5 -39
q-5 -13 -15.5 -22t-22.5 -17t-23 -16t-17 -20q2 -5 16.5 -12t34 -17t39 -23.5t32.5 -31.5q25 -35 31 -70t6 -65q0 -23 -7.5 -46t-23.5 -43.5t-42 -37.5t-63 -29q-11 -4 -26.5 -5.5t-32 0t-31 7t-24.5 15.5z" />
    <glyph glyph-name="asciitilde" unicode="~" 
d="M265 233q-18 22 -25 40t-12 31.5t-13.5 22.5t-28.5 14q-18 0 -27 -9.5t-13.5 -22.5t-6 -27t-3.5 -24q-2 -11 -9 -20t-17 -15t-21 -7.5t-21 1.5q-17 9 -20.5 29.5t-1.5 37.5q1 19 10 42t25 42.5t38.5 33t51.5 13.5q40 0 63 -10.5t39 -28.5t30 -42t36 -49
q11 -13 22.5 -12.5t21.5 9t20 22t18 27t15 24.5t13 13q-1 -17 3.5 -28.5t8.5 -23t5.5 -26t-4.5 -36.5q-3 -13 -11 -23.5t-17 -19t-17.5 -14t-14.5 -7.5q-27 -9 -47.5 -9.5t-36.5 5.5t-28.5 18.5t-24.5 28.5z" />
    <glyph glyph-name="exclamdown" unicode="&#xa1;" horiz-adv-x="239" 
d="M61 33q-10 14 -11 31t2 35.5t7 37t4 35.5q0 25 -5 58.5t-7 68t3.5 66.5t26.5 54q4 3 10 14t12.5 20t14 11t14.5 -13q15 -25 18.5 -54t5.5 -57q3 -41 8 -83.5t7.5 -85.5t-0.5 -86t-15 -83q-6 -14 -19 -14.5t-27.5 6.5t-28 18.5t-20.5 20.5zM127 606q-9 2 -20.5 5.5t-21 10
t-16 17.5t-4.5 29q0 11 7.5 18t19 9t25 0.5t25.5 -6.5q13 -4 19.5 -18.5t5 -30t-11.5 -26.5t-28 -8z" />
    <glyph glyph-name="cent" unicode="&#xa2;" 
d="M492 386q-4 -13 -12 -12.5t-19 8t-24.5 19.5t-29.5 23q-20 14 -37 17t-24 3v-33.5v-64t0.5 -81t0.5 -83t-0.5 -70.5t-0.5 -44q30 1 53 12t40.5 27t31 32.5t24 28.5t20 15t20.5 -8q8 -8 8 -22t-6.5 -30t-17.5 -31.5t-25 -27.5q-21 -26 -60.5 -43t-78.5 -22q0 -10 -1 -34.5
t-4.5 -51t-11 -48.5t-20.5 -28q-23 -9 -36 7.5t-19.5 43.5t-9.5 57.5t-5 50.5q0 2 -15 4.5t-38 9.5t-51 20.5t-54 37t-46.5 60t-29.5 88.5q-10 59 2.5 108.5t44 88t79 65.5t106.5 41q3 0 3 7.5t-0.5 21.5t1.5 32.5t10 41.5q0 7 3.5 17t10.5 18t17 11t23 -4q6 -10 11 -28.5
t9 -39t6.5 -40t1.5 -32.5q13 -4 27 -9q12 -5 27 -12t31 -18q12 -11 24 -24t21 -26.5t14.5 -26.5t5.5 -22zM136 265q-2 -32 2 -65t15.5 -60.5t33 -47t55.5 -25.5q-4 52 -6.5 98.5t-3 91.5t1.5 90t8 94q-9 3 -26 -8t-34.5 -34.5t-30.5 -57.5t-15 -76z" />
    <glyph glyph-name="sterling" unicode="&#xa3;" horiz-adv-x="431" 
d="M105 -36q-11 -4 -23.5 0.5t-23.5 14.5t-19.5 22t-11.5 23q-1 3 1.5 10t5.5 15t6 14.5t5 7.5q12 6 29.5 21t35 37t30 50.5t14.5 60.5q1 16 0.5 31t-1.5 27q-1 14 -3 27q-53 0 -75 11t-19 25t27.5 26.5t63.5 16.5q-4 15 -10.5 47t-8.5 69.5t4 76t26 66t58 39t101 -3.5
q10 -3 23.5 -6t25 -9t18 -15t0.5 -22q-5 -10 -20.5 -9t-36 4t-43.5 4t-44 -10q-17 -10 -22 -28.5t-3 -41.5t9 -47.5t15.5 -47t15.5 -40t10 -26.5q1 -2 13.5 -5t29.5 -5.5t36.5 -4t34.5 0.5q18 3 26 -6t6.5 -21t-13 -23.5t-33.5 -14.5q-33 -8 -59.5 -8t-26.5 -1
q0 -26 -5.5 -56t-18.5 -60.5t-34 -58.5t-52 -50q9 1 31 4.5t50 6t58 2.5t54.5 -5.5t39.5 -18t13 -34.5q-1 -16 -16.5 -25t-40.5 -15t-56.5 -9.5t-65.5 -7.5t-68 -9.5t-63 -15.5z" />
    <glyph glyph-name="currency" unicode="&#xa4;" horiz-adv-x="680" 
d="M641 131q14 -18 15.5 -37t-5 -35t-19 -25.5t-27.5 -7.5q-22 6 -36 14t-24.5 18.5t-19.5 24t-20 30.5q-15 29 -25.5 36t-22 4t-27 -11t-40.5 -9q-42 5 -60.5 14t-19.5 4q-21 -23 -38.5 -50t-40.5 -50q-26 -27 -38 -32t-15 3t2.5 27t14.5 40.5t20.5 42.5t21.5 35
q10 15 10 27t-5.5 24.5t-13.5 26.5t-12 34q-5 12 -12 38t-3 63q-7 4 -17 9q-9 5 -22 12.5t-30 19.5q-9 7 -27.5 18.5t-37.5 25t-34 29t-16 31.5q-3 25 12.5 29t37.5 -2t44.5 -17t31.5 -15q17 -9 30 -20.5t32 -19.5q17 -15 26 -17t17.5 2.5t19 13t29.5 15.5q20 10 49 17.5
t54 3.5q22 -2 39.5 -9t31 -13.5t22 -11t12.5 -1.5q11 9 25 25t28.5 34t29.5 35.5t29 30t25 17.5t19 -2q7 -9 3 -27t-15 -40.5t-26 -46t-29.5 -43.5t-25.5 -33t-13 -15q8 -17 12 -35q4 -16 5 -37.5t-4 -45.5q-11 -31 -21 -50q-6 -11 -12 -21q-3 -3 10 -13t31.5 -24
t37.5 -29.5t27 -28.5zM453 394q-17 14 -32 25.5t-47 16.5q-30 3 -54 -7t-34 -34q-17 -39 -12 -74t23 -59t44.5 -33t52.5 3q29 10 50 28t30.5 40.5t5 47t-26.5 46.5z" />
    <glyph glyph-name="yen" unicode="&#xa5;" horiz-adv-x="440" 
d="M442 233q-5 -3 -13.5 -10t-21 -14.5t-28.5 -13.5t-36 -7q-7 -1 -16 -2t-16.5 -2t-12.5 -2.5t-5 -2.5v-30.5t-1 -50.5t-3.5 -50t-8.5 -30q-21 -18 -36.5 -10.5t-26.5 25.5t-16.5 38.5t-6.5 28.5q-2 11 -3.5 25t-2.5 27l-2 30q-7 1 -30 3.5t-49.5 6.5t-49 11.5t-27.5 19.5
q-2 7 6.5 17.5t17.5 12.5q5 3 24.5 3t42.5 -1t43 -2t26 0q1 12 0 28t-3 16q-1 1 -7.5 1.5t-15 1t-18 1t-17.5 0.5q-19 2 -37.5 1.5t-37.5 3.5q-6 1 -15.5 6t-16.5 12t-10 15t5 16q9 11 29.5 14.5t46 3.5t51 -1.5t44.5 0.5q0 -1 0 4v12.5t-0.5 16t-2.5 14.5q-2 8 -11 26
t-17 26q-29 32 -57 68.5t-48.5 69t-29.5 56t2 29.5q3 2 15 -6.5t27.5 -23t33.5 -32.5t34 -35t29 -31.5t18 -20.5q3 -4 10 -12.5t14 -18t12 -19t5 -15.5q18 13 36 36.5t35 49t34 49t34 37.5q7 5 14.5 2t14.5 -10.5t12.5 -18t9.5 -20.5q2 -7 -4 -22.5t-17 -34.5t-25 -39.5
t-26.5 -38t-21.5 -30t-10 -15.5q-8 -11 -9 -28t-2 -31q0 -4 10.5 -7t24.5 -5.5t29 -4.5t23 -4q3 0 9.5 -2.5t12.5 -6.5t10 -9.5t3 -11.5q-5 -7 -13 -4.5t-15 0.5q-2 -1 -11 -3.5t-20.5 -4.5l-23 -4t-18.5 -3q-14 -2 -19 0.5t-2 -2.5q1 -8 1 -16v-14q0 -7 -1 -13h33.5
t50 -1.5t44.5 -5t17 -11.5z" />
    <glyph glyph-name="brokenbar" unicode="&#xa6;" horiz-adv-x="287" 
d="M146 325q-6 -6 -13.5 -7.5t-14 14t-12 55.5t-7.5 117t6.5 123t21.5 69t28 28t26 0q7 -4 11 -24t4.5 -49.5t-1 -63.5t-5 -65t-8.5 -54t-10 -31q-8 -12 -9.5 -27t-1.5 -31t-2.5 -30t-12.5 -24zM97 -37q-1 19 -3.5 47.5t-1.5 58t8.5 53.5t25.5 34q14 9 21 7.5t11.5 -8
t8.5 -16.5t11 -18t8 -20.5t-0.5 -27t-4 -29.5t-0.5 -27q-1 -10 -0.5 -31.5t0.5 -47t-1 -52.5t-4 -49.5t-8.5 -36t-14.5 -13.5q-15 2 -25 23t-17 48.5t-10 57t-4 47.5z" />
    <glyph glyph-name="section" unicode="&#xa7;" horiz-adv-x="402" 
d="M250 120q27 -6 46.5 -16t33.5 -23t24.5 -29t19.5 -34q39 -67 -11 -141q-13 -18 -34.5 -31.5t-47 -21.5t-51 -11t-45.5 -1q-14 1 -36 6.5t-42 14.5t-33.5 21.5t-10.5 27.5q3 17 11.5 22t21 3t27.5 -7.5t32 -9.5t35 -4t35 10q16 10 25.5 24.5t12.5 31t-1.5 33t-17.5 30.5
q-14 16 -30 26t-34.5 20t-39.5 23t-43 36q-55 52 -77 110t1 138q6 20 19 37.5t25.5 31t21 21.5t5.5 9q-30 18 -43 47.5t-15 60.5t4 58.5t14 42.5q15 29 44.5 45t64 21t69 -0.5t60.5 -20.5q26 -16 37.5 -28.5t10.5 -21t-12.5 -11t-30.5 1.5q-20 4 -44.5 8t-48.5 2.5
t-44 -10.5t-32 -31q-6 -14 -6 -32.5t6 -36t18.5 -32t31.5 -20.5q45 -15 80.5 -29.5t62 -31.5t44 -38t25.5 -48q15 -48 7.5 -91t-52.5 -70q-36 -24 -67.5 -31.5t-58 -4.5t-49 13.5t-40.5 22.5q7 -5 15.5 -15.5t21.5 -23.5t33 -25t52 -18zM131 374q-18 -17 -19.5 -38.5
t8.5 -41.5t29.5 -34.5t42.5 -17t47 10t45 47.5q10 19 7.5 36.5t-13.5 32t-27 25.5t-32 17q-14 6 -27 3.5t-24.5 -9.5t-21 -16t-15.5 -15z" />
    <glyph glyph-name="dieresis" unicode="&#xa8;" 
d="M335 712q11 24 28.5 25t32.5 -12t23 -33.5t0 -38.5q-12 -26 -28 -26t-29 13.5t-21.5 34t-5.5 37.5q1 6 0.5 -0.5t-1.5 -13t-1.5 -6t2.5 19.5zM95 723q22 19 42 19t34 -30q6 -8 16 -17t20 -19t16.5 -20t5.5 -21q-5 -23 -20 -32.5t-33.5 -8t-38 12t-33 28t-17.5 40t8 48.5
q2 3 -2 -5.5t-7 -15t-2.5 -4.5t11.5 25z" />
    <glyph glyph-name="copyright" unicode="&#xa9;" horiz-adv-x="718" 
d="M669 194q-17 -32 -39 -53t-47.5 -38t-54 -32t-58.5 -33q-82 -47 -162.5 -46t-145 38.5t-105 106t-43.5 155.5q0 84 22 166t72 148q26 36 51.5 54.5t54 26t61 6.5t73.5 -4q33 -3 63 -12.5t58.5 -22t56 -26.5t56.5 -26q19 -8 44 -32.5t47 -54.5t37 -60t15 -48
q-2 -20 -9.5 -52.5t-17 -65.5t-18 -60t-11.5 -35zM592 230q17 25 28.5 54.5t16.5 61.5t2.5 64.5t-12.5 62.5q-11 26 -22 44.5t-25 32t-32 22.5t-43 17q-24 6 -46.5 16t-48 20t-55 17.5t-66.5 8.5q-33 1 -56 -14t-39 -39t-27 -53t-20 -55q-17 -48 -25.5 -105.5t-1.5 -113
t32 -104.5t75 -80q53 -36 105 -35t99 25.5t88 66t73 86.5q13 18 12.5 17.5t-5 -7t-8.5 -12.5t1 2zM341 209q-55 18 -89 60t-36 100q-4 52 25 88.5t73 54t93.5 14t87.5 -31.5q22 -16 18 -26t-20 -15t-37 -6t-31 2q-20 4 -40.5 2t-38 -10.5t-28.5 -23.5t-11 -37q-2 -34 10 -54
t31.5 -28t44.5 -5.5t49 13.5q7 3 19.5 9t26 11t25 7t16.5 -3q12 -14 -5 -38.5t-48 -46t-68.5 -33.5t-66.5 -3z" />
    <glyph glyph-name="ordfeminine" unicode="&#xaa;" horiz-adv-x="436" 
d="M250 579q-9 -24 -22 -46t-31.5 -34.5t-42 -11.5t-52.5 25q-24 18 -42 44t-24 53.5t2.5 54.5t37.5 48q42 34 89.5 31.5t106.5 -42.5q7 -4 13.5 -3.5t11.5 0.5t8 -2.5t5 -12.5q2 -17 4.5 -34t6.5 -34q3 -26 10.5 -38.5t16.5 -19t19 -9.5t17 -10q-9 -17 -24.5 -33t-38.5 -18
q-11 -2 -23 4.5t-22 19t-17.5 30t-8.5 38.5zM223 663q-14 6 -25.5 13.5t-22.5 12t-22.5 4t-23.5 -11.5q-19 -17 -23 -41t14 -46q16 -20 36.5 -16.5t38 19.5t27 39t5.5 43q-7 3 -8.5 0t-0.5 -7t3 -7.5t2 -1.5z" />
    <glyph glyph-name="guillemotleft" unicode="&#xab;" horiz-adv-x="440" 
d="M273 271l48 -24t57.5 -35.5t44 -44.5t6.5 -50q-3 -8 -15 -5t-29 13t-36.5 23.5t-38 26.5t-33 22.5t-21.5 11.5q-27 10 -40.5 26.5t-15 35.5t9 38.5t31.5 34.5q26 20 56 38.5t59 32.5q5 4 23.5 9t36 6t27 -6t-3.5 -27q-5 0 -26 -13t-47 -32t-52 -41t-41 -40zM318 423
q-8 -3 -28 -15t-45 -28.5t-51 -36t-45.5 -37.5t-29.5 -33t-3 -22q11 -12 27 -22t33 -19t33.5 -19.5t29.5 -24.5q13 -10 29 -28t20 -38q2 -9 -1.5 -16.5t-10 -12t-14.5 -5t-14 5.5q-12 11 -34.5 28.5t-48.5 38.5t-51.5 44t-44 45t-26 41t2.5 31q15 16 32 36t41 41.5t57.5 43
t80.5 39.5q8 1 22 -0.5t26 -6t17.5 -12t-4.5 -18.5q-5 -2 -4 0t3 3.5t3.5 1.5t-2.5 -5z" />
    <glyph glyph-name="logicalnot" unicode="&#xac;" 
d="M397 129q-14 22 -20 50t-12 52t-17.5 40.5t-37.5 16.5q-5 0 -33 2t-65 6t-75.5 11.5t-65.5 18.5t-35 25.5t16 34.5q15 12 43.5 18.5t63.5 8.5t72.5 0.5t70 -4.5t56 -7t31.5 -6q22 0 37 -10t25.5 -25.5t16.5 -34.5t9 -38q0 -48 -9.5 -84.5t-22.5 -57.5t-26.5 -26t-21.5 9z
" />
    <glyph glyph-name="registered" unicode="&#xae;" horiz-adv-x="699" 
d="M491 641q3 1 13.5 5.5t30.5 1t49 -21t68 -60.5q24 -25 31 -59t4.5 -70t-10.5 -72t-15 -66q-17 -78 -53.5 -139.5t-89.5 -99.5t-122 -48.5t-152 13.5q-67 25 -117 75t-78.5 113.5t-33.5 135t19 139.5q11 29 26.5 59.5t36 57t47 46.5t58.5 29q37 11 73 7.5t72 -12.5
t71.5 -19.5t71.5 -14.5q3 0 -4.5 1t-13 1.5t-4 0.5t21.5 -3zM616 467q-4 24 -20 39.5t-34.5 29t-35.5 28.5t-24 38q-54 24 -116.5 43t-122.5 14q-56 -5 -93.5 -35t-59.5 -73t-30.5 -93t-5.5 -95q3 -59 25 -113t60 -95t89 -65t111 -23q44 0 81 19.5t66.5 52t52 74t36 86
t19 88.5t2.5 80q-1 8 -0.5 5.5t1 -9t1 -14t1 -10.5t0 2.5t-2.5 25.5zM392 235q-38 27 -73.5 56t-73.5 58q-4 -14 1 -32.5t13 -38t15 -37.5t9 -32t-5.5 -21.5t-28.5 -5.5q-22 2 -35 25t-19 57.5t-4 76.5t11.5 83t26.5 77t41 58q21 21 48 19.5t51 -16.5t40.5 -39.5t17.5 -48.5
q3 -21 -4 -42t-22 -38t-37.5 -29t-50.5 -16q6 -13 22.5 -23t37 -20t42 -20t38 -21t25 -24.5t3.5 -30.5q-6 -12 -18.5 -11t-26.5 7.5t-26.5 15.5t-17.5 13zM302 517q-17 -9 -27 -28.5t-15.5 -42t-7.5 -46t-3 -40.5q22 13 33.5 18t30.5 10q19 3 34.5 12t26.5 31q4 11 1 29
t-12 34t-24.5 24t-36.5 -1z" />
    <glyph glyph-name="degree" unicode="&#xb0;" horiz-adv-x="311" 
d="M276 552q-13 -28 -37.5 -50t-53.5 -29t-59.5 6t-54.5 56q-25 37 -25 82.5t25 83.5q6 12 15.5 21t20 15t21 9t16.5 3q46 0 78.5 -20.5t49.5 -50.5t18 -64t-14 -62zM203 552q24 18 28.5 49t-6 55.5t-32 33.5t-49.5 -15q-12 -8 -17 -23.5t-4 -33.5t7 -35t17 -28t25 -13.5
t31 10.5z" />
    <glyph glyph-name="plusminus" unicode="&#xb1;" horiz-adv-x="488" 
d="M263 48q-18 -1 -48 -3t-61.5 -0.5t-58.5 8t-39 23.5q-3 17 23 29t66.5 18t88.5 7.5t90 -1t70 -9t29 -16.5q11 -32 -29.5 -43t-130.5 -13zM41 361q2 15 16.5 21t35 8t44.5 1t46 0q1 8 3 33t-1 56q-2 37 16.5 49t41 2.5t42 -40t19.5 -78.5q-1 -10 10 -13t28.5 -4t37.5 -0.5
t37.5 -2t28 -9.5t8.5 -21q-2 -15 -12.5 -23t-25.5 -11.5t-32.5 -5t-32.5 -2t-26.5 -2t-14.5 -5.5q-4 0 -7.5 -0.5t-5.5 -8t-1.5 -23.5t3.5 -46q-3 -21 -9.5 -39.5t-29.5 -23.5q-30 -3 -43.5 14t-18.5 41t-4.5 48t-1.5 35q-23 -1 -51.5 -1t-53 4.5t-39 15t-7.5 31.5z" />
    <glyph glyph-name="twosuperior" unicode="&#xb2;" horiz-adv-x="224" 
d="M48 519q-22 -3 -31.5 6t-10 23.5t7.5 30t20 25.5q10 8 21 18.5t20 22.5t14 25.5t5 27.5q0 11 -7 14t-15 -1t-14.5 -12.5t-6.5 -20.5q-7 -6 -13.5 6.5t-4 29t17.5 28.5t52 5q33 -11 40.5 -32.5t-2 -47t-32 -50.5t-49.5 -43q25 0 42.5 0.5t40.5 -6.5q7 -2 18 -7t17.5 -12
t6.5 -14.5t-13 -14.5q-3 -2 -16 -1t-31 2t-38.5 1t-38.5 -3z" />
    <glyph glyph-name="threesuperior" unicode="&#xb3;" horiz-adv-x="186" 
d="M161 560q0 -22 -15 -30.5t-34 -13.5q-6 0 -19 0.5t-26.5 3.5t-25 9t-13.5 17q-4 12 2 17.5t16.5 6.5t23.5 0t25 -2t21 0t10 7q0 5 -12.5 14t-26.5 19t-24 20.5t-5 19.5q6 7 21 12t31.5 9.5t29.5 9.5t15 13q2 16 -3.5 22t-16 7t-24 -1.5t-25.5 -4.5t-21.5 -1.5t-11.5 7.5
q-7 16 5.5 23.5t31.5 9t38.5 -1.5t26.5 -7q26 -18 25 -35.5t-15 -32.5t-33.5 -28.5t-30.5 -24.5q2 -2 12 -7t20.5 -12.5t19 -18.5t8.5 -26z" />
    <glyph glyph-name="acute" unicode="&#xb4;" horiz-adv-x="431" 
d="M187 718q16 11 37.5 20t42.5 12t40.5 -1.5t33.5 -21.5q9 -12 -4.5 -31.5t-39.5 -41t-60 -42t-66 -34.5t-57 -19t-33 4q-11 13 1 36.5t33 48.5t42.5 45t29.5 25z" />
    <glyph glyph-name="mu" unicode="&#xb5;" horiz-adv-x="622" 
d="M169 446q3 -26 3 -54t-0.5 -56t-0.5 -55.5t4 -53.5q0 -9 4 -25.5t11.5 -35.5t18 -37t23 -29.5t26.5 -13.5t29 12q27 16 45 42.5t29.5 58t17 65t6.5 63.5q-3 25 4 50.5t19.5 45.5t27.5 32.5t28.5 12.5t23.5 -15t12 -49q4 -30 2 -74t-2.5 -90.5t4.5 -89.5t23 -70
q8 -13 23 -17t31 -3.5t32 3t26 2.5t12 -4t-8 -16q-22 -26 -49 -39.5t-55 -16t-54 6.5t-45.5 29.5t-29.5 52.5t-6 75q-14 -38 -35.5 -73.5t-51 -55.5t-69 -18t-89.5 38q-1 -35 2 -77t7.5 -84.5t9 -82t7.5 -68.5q4 -43 -10.5 -62.5t-35 -17t-41 26t-27.5 67.5
q-14 105 -18.5 215.5t6.5 222.5q0 22 -2.5 58.5t-5 76.5t-3 78t4.5 64q5 8 22.5 18.5t37 13t36 -6.5t20.5 -40z" />
    <glyph glyph-name="periodcentered" unicode="&#xb7;" horiz-adv-x="459" 
d="M253 373q13 0 25 -7.5t20 -19t10 -25.5t-5 -26q-9 -16 -29 -29.5t-41 -16t-39 10.5t-23 49q-3 20 6 31t23 17t29 9t24 7z" />
    <glyph glyph-name="cedilla" unicode="&#xb8;" horiz-adv-x="392" 
d="M181 -211q8 5 23 5t29 0.5t22.5 6.5t2.5 23q-8 25 -22.5 27t-29.5 -1.5t-28 -6t-19 13.5q-7 18 -14 37t-11 39t-3.5 42.5t9.5 48.5q21 5 32.5 -12.5t17.5 -43t8.5 -51t7.5 -36.5q21 6 45.5 6t44.5 -8.5t32 -28t9 -52.5q1 -27 -21.5 -42t-51 -17t-54 10t-29.5 40q4 3 4 2
t-1 -2.5t-2.5 -2t-0.5 2.5z" />
    <glyph glyph-name="onesuperior" unicode="&#xb9;" horiz-adv-x="238" 
d="M185 542q20 -5 30.5 -14t9.5 -17.5t-12.5 -13t-35.5 -1.5q-12 0 -32 -0.5t-39.5 0.5t-34 6t-14.5 17q0 6 9.5 12t22.5 10.5t25 6t18 0.5q3 24 3.5 47.5t-0.5 47.5q-9 -3 -15 -10t-12.5 -14t-13.5 -13t-17 -8q-2 -1 -11.5 1t-18.5 6.5t-14 12.5t0 19q17 6 31.5 19t29 28.5
t28.5 30.5t30 25q10 0 16.5 -14.5t9.5 -36.5t4 -47.5t1 -47.5v-37t2 -15z" />
    <glyph glyph-name="ordmasculine" unicode="&#xba;" horiz-adv-x="397" 
d="M325 512q-15 -34 -44.5 -61t-65 -35t-72 7.5t-65.5 67.5q-30 45 -30 99.5t30 100.5q7 15 18.5 25.5t24.5 18t25 11t20 3.5q56 0 94.5 -24.5t59 -60.5t22 -77.5t-16.5 -74.5zM237 512q19 15 28 37t8.5 45t-9 43.5t-23 32t-34 10.5t-41.5 -20q-15 -10 -21 -29t-5 -40.5
t9 -42t20.5 -34t30 -15.5t37.5 13z" />
    <glyph glyph-name="guillemotright" unicode="&#xbb;" 
d="M331 194q14 20 38.5 40.5t37.5 42.5q8 18 6.5 27t-9 14.5t-19.5 9.5t-26 11q-38 18 -73 37.5t-69 45.5q-19 15 -22.5 24t2.5 12.5t19.5 3.5t29 -3t30 -8t23.5 -10q12 -7 32.5 -16t44 -20.5t47 -24.5t41.5 -28.5t27 -32.5t3 -36q-4 -14 -18.5 -36.5t-34.5 -48t-43 -51.5
t-44.5 -46t-38.5 -31.5t-25 -7.5q-11 5 -9 22t10.5 37.5t19.5 41t20 31.5zM204 300q-6 7 -22.5 16.5t-37 20.5t-42.5 23.5t-39.5 25.5t-27.5 26t-7 26q11 5 35 1t54 -14.5t62.5 -26t59 -32.5t43.5 -33.5t17 -30.5q0 -15 -12.5 -39.5t-32.5 -52t-45 -54.5t-50 -47t-47 -29
t-37 -1q-14 8 -14 22.5t9.5 34t26 41.5t36 44t38.5 42.5t33 36.5z" />
    <glyph glyph-name="onequarter" unicode="&#xbc;" horiz-adv-x="689" 
d="M610 131q0 -21 1 -30.5t0 -16t-4.5 -16t-12.5 -30.5q-17 -32 -34.5 -33t-31.5 14.5t-24 41t-11 46.5q-8 -3 -33.5 -9t-56.5 -6t-62 10.5t-49 40.5q-14 24 -12.5 48t13 46t30.5 42.5t40 38.5t41 33t33 26q25 18 51.5 40.5t57.5 28.5q24 5 36 0t16 -15t1.5 -24t-7.5 -26.5
t-10.5 -23t-7.5 -13.5q-3 -11 -2 -30t3.5 -38.5t5.5 -33.5t5 -14q4 -8 17 -8t27.5 0.5t28.5 -2.5t20 -15t0.5 -23t-16.5 -20.5t-26 -17t-27 -11.5zM360 171q14 -1 36 1t42 5t34 6t13 4q-3 12 -3.5 36t-0.5 81q0 -3 -18 -20t-39.5 -38.5t-41 -42.5t-22.5 -32zM106 127
q-24 -18 -40.5 -6.5t-19.5 38.5q-3 23 6.5 50.5t24 55t31 52.5t27.5 43q30 49 60 95t57 95q6 9 16 33t22.5 45t26 29t27.5 -14q13 -20 12.5 -48.5t-9.5 -60t-25 -65.5t-33.5 -64.5t-34 -57t-27.5 -43.5q-12 -18 -31.5 -40.5t-38 -46.5t-33.5 -47.5t-18 -42.5
q-3 -3 -3.5 -2.5t0.5 2t2 2.5t1 -2zM135 538q-1 -7 -4 -20.5t-8 -27.5t-11 -26t-14 -17t-17 -0.5t-19 23.5q-6 11 -9.5 31t-4.5 43t0.5 47.5t6.5 44.5t12.5 33t18.5 14q15 1 25 -13t16 -36.5t7.5 -48.5t0.5 -47z" />
    <glyph glyph-name="onehalf" unicode="&#xbd;" horiz-adv-x="617" 
d="M367 -13q-42 0 -59.5 18t-18 43.5t13.5 52t37 44.5q20 15 44 28t45 32t35 48.5t14 78.5q0 21 -16.5 23.5t-36.5 -6.5t-36.5 -27t-16.5 -40q-10 -5 -19 5.5t-13.5 28t-2 38t17 36.5t42 23.5t73.5 -1.5q50 -10 71 -33t20.5 -53.5t-19 -66.5t-47 -71.5t-63.5 -67t-69 -53.5
q23 0 46 4t45.5 8t45 5t43.5 -5q13 -5 32.5 -14.5t32.5 -21.5t13.5 -26t-23.5 -27q-19 4 -46 4.5t-58 -1.5t-64 -4t-63 -2zM121 132q-28 1 -36.5 26.5t-2 67t25.5 93.5t45.5 105t58.5 102t65 84.5t64.5 53t56.5 6.5q13 -16 7.5 -43t-22.5 -59.5t-41.5 -67.5t-48.5 -67
t-44 -59t-27 -42q-7 -14 -19 -44.5t-26.5 -62.5t-29 -59t-26.5 -34q-6 0 -5.5 1.5t3 2t4 0t-1.5 -3.5zM26 566q-3 24 -8 43t-5.5 34t7 27.5t29.5 25.5q10 -6 16 -14.5t10 -19.5t8 -22.5t11 -23.5q3 -9 4.5 -41t0 -67.5t-6 -63.5t-12.5 -28q-29 1 -40.5 18t-14 40t-0.5 48.5
t1 43.5z" />
    <glyph glyph-name="threequarters" unicode="&#xbe;" horiz-adv-x="594" 
d="M521 123q0 -43 -2.5 -70t-16.5 -37q-16 -18 -27.5 -15t-19.5 17.5t-12.5 37t-5.5 43.5q-8 -3 -33 -7t-55 -3t-58 9t-41 28q-12 18 0.5 49.5t36 65.5t51.5 65t48 48q14 13 28.5 27t29 25.5t30 17.5t31.5 3q20 -4 24 -17t0.5 -28t-11 -28t-10.5 -18q-3 -11 -4 -33t0 -44
t2 -39t3 -17h10.5t22.5 -1.5t25.5 -7.5t18.5 -18t1 -20t-15.5 -14t-24.5 -10.5t-26 -8.5zM342 177q14 -1 30 -1.5t29 0t21 1.5t7 2q-3 12 -3.5 36t-0.5 81q0 -3 -12 -18t-26.5 -33.5t-28 -37.5t-16.5 -30zM134 103q-24 -18 -40.5 -6.5t-19.5 38.5q-3 23 6.5 50.5t24 55
t31 52.5t27.5 43q30 49 60 95t57 95q4 7 9.5 21t13 29.5t16 29.5t17 22t18 7t18.5 -16q13 -20 11 -48.5t-13.5 -60t-30 -65.5t-38 -64.5t-37.5 -57t-29 -43.5q-12 -18 -28 -40.5t-31.5 -46.5t-27 -47.5t-14.5 -42.5q-3 -3 -3.5 -2.5t0.5 2t2 2.5t1 -2zM205 457
q0 -15 -7.5 -25.5t-19 -17.5t-25 -10.5t-26.5 -6.5q-7 0 -24.5 0.5t-36.5 4.5t-34 12t-18 23q-5 16 2.5 23.5t22 9t33 -0.5t35 -3t28.5 0.5t14 10.5q0 8 -17.5 20t-37 25.5t-33.5 28t-7 27.5q7 10 20 12t27 4t28 9t24 28q3 21 -2.5 30.5t-16 11t-24 -1t-26.5 -4.5
t-23.5 -0.5t-13.5 11.5q-10 22 6.5 33t43.5 13t56.5 -2.5t45.5 -12.5q20 -10 29.5 -24.5t10.5 -30.5t-7 -32t-24 -28q-10 -8 -21 -12t-22 -7.5t-20 -7t-15 -9.5q2 -3 14.5 -9.5t27 -18.5t25 -30t8.5 -43z" />
    <glyph glyph-name="questiondown" unicode="&#xbf;" 
d="M538 -18q0 -22 -20 -47.5t-47 -49.5t-55.5 -42.5t-45.5 -26.5q-42 -18 -94 -15.5t-101.5 20.5t-89.5 49t-57 70q-25 52 -20.5 101.5t28.5 92t62.5 76.5t81.5 55q22 9 43 15.5t44 9.5q27 3 37 11.5t10.5 21.5t-4.5 31t-6 39q-2 19 2.5 41t15 41t28.5 32t44 13
q9 -3 17 -20.5t14.5 -42.5t11.5 -55t8.5 -57t6 -49t3.5 -31q1 -20 -8.5 -29.5t-26 -14t-38 -5t-43.5 -2t-42 -5.5t-34 -14q-50 -34 -74 -76.5t-23.5 -84t25 -76t72.5 -51.5q33 -12 63 -8.5t56.5 15t50 27t43 28t35 18t27.5 -4.5q9 -7 9.5 -7.5t-2 2t-6 4.5t-1.5 1zM332 685
q27 12 44.5 4t24 -24.5t2.5 -34t-21 -23.5q-34 -14 -53.5 -7t-25.5 22.5t1.5 34.5t27.5 28z" />
    <glyph glyph-name="Agrave" unicode="&#xc0;" horiz-adv-x="579" 
d="M508 -71q-22 -4 -29 14t-13 47q-9 36 -17.5 89t-31.5 110q-4 8 -35.5 3t-80.5 -5q-14 1 -28.5 0t-26.5 -3t-19.5 -3.5t-7.5 -2.5q-2 -17 -4.5 -48.5t-11.5 -62t-27 -52t-49 -18.5q-14 1 -19.5 27t-7.5 59t-1 63t1 39q-50 7 -67.5 17.5t-11.5 21.5t30 21t59 16
q4 32 8.5 76t14.5 89t27.5 85t46.5 64q15 12 39.5 10.5t51 -15t51.5 -39t42 -60.5q11 -20 23 -47.5t23 -56t20.5 -53.5t14.5 -38q1 -8 18 -8.5t36.5 0.5t34.5 0t12 -11q-1 -7 -15 -15.5t-31 -15.5t-31 -12t-14 -6q11 -57 22 -106t17 -86t4 -60t-17 -27zM256 501
q-13 -9 -19.5 -38t-8.5 -64.5t-2 -71.5t-1 -60q6 -2 33 -2.5t56.5 0t53 2.5t23.5 5q-1 12 -9 35.5t-20 51t-26.5 55.5t-29 49.5t-28 32.5t-22.5 5zM236 660q-11 7 -25.5 19t-26 26t-17 27t1.5 22q5 6 20 5t34 -6.5t39.5 -15.5t37 -23t26 -28t7.5 -30q-5 -12 -16.5 -15.5
t-26 -1.5t-29.5 8.5t-25 12.5z" />
    <glyph glyph-name="Aacute" unicode="&#xc1;" horiz-adv-x="530" 
d="M508 -71q-22 -4 -29 14t-13 47q-9 36 -17.5 89t-31.5 110q-4 8 -35.5 3t-80.5 -5q-14 1 -28.5 0t-26.5 -3t-19.5 -3.5t-7.5 -2.5q-2 -17 -4.5 -48.5t-11.5 -62t-27 -52t-49 -18.5q-14 1 -19.5 27t-7.5 59t-1 63t1 39q-50 7 -67.5 17.5t-11.5 21.5t30 21t59 16
q4 32 8.5 76t14.5 89t27.5 85t46.5 64q15 12 39.5 10.5t51 -15t51.5 -39t42 -60.5q11 -20 23 -47.5t23 -56t20.5 -53.5t14.5 -38q1 -8 18 -8.5t36.5 0.5t34.5 0t12 -11q-1 -7 -15 -15.5t-31 -15.5t-31 -12t-14 -6q11 -57 22 -106t17 -86t4 -60t-17 -27zM256 501
q-13 -9 -19.5 -38t-8.5 -64.5t-2 -71.5t-1 -60q6 -2 33 -2.5t56.5 0t53 2.5t23.5 5q-1 12 -9 35.5t-20 51t-26.5 55.5t-29 49.5t-28 32.5t-22.5 5zM263 659q-11 -8 -27.5 -17t-33.5 -14.5t-31.5 -5.5t-19.5 9q-5 10 10 34t40 46.5t53 35.5t48 1q10 -9 8.5 -21.5t-9 -25
t-18.5 -24t-20 -18.5z" />
    <glyph glyph-name="Acircumflex" unicode="&#xc2;" horiz-adv-x="580" 
d="M508 -71q-22 -4 -29 14t-13 47q-9 36 -17.5 89t-31.5 110q-4 8 -35.5 3t-80.5 -5q-14 1 -28.5 0t-26.5 -3t-19.5 -3.5t-7.5 -2.5q-2 -17 -4.5 -48.5t-11.5 -62t-27 -52t-49 -18.5q-14 1 -19.5 27t-7.5 59t-1 63t1 39q-50 7 -67.5 17.5t-11.5 21.5t30 21t59 16
q4 32 8.5 76t14.5 89t27.5 85t46.5 64q15 12 39.5 10.5t51 -15t51.5 -39t42 -60.5q11 -20 23 -47.5t23 -56t20.5 -53.5t14.5 -38q1 -8 18 -8.5t36.5 0.5t34.5 0t12 -11q-1 -7 -15 -15.5t-31 -15.5t-31 -12t-14 -6q11 -57 22 -106t17 -86t4 -60t-17 -27zM256 501
q-13 -9 -19.5 -38t-8.5 -64.5t-2 -71.5t-1 -60q6 -2 33 -2.5t56.5 0t53 2.5t23.5 5q-1 12 -9 35.5t-20 51t-26.5 55.5t-29 49.5t-28 32.5t-22.5 5zM245 677q-12 -14 -20.5 -26.5t-16.5 -21.5t-17.5 -14.5t-22.5 -6.5q-13 -2 -14.5 11t3 31t12 36t12.5 27q9 21 17.5 32.5
t19.5 15t25 -0.5t34 -14q14 -8 34 -28t36 -42.5t23 -42.5t-5 -28t-27.5 0t-32 22t-32 29t-28.5 21z" />
    <glyph glyph-name="Atilde" unicode="&#xc3;" horiz-adv-x="579" 
d="M508 -71q-22 -4 -29 14t-13 47q-9 36 -17.5 89t-31.5 110q-4 8 -35.5 3t-80.5 -5q-14 1 -28.5 0t-26.5 -3t-19.5 -3.5t-7.5 -2.5q-2 -17 -4.5 -48.5t-11.5 -62t-27 -52t-49 -18.5q-14 1 -19.5 27t-7.5 59t-1 63t1 39q-50 7 -67.5 17.5t-11.5 21.5t30 21t59 16
q4 32 8.5 76t14.5 89t27.5 85t46.5 64q15 12 39.5 10.5t51 -15t51.5 -39t42 -60.5q11 -20 23 -47.5t23 -56t20.5 -53.5t14.5 -38q1 -8 18 -8.5t36.5 0.5t34.5 0t12 -11q-1 -7 -15 -15.5t-31 -15.5t-31 -12t-14 -6q11 -57 22 -106t17 -86t4 -60t-17 -27zM256 501
q-13 -9 -19.5 -38t-8.5 -64.5t-2 -71.5t-1 -60q6 -2 33 -2.5t56.5 0t53 2.5t23.5 5q-1 12 -9 35.5t-20 51t-26.5 55.5t-29 49.5t-28 32.5t-22.5 5zM266 662q-9 12 -14 19t-9 11t-7.5 5.5t-10.5 1.5q-14 0 -19.5 -6.5t-7.5 -17.5q-3 -12 -14 -18.5t-22 -2.5q-13 5 -15.5 16.5
t-0.5 20.5q1 10 6.5 22.5t15 23.5t22 19t27.5 8q18 0 29 -3t19.5 -9t16 -15t19.5 -22q11 -12 20.5 -11.5t17 6.5t13.5 14t10 10q8 -9 11 -23t-4 -38q-3 -13 -9.5 -22t-23.5 -14q-22 -7 -39.5 0.5t-30.5 24.5z" />
    <glyph glyph-name="Adieresis" unicode="&#xc4;" horiz-adv-x="580" 
d="M508 -71q-22 -4 -29 14t-13 47q-9 36 -17.5 89t-31.5 110q-4 8 -35.5 3t-80.5 -5q-14 1 -28.5 0t-26.5 -3t-19.5 -3.5t-7.5 -2.5q-2 -17 -4.5 -48.5t-11.5 -62t-27 -52t-49 -18.5q-14 1 -19.5 27t-7.5 59t-1 63t1 39q-50 7 -67.5 17.5t-11.5 21.5t30 21t59 16
q4 32 8.5 76t14.5 89t27.5 85t46.5 64q15 12 39.5 10.5t51 -15t51.5 -39t42 -60.5q11 -20 23 -47.5t23 -56t20.5 -53.5t14.5 -38q1 -8 18 -8.5t36.5 0.5t34.5 0t12 -11q-1 -7 -15 -15.5t-31 -15.5t-31 -12t-14 -6q11 -57 22 -106t17 -86t4 -60t-17 -27zM256 501
q-13 -9 -19.5 -38t-8.5 -64.5t-2 -71.5t-1 -60q6 -2 33 -2.5t56.5 0t53 2.5t23.5 5q-1 12 -9 35.5t-20 51t-26.5 55.5t-29 49.5t-28 32.5t-22.5 5zM313 732q9 19 23 20t26 -9t18 -26.5t-1 -30.5q-10 -20 -22 -20.5t-22.5 10t-17 27t-4.5 29.5q1 5 0.5 0t-1.5 -10l-1 -5z
M124 741q17 15 33 15t27 -24q4 -6 12 -13t16 -14.5t13.5 -15.5t4.5 -17q-4 -18 -15.5 -25.5t-26.5 -6.5t-30.5 9t-26 22t-13.5 32t6 38q2 2 -1 -4.5t-6 -11.5t-2.5 -3.5t9.5 19.5z" />
    <glyph glyph-name="Aring" unicode="&#xc5;" horiz-adv-x="574" 
d="M331 620q-11 -23 -31 -40q26 -14 50 -40.5t41 -68.5q11 -20 23 -47.5t23 -56t20.5 -53.5t14.5 -38q1 -8 18 -8.5t36.5 0.5t34.5 0t12 -11q-1 -7 -15 -15.5t-31 -15.5t-31 -12t-14 -6q11 -57 22 -106t17 -86t4 -60t-17 -27q-22 -4 -29 14t-13 47q-9 36 -17.5 89t-31.5 110
q-4 8 -34 4t-80 -9q-34 -1 -59 -2.5t-25 -3.5q-2 -17 -4.5 -48.5t-11.5 -62t-27 -52t-49 -18.5q-14 1 -19.5 27t-7.5 59t-1 63t1 39q-50 7 -67.5 17.5t-11.5 21.5t30 21t59 16q4 32 8.5 77t14.5 91.5t27 88t45 65.5q-11 11 -19 26q-17 25 -17 57t17 59q8 17 26 25.5t26 8.5
q33 0 55.5 -14.5t34.5 -35.5t13 -45.5t-10 -43.5zM256 501q-13 -9 -19.5 -38t-8.5 -64.5t-2 -71.5t-1 -60q6 -2 33 -2.5t56.5 0t53 2.5t23.5 5q-1 12 -9 35.5t-20 51t-26.5 55.5t-29 49.5t-28 32.5t-22.5 5zM280 620q17 13 20 34.5t-4.5 39t-23 24t-34.5 -10.5
q-13 -9 -15 -28.5t5 -37t20.5 -26t31.5 4.5z" />
    <glyph glyph-name="AE" unicode="&#xc6;" horiz-adv-x="742" 
d="M176 98q-6 -16 -18.5 -38.5t-28.5 -40t-33.5 -22.5t-33.5 15q-7 9 -6.5 31t6 50t13.5 59t15.5 59.5t13 51.5t5.5 34q0 4 -17.5 6.5l-38.5 5.5t-37.5 8.5t-13.5 15.5q5 21 21.5 30.5t37 13t40.5 3t31 0.5q4 0 12 15.5t17.5 37.5t19.5 46.5t18 43.5q15 35 33.5 70.5
t44.5 64.5q32 38 59 33t64 -49q2 -3 24 -0.5t53 7t67 10t67.5 8t52.5 0.5t23 -11q3 -11 -20 -22t-53.5 -21t-61.5 -17t-45 -10q-26 -5 -35 -28t-9.5 -53.5t3.5 -64t4 -58.5q0 -1 12.5 0t32 1.5t42 -0.5t42.5 -5q11 -3 24 -2t26 1.5t25.5 0t23.5 -4.5q-6 -19 -24 -31.5
t-42.5 -20.5t-51.5 -12.5t-49.5 -7t-37 -4.5t-14.5 -5q0 -25 -0.5 -55.5t1 -58t6 -48t13.5 -25.5q33 -20 63.5 -16.5t59.5 12.5t58 13t58 -16q3 -3 0.5 -12t-7 -19t-10 -18.5t-8.5 -10.5q-20 -17 -40 -23.5t-40.5 -8t-42.5 1t-46 4.5q-24 3 -54 7t-57 13.5t-46 27t-22 47.5
q-1 9 -3 37t-4 59t-4 57t-3 32q-1 4 -12.5 6t-28 1.5t-34.5 -2t-33 -2.5q-2 0 -9.5 -22.5t-18 -53.5t-21.5 -65t-18 -56zM340 561q-13 -9 -23.5 -32t-18.5 -50t-14.5 -52.5t-10.5 -39.5q12 1 24.5 -0.5t23.5 -1.5t20 2.5t15 10.5q3 5 3 18.5t-1.5 31t-4 37t-5 36t-5 27.5
t-3.5 13z" />
    <glyph glyph-name="Ccedilla" unicode="&#xc7;" 
d="M279 -198q9 4 23 5.5t27 7t21.5 16t6.5 32.5q-3 17 -10.5 24t-18 8t-21.5 -0.5t-21 -2.5t-17.5 2t-9.5 14q-3 14 -7.5 25t-7.5 22t-4 23t2 28q-67 14 -116 61t-79 114q-21 47 -27.5 108t2 122.5t32 115.5t64.5 87q43 34 87 44.5t85 6t76 -20.5t59 -34q7 -5 24.5 -18
t29 -27.5t9 -25.5t-34.5 -12q-22 -1 -42 3t-40 9.5t-40 10t-42 4.5q-115 0 -142 -157q-6 -36 -11 -88.5t0 -102.5t25 -86t64 -39q27 -2 54.5 7.5t53.5 24.5t49.5 33t42.5 35q3 3 15.5 18.5t28.5 29.5t30 21t20 -6q3 -6 0.5 -26t-7 -42.5t-9.5 -42t-8 -23.5q-20 -26 -45 -51
t-57 -38q-42 -17 -84 -18q4 -28 2.5 -45.5t1.5 -30.5q22 2 46 -1.5t43 -14.5t28 -32t1 -53q-3 -27 -27 -45t-52 -22.5t-50.5 5t-22.5 38.5z" />
    <glyph glyph-name="Egrave" unicode="&#xc8;" horiz-adv-x="414" 
d="M171 725q-10 6 -22.5 16.5t-22 22t-14.5 23t1 18.5t30 2.5t49.5 -17t44.5 -30.5t16 -38q-4 -11 -14 -14t-22 -1t-24.5 7.5t-21.5 10.5zM380 127q9 -6 5 -21t-17.5 -32.5t-34.5 -33.5t-46 -25q-22 -8 -45.5 -14t-49 -7t-53 4.5t-55.5 20.5q-40 20 -61 46.5t-28 56t-1 60
t19.5 59.5t34 54.5t42.5 45.5q-49 22 -68.5 55t-17.5 70.5t21 74.5t47 66t60.5 47t61.5 16q27 -2 55.5 -13t50.5 -26t32.5 -30t0.5 -24q-6 -5 -18 0t-31.5 12.5t-45 13.5t-58.5 5q-48 -3 -69 -34.5t-24 -80.5q-2 -30 6.5 -51.5t20 -34t22 -17.5t12.5 -3q33 27 70.5 44.5
t70.5 21.5t56.5 -6.5t28.5 -39.5q-1 -15 -15 -28t-34.5 -23t-45 -18t-46 -13.5t-36 -9t-15.5 -4.5q-23 -17 -46.5 -39t-34.5 -56q-10 -31 -0.5 -55t33 -39.5t57.5 -20.5t73 3q13 2 29.5 8t33 11.5t30.5 7.5t23 -4zM308 403q-22 14 -42.5 2t-46.5 -36q12 1 29 5t32 9.5t24 11
t4 8.5z" />
    <glyph glyph-name="Eacute" unicode="&#xc9;" horiz-adv-x="412" 
d="M234 730q-9 -7 -22.5 -14.5t-28 -12t-26 -4.5t-15.5 8q-5 8 8 28t33 38.5t43.5 29.5t40.5 1q8 -8 6.5 -18t-7.5 -20.5t-15 -20t-17 -15.5zM380 127q9 -6 5 -21t-17.5 -32.5t-34.5 -33.5t-46 -25q-22 -8 -45.5 -14t-49 -7t-53 4.5t-55.5 20.5q-40 20 -61 46.5t-28 56
t-1 60t19.5 59.5t34 54.5t42.5 45.5q-49 22 -68.5 55t-17.5 70.5t21 74.5t47 66t60.5 47t61.5 16q27 -2 55.5 -13t50.5 -26t32.5 -30t0.5 -24q-6 -5 -18 0t-31.5 12.5t-45 13.5t-58.5 5q-48 -3 -69 -34.5t-24 -80.5q-2 -30 6.5 -51.5t20 -34t22 -17.5t12.5 -3
q33 27 70.5 44.5t70.5 21.5t56.5 -6.5t28.5 -39.5q-1 -15 -15 -28t-34.5 -23t-45 -18t-46 -13.5t-36 -9t-15.5 -4.5q-23 -17 -46.5 -39t-34.5 -56q-10 -31 -0.5 -55t33 -39.5t57.5 -20.5t73 3q13 2 29.5 8t33 11.5t30.5 7.5t23 -4zM308 403q-22 14 -42.5 2t-46.5 -36
q12 1 29 5t32 9.5t24 11t4 8.5z" />
    <glyph glyph-name="Ecircumflex" unicode="&#xca;" horiz-adv-x="414" 
d="M177 749q-18 -20 -30.5 -36t-32.5 -18q-11 4 -13 14.5t1.5 22t10.5 23t15 19.5q10 12 17 20t14.5 11t17 1t24.5 -9q10 -5 25.5 -19t27.5 -30t17.5 -30t-3.5 -19t-21 0.5t-24 15t-24 20t-22 14.5zM380 127q9 -6 5 -21t-17.5 -32.5t-34.5 -33.5t-46 -25q-22 -8 -45.5 -14
t-49 -7t-53 4.5t-55.5 20.5q-40 20 -61 46.5t-28 56t-1 60t19.5 59.5t34 54.5t42.5 45.5q-49 22 -68.5 55t-17.5 70.5t21 74.5t47 66t60.5 47t61.5 16q27 -2 55.5 -13t50.5 -26t32.5 -30t0.5 -24q-6 -5 -18 0t-31.5 12.5t-45 13.5t-58.5 5q-48 -3 -69 -34.5t-24 -80.5
q-2 -30 6.5 -51.5t20 -34t22 -17.5t12.5 -3q33 27 70.5 44.5t70.5 21.5t56.5 -6.5t28.5 -39.5q-1 -15 -15 -28t-34.5 -23t-45 -18t-46 -13.5t-36 -9t-15.5 -4.5q-23 -17 -46.5 -39t-34.5 -56q-10 -31 -0.5 -55t33 -39.5t57.5 -20.5t73 3q13 2 29.5 8t33 11.5t30.5 7.5t23 -4
zM308 403q-22 14 -42.5 2t-46.5 -36q12 1 29 5t32 9.5t24 11t4 8.5z" />
    <glyph glyph-name="Edieresis" unicode="&#xcb;" horiz-adv-x="414" 
d="M380 127q9 -6 5 -21t-17.5 -32.5t-34.5 -33.5t-46 -25q-22 -8 -45.5 -14t-49 -7t-53 4.5t-55.5 20.5q-40 20 -61 46.5t-28 56t-1 60t19.5 59.5t34 54.5t42.5 45.5q-49 22 -68.5 55t-17.5 70.5t21 74.5t47 66t60.5 47t61.5 16q27 -2 55.5 -13t50.5 -26t32.5 -30t0.5 -24
q-6 -5 -18 0t-31.5 12.5t-45 13.5t-58.5 5q-48 -3 -69 -34.5t-24 -80.5q-2 -30 6.5 -51.5t20 -34t22 -17.5t12.5 -3q33 27 70.5 44.5t70.5 21.5t56.5 -6.5t28.5 -39.5q-1 -15 -15 -28t-34.5 -23t-45 -18t-46 -13.5t-36 -9t-15.5 -4.5q-23 -17 -46.5 -39t-34.5 -56
q-10 -31 -0.5 -55t33 -39.5t57.5 -20.5t73 3q13 2 29.5 8t33 11.5t30.5 7.5t23 -4zM308 403q-22 14 -42.5 2t-46.5 -36q12 1 29 5t32 9.5t24 11t4 8.5zM239 773q8 16 20 16.5t22.5 -8t15.5 -22.5t-1 -26q-8 -18 -19 -18t-20 9t-14.5 23t-3.5 26q1 4 0.5 -0.5t-1.5 -9t-1 -4
t2 13.5zM75 779q15 14 29.5 14t22.5 -20q4 -5 11 -11.5l14 -13t12 -14t4 -14.5q-5 -23 -25 -26.5t-39 7t-30 31.5t1 47q2 3 -0.5 -2.5t-5 -10t-2.5 -3.5t8 16z" />
    <glyph glyph-name="Igrave" unicode="&#xcc;" horiz-adv-x="315" 
d="M145 668q-11 7 -25.5 19t-26 26t-17 27t1.5 22q5 6 20 5t34 -6.5t39.5 -15.5t37 -23t26.5 -28t7 -30q-5 -12 -16.5 -15.5t-26 -1.5t-29.5 8.5t-25 12.5zM227 311q0 -30 -3 -66.5t-9.5 -72.5t-15 -70t-18.5 -59t-20.5 -39t-20.5 -11q-13 3 -21.5 23.5t-14.5 50t-9.5 65.5
t-5 71t-1.5 65t1 48q0 23 0.5 54t1.5 63t3 62.5t5 54.5t8 39t11 14q38 -5 59 -35.5t31.5 -74t13.5 -92.5t5 -90z" />
    <glyph glyph-name="Iacute" unicode="&#xcd;" horiz-adv-x="302" 
d="M221 311q0 -30 -3 -66.5t-9.5 -72.5t-15 -70t-18.5 -59t-20.5 -39t-20.5 -11q-13 3 -21.5 23.5t-14.5 50t-9.5 65.5t-5 71t-1.5 65t1 48q0 23 0.5 54t1.5 63t3 62.5t5 54.5t7.5 39t11.5 14q38 -5 59 -35.5t31.5 -74t13.5 -92.5t5 -90zM170 688q-9 -7 -22.5 -14.5t-28 -12
t-26 -4.5t-15.5 8q-5 8 8 28t33 38.5t43.5 29.5t40.5 1q8 -8 6.5 -18t-7.5 -20.5t-15 -20t-17 -15.5z" />
    <glyph glyph-name="Icircumflex" unicode="&#xce;" horiz-adv-x="302" 
d="M221 311q0 -30 -3 -66.5t-9.5 -72.5t-15 -70t-18.5 -59t-20.5 -39t-20.5 -11q-13 3 -21.5 23.5t-14.5 50t-9.5 65.5t-5 71t-1.5 65t1 48q0 23 0.5 54t1.5 63t3 62.5t5 54.5t7.5 39t11.5 14q38 -5 59 -35.5t31.5 -74t13.5 -92.5t5 -90zM134 728q-18 -20 -30.5 -36
t-32.5 -18q-11 4 -13 14.5t1.5 22t10.5 23t15 19.5q10 12 17 20t14.5 11t17 1t24.5 -9q10 -5 25.5 -19t27.5 -30t17.5 -30t-3.5 -19t-21 0.5t-24 15t-24 20t-22 14.5z" />
    <glyph glyph-name="Idieresis" unicode="&#xcf;" horiz-adv-x="303" 
d="M185 773q8 16 20 16.5t22.5 -8t15.5 -22.5t-1 -26q-8 -18 -19 -18t-20 9t-14.5 23t-3.5 26q1 4 0.5 -0.5t-1.5 -9t-1 -4t2 13.5zM21 779q15 14 29.5 14t22.5 -20q4 -5 11 -11.5l14 -13t12 -14t4 -14.5q-5 -23 -25 -26.5t-39 7t-30 31.5t1 47q2 3 -0.5 -2.5t-5 -10
t-2.5 -3.5t8 16zM221 311q0 -30 -3 -66.5t-9.5 -72.5t-15 -70t-18.5 -59t-20.5 -39t-20.5 -11q-13 3 -21.5 23.5t-14.5 50t-9.5 65.5t-5 71t-1.5 65t1 48q0 23 0.5 54t1.5 63t3 62.5t5 54.5t7.5 39t11.5 14q38 -5 59 -35.5t31.5 -74t13.5 -92.5t5 -90z" />
    <glyph glyph-name="Eth" unicode="&#xd0;" horiz-adv-x="552" 
d="M451 376q-1 27 -11.5 60.5t-27.5 65.5t-40 57.5t-49 36.5q-21 9 -43.5 15t-41.5 3.5t-31.5 -16t-11.5 -44.5q0 -36 1.5 -71.5t2.5 -70.5q10 1 22.5 2t24.5 0t22.5 -4.5t16.5 -11.5q5 -12 0.5 -24.5t-16.5 -25.5t-29.5 -25.5t-38.5 -24.5q0 -40 -1.5 -79t-6.5 -79
q-3 -26 -7.5 -53t-11.5 -50t-17.5 -38t-25.5 -17q-20 -1 -32.5 12t-20.5 34.5t-12 47.5t-5.5 51.5t-1.5 47.5t-1 34q0 4 -0.5 7t-0.5 7q-18 -5 -31 -5.5t-18 6.5q-6 7 -4.5 19t9 25.5t19 28t24.5 28.5l4 168q0 12 -2.5 31.5t-4.5 41t-2 42.5t5 37.5t17 26.5t33 8
q19 -2 38.5 1t39.5 6.5t41 5.5t43 -1q24 -3 51.5 -14.5t54.5 -26.5t51 -33t40 -34q45 -49 65.5 -108t21 -117.5t-16.5 -112t-47 -90.5q-19 -23 -44 -43.5t-53 -36t-58 -25t-58 -12.5q-10 -2 -22 -2t-22.5 1.5t-17.5 6t-7 13.5t18 15t44 14.5t56 22.5t54 39q35 38 56.5 97
t16.5 130z" />
    <glyph glyph-name="Ntilde" unicode="&#xd1;" 
d="M261 729q-9 12 -14 19t-9 11t-7.5 5.5t-10.5 1.5q-14 0 -19.5 -6.5t-7.5 -17.5q-3 -12 -14 -18.5t-22 -2.5q-13 5 -15.5 16.5t-0.5 20.5q1 10 6.5 22.5t15 23.5t22 19t27.5 8q18 0 29 -3t19.5 -9t16 -15t19.5 -22q11 -12 20.5 -11.5t17 6.5t13.5 14t10 10q8 -9 11 -23
t-4 -38q-3 -13 -9.5 -22t-23.5 -14q-22 -7 -39.5 0.5t-30.5 24.5zM157 112q1 -15 -1 -42t-10.5 -48.5t-25.5 -28t-46 19.5q-18 14 -27.5 45t-13 73.5t-2 94t7 105.5t13.5 108.5t16 103.5q3 18 10 40.5t16 42.5t20.5 34.5t24.5 16.5t27 -11t29 -47q27 -65 58 -135t58 -135
t46.5 -119.5t22.5 -87.5q7 88 11 148.5t2 100.5q-2 42 -1 92t5.5 93.5t12.5 72.5t21 28q11 -1 15 -16t5 -40.5t1 -59.5t3 -73t11 -80.5t26 -82.5q0 -46 -1 -91t-4.5 -85t-9.5 -71.5t-15 -50.5q-14 -30 -33.5 -37.5t-41 1.5t-44 30.5t-43 49.5t-37.5 58.5t-28 56.5
q-9 22 -18.5 49.5t-18.5 56.5t-17 58.5t-15 57.5q-17 64 -32 132q-2 -10 -4 -27q-2 -14 -2.5 -38.5t0.5 -59.5q1 -43 5 -89t8.5 -87t9 -74.5t6.5 -52.5z" />
    <glyph glyph-name="Ograve" unicode="&#xd2;" 
d="M236 738q-11 7 -25.5 19t-26 26t-17 27t1.5 22q5 6 20 5t34 -6.5t39.5 -15.5t37 -23t26 -28t7.5 -30q-5 -12 -16.5 -15.5t-26 -1.5t-29.5 8.5t-25 12.5zM412 70q-25 -32 -62.5 -50.5t-78.5 -23t-81 6.5t-70 39q-57 49 -81.5 118t-24.5 143.5t19 148t49 131.5
q13 26 41.5 49t64.5 35t74.5 10.5t70.5 -25.5q13 -9 21.5 -20t16 -23t14.5 -24.5t16 -25.5q56 -78 72.5 -154.5t10 -142.5t-28.5 -116.5t-43 -75.5zM146 499q-9 -18 -19 -60t-16 -94t-5.5 -105.5t12.5 -94t38 -61t71 -4.5q33 11 56.5 37t39 59t24 69.5t12.5 68.5
q5 47 -1.5 94.5t-21 88.5t-35.5 72t-45 46q-21 9 -38.5 -3.5t-31 -33t-23.5 -43.5t-17 -36z" />
    <glyph glyph-name="Oacute" unicode="&#xd3;" 
d="M263 748q-11 -8 -27.5 -17t-33.5 -14.5t-31.5 -5.5t-19.5 9q-5 10 10 34t40 46.5t53 35.5t48 1q10 -9 8.5 -21.5t-9 -25t-18.5 -24t-20 -18.5zM412 70q-25 -32 -62.5 -50.5t-78.5 -23t-81 6.5t-70 39q-57 49 -81.5 118t-24.5 143.5t19 148t49 131.5q13 26 41.5 49
t64.5 35t74.5 10.5t70.5 -25.5q13 -9 21.5 -20t16 -23t14.5 -24.5t16 -25.5q56 -78 72.5 -154.5t10 -142.5t-28.5 -116.5t-43 -75.5zM146 499q-9 -18 -19 -60t-16 -94t-5.5 -105.5t12.5 -94t38 -61t71 -4.5q33 11 56.5 37t39 59t24 69.5t12.5 68.5q5 47 -1.5 94.5t-21 88.5
t-35.5 72t-45 46q-21 9 -38.5 -3.5t-31 -33t-23.5 -43.5t-17 -36z" />
    <glyph glyph-name="Ocircumflex" unicode="&#xd4;" 
d="M245 778q-12 -14 -20.5 -26.5t-16.5 -21.5t-17.5 -14.5t-22.5 -6.5q-13 -2 -14.5 11t3 31t12 36t12.5 27q9 21 17.5 32.5t19.5 15t25 -0.5t34 -14q14 -8 34 -28t36 -42.5t23 -42.5t-5 -28t-27.5 0t-32 22t-32 29t-28.5 21zM412 70q-25 -32 -62.5 -50.5t-78.5 -23t-81 6.5
t-70 39q-57 49 -81.5 118t-24.5 143.5t19 148t49 131.5q13 26 41.5 49t64.5 35t74.5 10.5t70.5 -25.5q13 -9 21.5 -20t16 -23t14.5 -24.5t16 -25.5q56 -78 72.5 -154.5t10 -142.5t-28.5 -116.5t-43 -75.5zM146 499q-9 -18 -19 -60t-16 -94t-5.5 -105.5t12.5 -94t38 -61
t71 -4.5q33 11 56.5 37t39 59t24 69.5t12.5 68.5q5 47 -1.5 94.5t-21 88.5t-35.5 72t-45 46q-21 9 -38.5 -3.5t-31 -33t-23.5 -43.5t-17 -36z" />
    <glyph glyph-name="Otilde" unicode="&#xd5;" 
d="M412 70q-25 -32 -62.5 -50.5t-78.5 -23t-81 6.5t-70 39q-57 49 -81.5 118t-24.5 143.5t19 148t49 131.5q13 26 41.5 49t64.5 35t74.5 10.5t70.5 -25.5q13 -9 21.5 -20t16 -23t14.5 -24.5t16 -25.5q56 -78 72.5 -154.5t10 -142.5t-28.5 -116.5t-43 -75.5zM146 499
q-9 -18 -19 -60t-16 -94t-5.5 -105.5t12.5 -94t38 -61t71 -4.5q33 11 56.5 37t39 59t24 69.5t12.5 68.5q5 47 -1.5 94.5t-21 88.5t-35.5 72t-45 46q-21 9 -38.5 -3.5t-31 -33t-23.5 -43.5t-17 -36zM256 726q-9 12 -14 19t-9 11t-7.5 5.5t-10.5 1.5q-14 0 -19.5 -6.5
t-7.5 -17.5q-3 -12 -14 -18.5t-22 -2.5q-13 5 -15.5 16.5t-0.5 20.5q1 10 6.5 22.5t15 23.5t22 19t27.5 8q18 0 29 -3t19.5 -9t16 -15t19.5 -22q11 -12 20.5 -11.5t17 6.5t13.5 14t10 10q8 -9 11 -23t-4 -38q-3 -13 -9.5 -22t-23.5 -14q-22 -7 -39.5 0.5t-30.5 24.5z" />
    <glyph glyph-name="Odieresis" unicode="&#xd6;" 
d="M412 70q-25 -32 -62.5 -50.5t-78.5 -23t-81 6.5t-70 39q-57 49 -81.5 118t-24.5 143.5t19 148t49 131.5q13 26 41.5 49t64.5 35t74.5 10.5t70.5 -25.5q13 -9 21.5 -20t16 -23t14.5 -24.5t16 -25.5q56 -78 72.5 -154.5t10 -142.5t-28.5 -116.5t-43 -75.5zM146 499
q-9 -18 -19 -60t-16 -94t-5.5 -105.5t12.5 -94t38 -61t71 -4.5q33 11 56.5 37t39 59t24 69.5t12.5 68.5q5 47 -1.5 94.5t-21 88.5t-35.5 72t-45 46q-21 9 -38.5 -3.5t-31 -33t-23.5 -43.5t-17 -36zM290 775q8 16 20 16.5t22.5 -8t15.5 -22.5t-1 -26q-8 -18 -19 -18t-20 9
t-14.5 23t-3.5 26q1 4 0.5 -0.5t-1.5 -9t-1 -4t2 13.5zM126 781q15 14 29.5 14t22.5 -20q4 -5 11 -11.5l14 -13t12 -14t4 -14.5q-5 -23 -25 -26.5t-39 7t-30 31.5t1 47q2 3 -0.5 -2.5t-5 -10t-2.5 -3.5t8 16z" />
    <glyph glyph-name="multiply" unicode="&#xd7;" horiz-adv-x="598" 
d="M107 16q1 26 11.5 54t25.5 55t31.5 50.5t30 42.5t21.5 30.5t6 14.5q-38 38 -86 83t-90 83q-15 15 1 29.5t54 10.5q17 -2 46 -18.5t58.5 -37.5t55.5 -42t37 -33q19 19 34.5 35.5t30.5 32.5t31 32.5t35 35.5q6 6 22.5 16t36.5 19t39 14.5t30 2.5t11 -17.5t-19 -44.5
q-15 -24 -27.5 -43.5t-26.5 -40.5t-32 -46t-44 -61q-4 -6 13 -23.5t41 -39t48 -42t33 -31.5q15 -17 28 -44t14.5 -48t-13 -27t-54.5 18q-19 13 -43.5 31t-50 36.5t-49.5 35.5t-43 28q-3 0 -16.5 -14.5t-35 -35t-47.5 -43t-52.5 -39.5t-51.5 -23.5t-44 4.5z" />
    <glyph glyph-name="Oslash" unicode="&#xd8;" horiz-adv-x="627" 
d="M462 51q-64 -36 -120.5 -41t-98.5 4t-67.5 21.5t-26.5 11.5q0 -2 -8.5 -14.5t-21.5 -26t-28.5 -22.5t-30.5 -3q-8 4 -5.5 17.5t9.5 31t16 36t16 32.5q1 1 -4 10.5t-11.5 25.5t-13 39t-7.5 51q-3 39 -3.5 78.5t4.5 78.5t17 76.5t34 72.5q45 72 107.5 98t139.5 16
q9 1 24 -2.5t30 -8.5t26 -8.5t13 -2.5q6 9 25 31t41 42.5t42.5 33.5t30.5 4q11 -3 10.5 -14.5t-7.5 -27.5t-18.5 -34.5t-22 -35t-18 -29t-5.5 -15.5q13 -8 32.5 -38.5t35.5 -75.5t23.5 -100t-4.5 -111t-48 -108.5t-107 -92.5zM329 71q32 7 58.5 27.5t47.5 48t36.5 58.5
t24.5 61q4 11 8 31t6.5 44t2.5 50.5t-4 50.5t-12 42.5t-21 28.5q-3 1 -17 -15.5t-34.5 -43t-44 -59t-45 -63t-38.5 -55t-24 -34.5q-11 -18 -20 -35.5t-18.5 -34.5t-20 -34t-24.5 -35q29 -31 60 -38.5t79 5.5zM243 561q-32 -38 -52.5 -84.5t-30 -96.5t-9.5 -100.5t9 -95.5
q59 91 114.5 187t118.5 187q-1 6 -15.5 18.5t-36.5 19t-48 1t-50 -35.5z" />
    <glyph glyph-name="Ugrave" unicode="&#xd9;" 
d="M260 705q-11 7 -25.5 19t-26 26t-17 27t1.5 22q5 6 20 5t34 -6.5t39.5 -15.5t37 -23t26 -28t7.5 -30q-5 -12 -16.5 -15.5t-26 -1.5t-29.5 8.5t-25 12.5zM154 523q6 -39 10.5 -91.5t12 -106t20 -103t35.5 -82.5q22 -31 43.5 -28.5t39.5 21t31 44t16 41.5q7 33 13.5 75.5
t12.5 86.5t13 85.5t15 73.5t19 51t25 18q8 1 11 -12.5t3.5 -34t-1 -43.5t-2.5 -41q-2 -31 -1 -61.5t2 -60.5t0.5 -60.5t-4.5 -62.5q-5 -38 -13.5 -80t-27 -77t-50 -57.5t-82.5 -21.5q-63 1 -108 28t-74.5 71t-45.5 100t-23 115t-6 116.5t5.5 104.5t11.5 79t12 39
q23 13 39 -0.5t26.5 -37.5t15.5 -50t6 -38z" />
    <glyph glyph-name="Uacute" unicode="&#xda;" 
d="M307 697q-11 -8 -27.5 -17t-33.5 -14.5t-31.5 -5.5t-19.5 9q-5 10 10 34t40 46.5t53 35.5t48 1q10 -9 8.5 -21.5t-9 -25t-18.5 -24t-20 -18.5zM154 523q6 -39 10.5 -91.5t12 -106t20 -103t35.5 -82.5q22 -31 43.5 -28.5t39.5 21t31 44t16 41.5q7 33 13.5 75.5t12.5 86.5
t13 85.5t15 73.5t19 51t25 18q8 1 11 -12.5t3.5 -34t-1 -43.5t-2.5 -41q-2 -31 -1 -61.5t2 -60.5t0.5 -60.5t-4.5 -62.5q-5 -38 -13.5 -80t-27 -77t-50 -57.5t-82.5 -21.5q-63 1 -108 28t-75 70.5t-46.5 98.5t-24 112.5t-6.5 113t6.5 99.5t13.5 72t15 31q23 13 38.5 3.5
t25 -28t14.5 -40t6 -33.5z" />
    <glyph glyph-name="Ucircumflex" unicode="&#xdb;" 
d="M265 774q-12 -14 -20.5 -26.5t-16.5 -21.5t-17.5 -14.5t-22.5 -6.5q-13 -2 -14.5 11t3 31t12 36t12.5 27q9 21 17.5 32.5t19.5 15t25 -0.5t34 -14q14 -8 34 -28t36 -42.5t23 -42.5t-5 -28t-27.5 0t-32 22t-32 29t-28.5 21zM154 523q6 -39 10.5 -91.5t12 -106t20 -103
t35.5 -82.5q22 -31 43.5 -28.5t39.5 21t31 44t16 41.5q7 33 13.5 75.5t12.5 86.5t13 85.5t15 73.5t19 51t25 18q8 1 11 -12.5t3.5 -34t-1 -43.5t-2.5 -41q-2 -31 -1 -61.5t2 -60.5t0.5 -60.5t-4.5 -62.5q-5 -38 -13.5 -80t-27 -77t-50 -57.5t-82.5 -21.5q-63 1 -108 28
t-74.5 71t-45.5 100t-23 115t-6 116.5t5.5 104.5t11.5 79t12 39q23 13 39 -0.5t26.5 -37.5t15.5 -50t6 -38z" />
    <glyph glyph-name="Udieresis" unicode="&#xdc;" 
d="M335 757q8 16 20 16.5t22.5 -8t15.5 -22.5t-1 -26q-8 -18 -19 -18t-20 9t-14.5 23t-3.5 26q1 4 0.5 -0.5t-1.5 -9t-1 -4t2 13.5zM171 763q15 14 29.5 14t22.5 -20q4 -5 11 -11.5l14 -13t12 -14t4 -14.5q-5 -23 -25 -26.5t-39 7t-30 31.5t1 47q2 3 -0.5 -2.5t-5 -10
t-2.5 -3.5t8 16zM154 523q6 -39 10.5 -91.5t12 -106t20 -103t35.5 -82.5q22 -31 43.5 -28.5t39.5 21t31 44t16 41.5q7 33 13.5 75.5t12.5 86.5t13 85.5t15 73.5t19 51t25 18q8 1 11 -12.5t3.5 -34t-1 -43.5t-2.5 -41q-2 -31 -1 -61.5t2 -60.5t0.5 -60.5t-4.5 -62.5
q-5 -38 -13.5 -80t-27 -77t-50 -57.5t-82.5 -21.5q-63 1 -108 28t-74.5 71t-45.5 100t-23 115t-6 116.5t5.5 104.5t11.5 79t12 39q23 13 39 -0.5t26.5 -37.5t15.5 -50t6 -38z" />
    <glyph glyph-name="Yacute" unicode="&#xdd;" horiz-adv-x="468" 
d="M279 714q-10 -8 -26 -16.5t-32 -13.5t-29.5 -5t-18.5 9t9 32t37.5 44t50 33t46.5 1q9 -9 8 -20.5t-8 -23.5t-17.5 -22.5t-19.5 -17.5zM78 674q-38 -2 -47.5 -23.5t-2.5 -52.5t24 -66.5t32 -66.5q20 -40 48 -64.5t54 -38.5q30 -16 61 -23q-15 -48 -40 -96
q-21 -42 -54.5 -89t-81.5 -87q-30 -26 -29 -43.5t22 -22.5t56 4.5t72 36.5q64 47 109 115.5t75 140t45.5 135.5t20.5 101q5 40 -7 68t-29.5 42t-33 13.5t-16.5 -18.5q-2 -15 -6.5 -33.5t-11 -39t-14.5 -42t-16 -41.5q-18 -48 -41 -99q-19 -3 -37 9q-15 11 -29.5 37.5
t-21.5 82.5q-3 29 -14 58t-25.5 52.5t-30.5 37.5t-31 13z" />
    <glyph glyph-name="Thorn" unicode="&#xde;" 
d="M51 591q0 24 -0.5 57t5.5 60.5t22 41t49 -1.5q15 -16 22 -42t10 -54t4.5 -55.5t4.5 -46.5q33 12 73 23t79 13t73 -10.5t54 -47.5q16 -24 20.5 -66t-8.5 -85t-47 -77.5t-94 -42.5q-20 0 -46 -1.5t-49 -4.5t-39 -7t-16 -8q3 -11 6 -35.5t3 -54.5t-3.5 -61.5t-14 -54.5
t-29 -34t-47.5 -1q-3 8 -6.5 43t-7 86.5t-7 114t-6 126t-4 122.5t-1.5 104zM393 403q-4 16 -14 37.5t-24 41t-31.5 33t-36.5 13.5q-32 0 -54 -17t-35.5 -42.5t-20 -55t-8 -55t1.5 -42.5t8 -17q28 0 67 6t73 18.5t56 32.5t18 47z" />
    <glyph glyph-name="germandbls" unicode="&#xdf;" horiz-adv-x="519" 
d="M235 -6q-33 0 -46 12.5t-10 27.5t20.5 28.5t44.5 16.5q33 4 53.5 13t31.5 21.5t15 28.5t5 34q0 10 -3 27.5t-10.5 36t-22.5 35.5t-39 27q-8 3 -20.5 11.5t-24.5 20.5t-20.5 26.5t-8.5 30.5q0 20 4.5 33t13 23.5t21 19.5t29.5 22q24 19 37.5 33.5t18 29t1 31.5t-13.5 41
q-15 30 -33.5 43t-37 11.5t-35 -17t-27.5 -41.5q-21 -48 -30 -100t-12 -102t-2 -94.5t1 -75.5q1 -33 4 -79t4.5 -92.5t0 -87.5t-9.5 -65q-3 -8 -17.5 -2.5t-31 18.5t-30.5 31.5t-15 37.5q-9 123 -10.5 243t23.5 240q6 27 13.5 58.5t19 61.5t28 56t39.5 43t54 22.5t71 -6.5
q52 -17 89 -43.5t54 -78.5q8 -22 2.5 -45t-18 -45t-29.5 -42t-31.5 -36t-24 -28t-6.5 -17q3 -21 24.5 -38t47.5 -37t49 -46.5t28 -66.5q7 -60 -9 -100t-48.5 -65t-77 -35t-93.5 -10z" />
    <glyph glyph-name="agrave" unicode="&#xe0;" horiz-adv-x="491" 
d="M296 423q-3 -13 -17 -21.5t-32 -17.5t-37 -20t-32 -29q-20 -29 -28 -69t-7.5 -76.5t9 -63t21.5 -26.5q16 0 33.5 15t31.5 34.5t23 40t9 31.5t-1 30.5t0.5 38.5t6 33t15.5 15t26.5 5t29.5 1t22.5 -19.5t6.5 -56.5q-2 -41 3.5 -75t15.5 -59.5t24 -41t30 -18.5
q22 -4 36.5 1.5t24 13t16.5 13.5t13 3q7 -3 3.5 -17t-16 -30.5t-34.5 -31.5t-52 -19q-45 -8 -76.5 7t-51.5 35q-23 24 -37 56q-10 -24 -28 -42q-15 -16 -39 -29.5t-59 -15.5q-35 -1 -66 22t-49.5 62t-20 90.5t22.5 108.5q16 37 42 63t55.5 42.5t59 24t53 8.5t38 -3.5
t12.5 -12.5zM226 600q-11 7 -25.5 19t-26 26t-17 27t1.5 22q5 6 20 5t34 -6.5t39.5 -15.5t37 -23t26 -28t7.5 -30q-5 -12 -16.5 -15.5t-26 -1.5t-29.5 8.5t-25 12.5z" />
    <glyph glyph-name="aacute" unicode="&#xe1;" horiz-adv-x="492" 
d="M296 423q-3 -13 -17 -21.5t-32 -17.5t-37 -20t-32 -29q-20 -29 -28 -69t-7.5 -76.5t9 -63t21.5 -26.5q16 0 33.5 15t31.5 34.5t23 40t9 31.5t-1 30.5t0.5 38.5t6 33t15.5 15t26.5 5t29.5 1t22.5 -19.5t6.5 -56.5q-2 -41 3.5 -75t15.5 -59.5t24 -41t30 -18.5
q22 -4 36.5 1.5t24 13t16.5 13.5t13 3q7 -3 3.5 -17t-16 -30.5t-34.5 -31.5t-52 -19q-45 -8 -76.5 7t-51.5 35q-23 24 -37 56q-10 -24 -28 -42q-15 -16 -39 -29.5t-59 -15.5q-35 -1 -66 22t-49.5 62t-20 90.5t22.5 108.5q16 37 42 63t55.5 42.5t59 24t53 8.5t38 -3.5
t12.5 -12.5zM261 602q-11 -8 -27.5 -17t-33.5 -14.5t-31.5 -5.5t-19.5 9q-5 10 10 34t40 46.5t53 35.5t48 1q10 -9 8.5 -21.5t-9 -25t-18.5 -24t-20 -18.5z" />
    <glyph glyph-name="acircumflex" unicode="&#xe2;" horiz-adv-x="491" 
d="M296 423q-3 -13 -17 -21.5t-32 -17.5t-37 -20t-32 -29q-20 -29 -28 -69t-7.5 -76.5t9 -63t21.5 -26.5q16 0 33.5 15t31.5 34.5t23 40t9 31.5t-1 30.5t0.5 38.5t6 33t15.5 15t26.5 5t29.5 1t22.5 -19.5t6.5 -56.5q-2 -41 3.5 -75t15.5 -59.5t24 -41t30 -18.5
q22 -4 36.5 1.5t24 13t16.5 13.5t13 3q7 -3 3.5 -17t-16 -30.5t-34.5 -31.5t-52 -19q-45 -8 -76.5 7t-51.5 35q-23 24 -37 56q-10 -24 -28 -42q-15 -16 -39 -29.5t-59 -15.5q-35 -1 -66 22t-49.5 62t-20 90.5t22.5 108.5q16 37 42 63t55.5 42.5t59 24t53 8.5t38 -3.5
t12.5 -12.5zM178 645q-12 -14 -20.5 -26.5t-16.5 -21.5t-17.5 -14.5t-22.5 -6.5q-13 -2 -14.5 11t3 31t12 36t12.5 27q9 21 17.5 32.5t19.5 15t25 -0.5t34 -14q14 -8 34 -28t36 -42.5t23 -42.5t-5 -28t-27.5 0t-32 22t-32 29t-28.5 21z" />
    <glyph glyph-name="atilde" unicode="&#xe3;" horiz-adv-x="489" 
d="M296 423q-3 -13 -17 -21.5t-32 -17.5t-37 -20t-32 -29q-20 -29 -28 -69t-7.5 -76.5t9 -63t21.5 -26.5q16 0 33.5 15t31.5 34.5t23 40t9 31.5t-1 30.5t0.5 38.5t6 33t15.5 15t26.5 5t29.5 1t22.5 -19.5t6.5 -56.5q-2 -41 3.5 -75t15.5 -59.5t24 -41t30 -18.5
q22 -4 36.5 1.5t24 13t16.5 13.5t13 3q7 -3 3.5 -17t-16 -30.5t-34.5 -31.5t-52 -19q-45 -8 -76.5 7t-51.5 35q-23 24 -37 56q-10 -24 -28 -42q-15 -16 -39 -29.5t-59 -15.5q-35 -1 -66 22t-49.5 62t-20 90.5t22.5 108.5q16 37 42 63t55.5 42.5t59 24t53 8.5t38 -3.5
t12.5 -12.5z" />
    <glyph glyph-name="adieresis" unicode="&#xe4;" horiz-adv-x="489" 
d="M296 423q-3 -13 -17 -21.5t-32 -17.5t-37 -20t-32 -29q-20 -29 -28 -69t-7.5 -76.5t9 -63t21.5 -26.5q16 0 33.5 15t31.5 34.5t23 40t9 31.5t-1 30.5t0.5 38.5t6 33t15.5 15t26.5 5t29.5 1t22.5 -19.5t6.5 -56.5q-2 -41 3.5 -75t15.5 -59.5t24 -41t30 -18.5
q22 -4 36.5 1.5t24 13t16.5 13.5t13 3q7 -3 3.5 -17t-16 -30.5t-34.5 -31.5t-52 -19q-45 -8 -76.5 7t-51.5 35q-23 24 -37 56q-10 -24 -28 -42q-15 -16 -39 -29.5t-59 -15.5q-35 -1 -66 22t-49.5 62t-20 90.5t22.5 108.5q16 37 42 63t55.5 42.5t59 24t53 8.5t38 -3.5
t12.5 -12.5zM303 654q9 19 23 20t26 -9t18 -26.5t-1 -30.5q-10 -20 -22 -20.5t-22.5 10t-17 27t-4.5 29.5q1 5 0.5 0t-1.5 -10l-1 -5zM114 663q17 15 33 15t27 -24q4 -6 12 -13t16 -14.5t13.5 -15.5t4.5 -17q-4 -18 -15.5 -25.5t-26.5 -6.5t-30.5 9t-26 22t-14 32t6.5 38
q2 2 -1 -4.5t-6 -11.5t-2.5 -3.5t9.5 19.5z" />
    <glyph glyph-name="aring" unicode="&#xe5;" horiz-adv-x="492" 
d="M296 423q-3 -13 -17 -21.5t-32 -17.5t-37 -20t-32 -29q-20 -29 -28 -69t-7.5 -76.5t9 -63t21.5 -26.5q16 0 33.5 15t31.5 34.5t23 40t9 31.5t-1 30.5t0.5 38.5t6 33t15.5 15t26.5 5t29.5 1t22.5 -19.5t6.5 -56.5q-2 -41 3.5 -75t15.5 -59.5t24 -41t30 -18.5
q22 -4 36.5 1.5t24 13t16.5 13.5t13 3q7 -3 3.5 -17t-16 -30.5t-34.5 -31.5t-52 -19q-45 -8 -76.5 7t-51.5 35q-23 24 -37 56q-10 -24 -28 -42q-15 -16 -39 -29.5t-59 -15.5q-35 -1 -66 22t-49.5 62t-20 90.5t22.5 108.5q16 37 42 63t55.5 42.5t59 24t53 8.5t38 -3.5
t12.5 -12.5zM322 595q-16 -22 -38.5 -33t-45.5 -12t-43 7t-31 25q-26 25 -31 61t20 74q11 24 35 34t44 9q44 -2 68.5 -21t33.5 -45.5t5 -53.5t-17 -45zM262 607q19 12 21.5 28t-5 28.5t-21 17t-25.5 -6.5q-18 -12 -21 -27t4 -26.5t20 -16.5t27 3z" />
    <glyph glyph-name="ae" unicode="&#xe6;" horiz-adv-x="646" 
d="M545 426q10 -17 10.5 -32t-6 -28.5t-19 -26t-27.5 -24.5q-17 -13 -37.5 -22.5t-38.5 -16.5t-30 -12t-12 -9q-4 -9 -6.5 -26.5t-2 -38.5t4 -43.5t13 -40.5t25.5 -29.5t40 -10.5q38 3 65 25.5t50 56.5q8 12 17.5 28.5t20 30.5t21 23t21.5 7q8 -2 8.5 -22.5t-8 -50
t-27 -62.5t-46.5 -60q-17 -19 -46.5 -34t-62.5 -21t-65.5 -1t-55.5 27q-26 17 -48.5 23.5t-53.5 -10.5q-32 -23 -66 -28t-64 2t-52 23t-30 35q-4 11 -6.5 30.5t1.5 43t16 48.5t36 48.5t63 43t97 31.5q-2 19 -5 46t-10 52.5t-19 44.5t-31 21q-19 -2 -30 -14.5t-20 -27.5
t-18 -29t-24 -18q-19 -3 -36.5 2t-29.5 15.5t-15.5 24.5t5.5 29q30 50 77.5 72t97.5 8q23 -7 46 -21.5t41.5 -31t29.5 -31t11 -20.5q5 38 34.5 56.5t67 18.5t74.5 -19t55 -55zM476 387q0 4 -8 12.5t-20.5 15.5t-27 9t-27.5 -6q-14 -17 -19 -40t-1 -45q2 -4 18.5 1.5t35 15
t34 20.5t15.5 17zM187 225q-15 -15 -26.5 -36.5t-14 -44t6 -43.5t31.5 -34q20 -8 33.5 0.5t21 26.5t10.5 42t3.5 48t-1 44t-2.5 30q-5 0 -23.5 -8t-38.5 -25z" />
    <glyph glyph-name="ccedilla" unicode="&#xe7;" horiz-adv-x="450" 
d="M296 15q-2 0 -3 -8.5t-3.5 -23t-8 -34.5t-15.5 -43q-31 -74 -59.5 -81t-36.5 50q-5 24 0.5 46.5t14.5 41t17 31.5t8 18q-33 11 -62 26q-26 13 -51.5 30.5t-39.5 38.5q-22 33 -31.5 82.5t-5.5 101t22 98.5t50 76q31 25 64 35t67 8t68 -13t67 -27q10 -4 19.5 -14
t13.5 -20.5t0 -19.5t-20 -11q-18 -1 -33 6.5t-29 16.5t-28.5 15t-32.5 2q-31 -6 -52.5 -28.5t-34 -54t-15.5 -68.5t2.5 -70.5t20 -61t37.5 -40.5q35 -19 61.5 -20.5t46.5 6t34.5 21.5t25.5 26q9 9 15 17.5t12.5 15.5t14.5 10.5t21 1.5q15 0 16 -11.5t-4 -25.5
q-6 -17 -18 -37q-30 -47 -61.5 -72.5t-73.5 -36.5z" />
    <glyph glyph-name="egrave" unicode="&#xe8;" horiz-adv-x="390" 
d="M56 387q15 27 38.5 46.5t51 31.5t58 17t59.5 4q30 -2 51 -20.5t29.5 -47t2 -62.5t-31.5 -68q-28 -38 -57.5 -55.5t-54.5 -25.5q-29 -9 -58 -7q-2 -37 6 -65q3 -12 8.5 -23t14.5 -19t21.5 -12t29.5 -2q36 5 59 23t38.5 38t25.5 35.5t20 15.5q7 0 9 -18.5t-3.5 -45
t-19.5 -56t-39.5 -51.5t-63.5 -31.5t-91 4.5q-48 12 -77 45.5t-44 69.5q-18 41 -24 91q-4 28 0 59q2 26 11.5 60t30.5 69zM146 275q16 0 33 4q14 4 31 14t32 30q14 20 20 36t8 27q3 12 1 22q-20 -2 -38 -8q-16 -5 -32 -15.5t-26 -29.5q-12 -22 -18 -37t-8 -25q-3 -11 -3 -18
zM192 589q-11 7 -25.5 19t-26 26t-17 27t1.5 22q5 6 20 5t34 -6.5t39.5 -15.5t37 -23t26.5 -27.5t7 -30.5q-5 -12 -16.5 -15.5t-26 -1.5t-29.5 8.5t-25 12.5z" />
    <glyph glyph-name="eacute" unicode="&#xe9;" horiz-adv-x="391" 
d="M56 387q15 27 38.5 46.5t51 31.5t58 17t59.5 4q30 -2 51 -20.5t29.5 -47t2 -62.5t-31.5 -68q-28 -38 -57.5 -55.5t-54.5 -25.5q-29 -9 -58 -7q-2 -37 6 -65q3 -12 8.5 -23t14.5 -19t21.5 -12t29.5 -2q36 5 59 23t38.5 38t25.5 35.5t20 15.5q7 0 9 -18.5t-3.5 -45
t-19.5 -56t-39.5 -51.5t-63.5 -31.5t-91 4.5q-48 12 -77 45.5t-44 69.5q-18 41 -24 91q-4 28 0 59q2 26 11.5 60t30.5 69zM146 275q16 0 33 4q14 4 31 14t32 30q14 20 20 36t8 27q3 12 1 22q-20 -2 -38 -8q-16 -5 -32 -15.5t-26 -29.5q-12 -22 -18 -37t-8 -25q-3 -11 -3 -18
zM242 621q-11 -8 -27.5 -17t-33.5 -14.5t-31.5 -5.5t-19.5 9q-5 10 10 34t40 46.5t53 35.5t48 1q10 -9 8.5 -21.5t-9 -25t-18.5 -24t-20 -18.5z" />
    <glyph glyph-name="ecircumflex" unicode="&#xea;" horiz-adv-x="390" 
d="M56 387q15 27 38.5 46.5t51 31.5t58 17t59.5 4q30 -2 51 -20.5t29.5 -47t2 -62.5t-31.5 -68q-28 -38 -57.5 -55.5t-54.5 -25.5q-29 -9 -58 -7q-2 -37 6 -65q3 -12 8.5 -23t14.5 -19t21.5 -12t29.5 -2q36 5 59 23t38.5 38t25.5 35.5t20 15.5q7 0 9 -18.5t-3.5 -45
t-19.5 -56t-39.5 -51.5t-63.5 -31.5t-91 4.5q-48 12 -77 45.5t-44 69.5q-18 41 -24 91q-4 28 0 59q2 26 11.5 60t30.5 69zM146 275q16 0 33 4q14 4 31 14t32 30q14 20 20 36t8 27q3 12 1 22q-20 -2 -38 -8q-16 -5 -32 -15.5t-26 -29.5q-12 -22 -18 -37t-8 -25q-3 -11 -3 -18
zM189 638q-12 -14 -20.5 -26.5t-16.5 -21.5t-17.5 -14.5t-22.5 -6.5q-13 -2 -14.5 11t3 31t12 36t12.5 27q9 21 17.5 32.5t19.5 15t25 -0.5t34 -14q14 -8 34 -28t36 -42.5t23 -42.5t-5 -28t-27.5 0t-32 22t-32 29t-28.5 21z" />
    <glyph glyph-name="edieresis" unicode="&#xeb;" horiz-adv-x="391" 
d="M56 387q15 27 38.5 46.5t51 31.5t58 17t59.5 4q30 -2 51 -20.5t29.5 -47t2 -62.5t-31.5 -68q-28 -38 -57.5 -55.5t-54.5 -25.5q-29 -9 -58 -7q-2 -37 6 -65q3 -12 8.5 -23t14.5 -19t21.5 -12t29.5 -2q36 5 59 23t38.5 38t25.5 35.5t20 15.5q7 0 9 -18.5t-3.5 -45
t-19.5 -56t-39.5 -51.5t-63.5 -31.5t-91 4.5q-48 12 -77 45.5t-44 69.5q-18 41 -24 91q-4 28 0 59q2 26 11.5 60t30.5 69zM146 275q16 0 33 4q14 4 31 14t32 30q14 20 20 36t8 27q3 12 1 22q-20 -2 -38 -8q-16 -5 -32 -15.5t-26 -29.5q-12 -22 -18 -37t-8 -25q-3 -11 -3 -18
zM265 687q9 19 23 20t26 -9t18 -26.5t-1 -30.5q-10 -20 -22 -20.5t-22.5 10t-17 27t-4.5 29.5q1 5 0.5 0t-1.5 -10l-1 -5zM76 696q17 15 33 15t27 -24q4 -6 12 -13t16 -14.5t13.5 -15.5t4.5 -17q-4 -18 -15.5 -25.5t-26.5 -6.5t-30.5 9t-26 22t-14 32t6.5 38q2 2 -1 -4.5
t-6 -11.5t-2.5 -3.5t9.5 19.5z" />
    <glyph glyph-name="igrave" unicode="&#xec;" horiz-adv-x="302" 
d="M6 186q8 11 15 20.5t13.5 22t12 29.5t9.5 42t5 46.5t3 37t7 25.5t18 13q12 2 33.5 8t41 6t32 -11.5t6.5 -44.5q-3 -13 -5.5 -38t-4.5 -55.5t-1.5 -63t4.5 -60.5t12.5 -48t23.5 -26q30 -12 49.5 0t40.5 38q9 11 19 18.5t16.5 6t5.5 -14t-15 -42.5q-28 -60 -72 -79.5
t-104 -7.5q-33 7 -53 32t-31 52.5t-16 50.5t-9 25q-5 3 -8.5 1.5t-7.5 -5t-10 -7.5t-15 -6q-21 -4 -24.5 6.5t9.5 28.5zM150 591q-11 7 -25.5 19t-26 26t-17 27t1.5 22q5 6 20 5t34 -6.5t39.5 -15.5t37 -23t26.5 -28t7 -30q-5 -12 -16.5 -15.5t-26 -1.5t-29.5 8.5t-25 12.5z
" />
    <glyph glyph-name="iacute" unicode="&#xed;" horiz-adv-x="302" 
d="M6 186q8 11 15 20.5t13.5 22t12 29.5t9.5 42t5 46.5t3 37t7 25.5t18 13q12 2 33.5 8t41 6t32 -11.5t6.5 -44.5q-3 -13 -5.5 -38t-4.5 -55.5t-1.5 -63t4.5 -60.5t12.5 -48t23.5 -26q30 -12 49.5 0t40.5 38q9 11 19 18.5t16.5 6t5.5 -14t-15 -42.5q-28 -60 -72 -79.5
t-104 -7.5q-33 7 -53 32t-31 52.5t-16 50.5t-9 25q-5 3 -8.5 1.5t-7.5 -5t-10 -7.5t-15 -6q-21 -4 -24.5 6.5t9.5 28.5zM194 606q-11 -8 -27.5 -17t-33.5 -14.5t-31.5 -5.5t-19.5 9q-5 10 10 34t40 46.5t53 35.5t48 1q10 -9 8.5 -21.5t-9 -25t-18.5 -24t-20 -18.5z" />
    <glyph glyph-name="icircumflex" unicode="&#xee;" horiz-adv-x="302" 
d="M7 186q8 11 15 20.5t13.5 22t12 29.5t9.5 42t5 46.5t3 37t7 25.5t18 13q12 2 33.5 8t41 6t32 -11.5t6.5 -44.5q-3 -13 -5.5 -38t-4.5 -55.5t-1.5 -63t4.5 -60.5t12.5 -48t23.5 -26q30 -12 49.5 0t40.5 38q9 11 19 18.5t16.5 6t5.5 -14t-15 -42.5q-28 -60 -72 -79.5
t-104 -7.5q-33 7 -53 32t-31 52.5t-16 50.5t-9 25q-5 3 -8.5 1.5t-7.5 -5t-10 -7.5t-15 -6q-21 -4 -24.5 6.5t9.5 28.5zM157 649q-14 -12 -25 -22t-20.5 -17t-20 -11t-23.5 -2q-14 1 -12.5 13.5t9.5 29t19.5 33t17.5 24.5q26 37 46 39t55 -26q12 -10 27.5 -33.5t26.5 -49
t13.5 -47t-10.5 -26.5q-14 -5 -27.5 6t-26.5 28t-25.5 34.5t-23.5 26.5z" />
    <glyph glyph-name="idieresis" unicode="&#xef;" horiz-adv-x="297" 
d="M6 186q8 11 15 20.5t13.5 22t12 29.5t9.5 42t5 46.5t3 37t7 25.5t18 13q12 2 33.5 8t41 6t32 -11.5t6.5 -44.5q-3 -13 -5.5 -38t-4.5 -55.5t-1.5 -63t4.5 -60.5t12.5 -48t23.5 -26q30 -12 49.5 0t40.5 38q9 11 19 18.5t16.5 6t5.5 -14t-15 -42.5q-28 -60 -72 -79.5
t-104 -7.5q-33 7 -53 32t-31 52.5t-16 50.5t-9 25q-5 3 -8.5 1.5t-7.5 -5t-10 -7.5t-15 -6q-21 -4 -24.5 6.5t9.5 28.5zM213 673q9 19 23 20t26 -9t18 -26.5t-1 -30.5q-10 -20 -22 -20.5t-22.5 10t-17 27t-4.5 29.5q1 5 0.5 0t-1.5 -10l-1 -5zM24 682q17 15 33 15t27 -24
q4 -6 12 -13t16 -14.5t13.5 -15.5t4.5 -17q-4 -18 -15.5 -25.5t-26.5 -6.5t-30.5 9t-26 22t-14 32t6.5 38q2 2 -1 -4.5t-6 -11.5t-2.5 -3.5t9.5 19.5z" />
    <glyph glyph-name="eth" unicode="&#xf0;" horiz-adv-x="402" 
d="M180 522q0 1 -4 -3.5t-11.5 -10.5t-17.5 -12t-23 -9q-6 -2 -16 -3.5t-20 0t-17 6.5t-5 16q1 10 9 19t17.5 16.5t17.5 12.5t9 6l-9 9t-14.5 16.5t-13.5 20t-4 20.5q3 9 17.5 8.5t32 -5t32.5 -11t18 -9.5q1 0 6.5 2t13 5t14.5 6t12 5q21 12 39 14.5t30.5 -0.5t19.5 -9
t6 -10q-14 -19 -35 -34t-37 -27q20 -17 41 -35.5t37 -40.5q7 -11 12.5 -21.5t9.5 -21.5q1 -2 7.5 -2.5t16 -2.5t20.5 -7.5t21 -17.5q-5 -12 -12 -17.5t-13 -8.5t-10.5 -4.5t-3.5 -4.5q7 -20 11 -52.5t3.5 -68.5t-6.5 -69.5t-18 -55.5q-20 -37 -39.5 -63.5t-43.5 -44.5
t-55 -29t-72 -16q-33 -4 -55 5t-35.5 26.5t-20.5 41t-8.5 49t1 50t7.5 44.5q9 45 29 78t48 59t62 47t70 42q-12 31 -31.5 57t-39.5 45zM213 95q21 21 39.5 52.5t30 65t12.5 66t-12 56.5q-26 -17 -53 -30.5t-52 -29.5t-46 -37.5t-35 -54.5q-8 -22 -9.5 -47.5t4.5 -44.5
q6 -17 22 -22t35 -2.5t36.5 11t27.5 17.5q5 6 1.5 2.5l-8 -8l-5 -5t11.5 10.5z" />
    <glyph glyph-name="ntilde" unicode="&#xf1;" 
d="M39 365q-4 -7 -7 -33t-4.5 -61.5t-2 -75t0.5 -74t3.5 -59t6.5 -28.5q7 -6 24.5 -10t36 -4t34.5 4t21 15q4 10 5 31t4.5 48t13.5 58t31 62q18 27 33.5 41.5t27.5 13.5t19.5 -20t9.5 -58q5 -109 38 -176.5t108 -77.5q38 -5 67.5 8.5t49 32.5t28 37t4.5 22q-5 3 -16.5 -2.5
t-27 -13t-33 -12t-35.5 0.5q-22 5 -33.5 24t-18 46t-9 59t-5 63.5t-7.5 60t-15 47.5q-15 28 -34.5 42t-40.5 15.5t-41.5 -6.5t-37.5 -23q-18 -16 -35 -38.5t-30 -43.5q-15 -25 -28 -51q1 51 -1 91q-1 17 -2 33.5t-3.5 29.5t-5 21t-6.5 8q-8 0 -20.5 -3.5t-25 -10t-24 -15
t-17.5 -18.5zM268 576q-11 14 -17.5 23t-11 14t-9 6.5t-12.5 1.5q-16 0 -23 -8t-9 -21q-4 -14 -17.5 -22t-26.5 -3q-16 6 -19 20t-1 25q1 12 8 27t18.5 28.5t27 23t33.5 9.5q22 0 35.5 -3.5t23.5 -10.5t19.5 -18t23.5 -27q13 -15 24.5 -14t20.5 8t16.5 16.5t12.5 12.5
q9 -11 12.5 -28t-4.5 -46q-4 -16 -12 -27t-28 -17q-26 -8 -47.5 0.5t-37.5 29.5z" />
    <glyph glyph-name="ograve" unicode="&#xf2;" horiz-adv-x="401" 
d="M274 429q46 -28 71 -68.5t32.5 -85t-2.5 -88.5t-33.5 -79.5t-59.5 -58.5t-82 -24q-58 -1 -97.5 25.5t-60.5 67.5t-24.5 89.5t10.5 91t46 72.5t80 33q44 3 64 9.5t29 12t12.5 7.5t14.5 -4zM157 342q-6 -6 -10 -29t-5.5 -54t0.5 -65t7.5 -62t15.5 -46t24 -16t27 18.5
t23.5 41t17 54t8 57.5t-3.5 51t-17 35q-28 29 -47.5 31.5t-39.5 -16.5zM179 591q-11 7 -25.5 19t-26 26t-17 27t1.5 22q5 6 20 5t34 -6.5t39.5 -15.5t37 -23t26 -28t7.5 -30q-5 -12 -16.5 -15.5t-26 -1.5t-29.5 8.5t-25 12.5z" />
    <glyph glyph-name="oacute" unicode="&#xf3;" horiz-adv-x="401" 
d="M274 429q46 -28 71 -68.5t32.5 -85t-2.5 -88.5t-33.5 -79.5t-59.5 -58.5t-82 -24q-58 -1 -97.5 25.5t-60.5 67.5t-24.5 89.5t10.5 91t46 72.5t80 33q44 3 64 9.5t29 12t12.5 7.5t14.5 -4zM157 342q-6 -6 -10 -29t-5.5 -54t0.5 -65t7.5 -62t15.5 -46t24 -16t27 18.5
t23.5 41t17 54t8 57.5t-3.5 51t-17 35q-28 29 -47.5 31.5t-39.5 -16.5zM251 616q-11 -8 -27.5 -17t-33.5 -14.5t-31.5 -5.5t-19.5 9q-5 10 10 34t40 46.5t53 35.5t48 1q10 -9 8.5 -21.5t-9 -25t-18.5 -24t-20 -18.5z" />
    <glyph glyph-name="ocircumflex" unicode="&#xf4;" horiz-adv-x="401" 
d="M274 429q46 -28 71 -68.5t32.5 -85t-2.5 -88.5t-33.5 -79.5t-59.5 -58.5t-82 -24q-58 -1 -97.5 25.5t-60.5 67.5t-24.5 89.5t10.5 91t46 72.5t80 33q44 3 64 9.5t29 12t12.5 7.5t14.5 -4zM157 342q-6 -6 -10 -29t-5.5 -54t0.5 -65t7.5 -62t15.5 -46t24 -16t27 18.5
t23.5 41t17 54t8 57.5t-3.5 51t-17 35q-28 29 -47.5 31.5t-39.5 -16.5zM186 625q-13 -14 -22.5 -25.5t-18.5 -19.5t-18.5 -13t-22.5 -5q-13 -1 -13.5 11.5t5.5 30t14.5 35.5t13.5 27q10 20 19.5 31t20.5 13.5t25 -2.5t33 -16q14 -9 32.5 -30t33 -45t20 -44.5t-7.5 -27.5
q-12 -7 -27 2t-30.5 24t-30 31t-26.5 23z" />
    <glyph glyph-name="otilde" unicode="&#xf5;" horiz-adv-x="401" 
d="M274 429q46 -28 71 -68.5t32.5 -85t-2.5 -88.5t-33.5 -79.5t-59.5 -58.5t-82 -24q-58 -1 -97.5 25.5t-60.5 67.5t-24.5 89.5t10.5 91t46 72.5t80 33q44 3 64 9.5t29 12t12.5 7.5t14.5 -4zM157 342q-6 -6 -10 -29t-5.5 -54t0.5 -65t7.5 -62t15.5 -46t24 -16t27 18.5
t23.5 41t17 54t8 57.5t-3.5 51t-17 35q-28 29 -47.5 31.5t-39.5 -16.5zM210 598q-9 12 -14 19t-9 11t-7.5 5.5t-10.5 1.5q-14 0 -19.5 -6.5t-7.5 -17.5q-3 -12 -14 -18.5t-22 -2.5q-13 5 -15.5 16.5t-0.5 20.5q1 10 6.5 22.5t15 23.5t22 19t27.5 8q18 0 29 -3t19.5 -9
t16 -15t19.5 -22q11 -12 20.5 -11.5t17 6.5t13.5 14t10 10q8 -9 11 -23t-4 -38q-3 -13 -9.5 -22t-23.5 -14q-22 -7 -39.5 0.5t-30.5 24.5z" />
    <glyph glyph-name="odieresis" unicode="&#xf6;" horiz-adv-x="401" 
d="M274 429q46 -28 71 -68.5t32.5 -85t-2.5 -88.5t-33.5 -79.5t-59.5 -58.5t-82 -24q-58 -1 -97.5 25.5t-60.5 67.5t-24.5 89.5t10.5 91t46 72.5t80 33q44 3 64 9.5t29 12t12.5 7.5t14.5 -4zM157 342q-6 -6 -10 -29t-5.5 -54t0.5 -65t7.5 -62t15.5 -46t24 -16t27 18.5
t23.5 41t17 54t8 57.5t-3.5 51t-17 35q-28 29 -47.5 31.5t-39.5 -16.5zM263 680q9 19 23 20t26 -9t18 -26.5t-1 -30.5q-10 -20 -22 -20.5t-22.5 10t-17 27t-4.5 29.5q1 5 0.5 0t-1.5 -10l-1 -5zM74 689q17 15 33 15t27 -24q4 -6 12 -13t16 -14.5t13.5 -15.5t4.5 -17
q-4 -18 -15.5 -25.5t-26.5 -6.5t-30.5 9t-26 22t-14 32t6.5 38q2 2 -1 -4.5t-6 -11.5t-2.5 -3.5t9.5 19.5z" />
    <glyph glyph-name="divide" unicode="&#xf7;" horiz-adv-x="392" 
d="M383 275q-3 -7 -11.5 -11.5t-18.5 -7t-20 -3.5t-16 -1q-15 -5 -27 -12t-23 -14t-24 -12t-31 -6q-20 -2 -51 -5.5t-61.5 -1.5t-54.5 13t-28 38q-4 23 22 37t67.5 20.5t90.5 6t91 -5.5t69.5 -14t25.5 -21zM140 454q1 14 7 18.5t13.5 5.5t14.5 1.5t12 6.5q23 -1 30.5 -14
t5.5 -28.5t-12.5 -28.5t-23.5 -14q-14 -1 -23.5 5t-15 15t-7.5 18t-1 15zM162 117q8 16 27 17t35 -8t22.5 -25.5t-11.5 -34.5q-19 -18 -36 -18t-28 10t-14 26.5t5 32.5z" />
    <glyph glyph-name="oslash" unicode="&#xf8;" horiz-adv-x="536" 
d="M517 604q10 -3 5.5 -22.5t-16.5 -45t-27 -51.5t-25 -42q20 -17 41 -52t32 -79.5t6.5 -94.5t-34.5 -97q-30 -54 -72.5 -80.5t-84.5 -35.5t-77.5 -6.5t-52.5 6.5q-3 3 -11 -7.5t-19 -23t-24 -21.5t-26 -2q-11 10 -8.5 21t6.5 23t4.5 23.5t-12.5 21.5q-27 20 -45.5 46
t-26.5 53q-17 40 -19 82.5t8.5 83t31.5 76.5t51 63q27 22 58 33t61.5 14t59 1t49.5 -5.5t32.5 -6.5t9.5 0q47 74 79 103t46 22zM176 344q-27 -47 -23.5 -97.5t50.5 -90.5q34 60 68 120.5t75 121.5q-7 0 -29 0.5t-49 -4t-53 -15.5t-39 -35zM400 362q-33 -41 -57 -90t-51 -89
q-17 -30 -16.5 -46.5t12.5 -22.5t32.5 -3.5t43.5 9.5q27 14 50.5 45t30.5 71q0 30 -6 53.5t-13.5 39.5t-15 24.5t-10.5 8.5z" />
    <glyph glyph-name="ugrave" unicode="&#xf9;" 
d="M142 388q-1 -10 -2 -34t-1 -54t2 -62t7 -58.5t15 -43.5t26 -16q12 0 25 15.5t24.5 38.5t21.5 50t17.5 51t11.5 40.5t4 18.5q1 12 19 21.5t39.5 11.5t41 -5.5t22.5 -28.5q2 -15 1 -42.5t-2.5 -60t-0.5 -67t8.5 -62t23 -45t43.5 -16.5q24 1 36 10t19.5 19t14 16t19.5 0
q3 -2 3 -12t-5.5 -23.5t-17 -28t-30 -25.5t-45 -16t-62.5 1q-26 4 -44 13.5t-31 22t-20.5 27.5t-11.5 30q-10 35 -5 77q-13 -40 -34 -69q-18 -26 -46.5 -44.5t-69.5 -12.5t-67.5 26.5t-43 49.5t-24.5 63.5t-11 69.5q-3 28 -3 56t2 52t6 41t9 22q6 5 25 11t39.5 6.5
t36.5 -6.5t15 -28zM200 538q-11 7 -25.5 19t-26 26t-17 27t1.5 22q5 6 20 5t34 -6.5t39.5 -15.5t37 -23t26 -28t7.5 -30q-5 -12 -16.5 -15.5t-26 -1.5t-29.5 8.5t-25 12.5z" />
    <glyph glyph-name="uacute" unicode="&#xfa;" 
d="M142 388q-1 -10 -2 -34t-1 -54t2 -62t7 -58.5t15 -43.5t26 -16q12 0 25 15.5t24.5 38.5t21.5 50t17.5 51t11.5 40.5t4 18.5q1 12 19 21.5t39.5 11.5t41 -5.5t22.5 -28.5q2 -15 1 -42.5t-2.5 -60t-0.5 -67t8.5 -62t23 -45t43.5 -16.5q24 1 36 10t19.5 19t14 16t19.5 0
q3 -2 3 -12t-5.5 -23.5t-17 -28t-30 -25.5t-45 -16t-62.5 1q-26 4 -44 13.5t-31 22t-20.5 27.5t-11.5 30q-10 35 -5 77q-13 -40 -34 -69q-18 -26 -46.5 -44.5t-69.5 -12.5t-67.5 26.5t-43 49.5t-24.5 63.5t-11 69.5q-3 28 -3 56t2 52t6 41t9 22q6 5 25 11t39.5 6.5
t36.5 -6.5t15 -28zM277 604q-11 -8 -27.5 -17t-33.5 -14.5t-31.5 -5.5t-19.5 9q-5 10 10 34t40 46.5t53 35.5t48 1q10 -9 8.5 -21.5t-9 -25t-18.5 -24t-20 -18.5z" />
    <glyph glyph-name="ucircumflex" unicode="&#xfb;" 
d="M142 388q-1 -10 -2 -34t-1 -54t2 -62t7 -58.5t15 -43.5t26 -16q12 0 25 15.5t24.5 38.5t21.5 50t17.5 51t11.5 40.5t4 18.5q1 12 19 21.5t39.5 11.5t41 -5.5t22.5 -28.5q2 -15 1 -42.5t-2.5 -60t-0.5 -67t8.5 -62t23 -45t43.5 -16.5q24 1 36 10t19.5 19t14 16t19.5 0
q3 -2 3 -12t-5.5 -23.5t-17 -28t-30 -25.5t-45 -16t-62.5 1q-26 4 -44 13.5t-31 22t-20.5 27.5t-11.5 30q-10 35 -5 77q-13 -40 -34 -69q-18 -26 -46.5 -44.5t-69.5 -12.5t-67.5 26.5t-43 49.5t-24.5 63.5t-11 69.5q-3 28 -3 56t2 52t6 41t9 22q6 5 25 11t39.5 6.5
t36.5 -6.5t15 -28zM232 646q-14 -12 -24 -23t-19.5 -18.5t-19.5 -11.5t-23 -3q-14 0 -13 13t8 30t17.5 34t16.5 25q12 19 22.5 29t21.5 11.5t24.5 -4.5t31.5 -19q13 -9 29.5 -32t29 -48t16 -46t-9.5 -27t-27 4.5t-28.5 27t-27.5 33.5t-25 25z" />
    <glyph glyph-name="udieresis" unicode="&#xfc;" horiz-adv-x="498" 
d="M140 388q-1 -10 -2 -34t-1 -54t2 -62t7 -58.5t15 -43.5t26 -16q12 0 25 15.5t24.5 38.5t21.5 50t17.5 51t11.5 40.5t4 18.5q1 12 19 21.5t39.5 11.5t41 -5.5t22.5 -28.5q2 -15 1 -42.5t-2.5 -60t-0.5 -67t8.5 -62t23 -45t43.5 -16.5q24 1 36 10t19.5 19t14 16t19.5 0
q3 -2 3 -12t-5.5 -23.5t-17 -28t-30 -25.5t-45 -16t-62.5 1q-26 4 -44 13.5t-31 22t-20.5 27.5t-11.5 30q-10 35 -5 77q-13 -40 -34 -69q-18 -26 -46.5 -44.5t-69.5 -12.5t-67.5 26.5t-43 49.5t-24.5 63.5t-11 69.5q-3 28 -3 56t2 52t6 41t9 22q6 5 25 11t39.5 6.5
t36.5 -6.5t15 -28zM325 650q11 24 27.5 24.5t31 -11.5t22 -31.5t-0.5 -36.5q-12 -24 -27 -24.5t-27.5 12t-20 32.5t-5.5 35q1 6 0.5 0t-1.5 -12l-1 -6zM118 661q20 18 39.5 18t32.5 -29q5 -7 15 -15.5t19.5 -17.5t16 -19t5.5 -20q-4 -22 -18.5 -31t-32.5 -8t-36.5 11
t-31.5 26.5t-17 38t8 46.5q2 3 -1.5 -5t-7 -14.5t-3 -4.5t11.5 24z" />
    <glyph glyph-name="yacute" unicode="&#xfd;" horiz-adv-x="460" 
d="M71 414q-11 1 -22.5 -17.5t-17.5 -47t-5.5 -62.5t13 -63t39.5 -48.5t72 -19.5q30 0 54.5 16.5t41.5 36.5q20 24 36 54q28 -92 38 -176q4 -36 4.5 -73t-5.5 -71.5t-20 -63.5t-38 -49q-48 -40 -87 -47t-60.5 7.5t-22.5 44.5t27 65t56.5 57.5t51 37t37 23.5t14.5 17
q1 7 -26 8t-66.5 -9.5t-82.5 -35t-74 -66.5q-32 -42 -36.5 -89.5t10.5 -89.5t44.5 -73.5t67.5 -42.5q40 -11 82 -4.5t81 30t72.5 63.5t55 95.5t29 126.5t-5.5 156q-9 60 -19 104.5t-20 77t-20 54t-19 35.5q-21 32 -42 31q-13 2 -26 -2q-11 -3 -24 -11t-24 -25
q-15 -23 -27.5 -47t-24 -43.5t-23 -31.5t-23.5 -10q-14 1 -18.5 14t-5 32t0.5 41t-2 41.5t-11.5 33.5t-28.5 16zM234 556q-11 -8 -27.5 -17t-33.5 -14.5t-31.5 -5.5t-19.5 9q-5 10 10 34t40 46.5t53 35.5t48 1q10 -9 8.5 -21.5t-9 -25t-18.5 -24t-20 -18.5z" />
    <glyph glyph-name="thorn" unicode="&#xfe;" horiz-adv-x="459" 
d="M45 389q0 24 -0.5 57t5.5 60.5t22 41t49 -1.5q15 -16 22 -42t10 -54t4.5 -55.5t4.5 -46.5q33 12 73 23t79 13t73 -10.5t54 -47.5q16 -24 20.5 -66t-8.5 -85t-47 -77.5t-94 -42.5q-20 0 -46 -1.5t-49 -4.5t-39 -7t-16 -8q3 -11 6 -35.5t3 -54.5t-3.5 -61.5t-14 -54.5
t-29 -34t-47.5 -1q-3 8 -6.5 43t-7 86.5t-7 114t-6 126t-4 122.5t-1.5 104zM387 201q-4 16 -14 37.5t-24 41t-31.5 33t-36.5 13.5q-32 0 -54 -17t-35.5 -42.5t-20 -55t-8 -55t1.5 -42.5t8 -17q28 0 67 6t73 18.5t56 32.5t18 47z" />
    <glyph glyph-name="ydieresis" unicode="&#xff;" horiz-adv-x="460" 
d="M71 414q-11 1 -22.5 -17.5t-17.5 -47t-5.5 -62.5t13 -63t39.5 -48.5t72 -19.5q30 0 54.5 16.5t41.5 36.5q20 24 36 54q28 -92 38 -176q4 -36 4.5 -73t-5.5 -71.5t-20 -63.5t-38 -49q-48 -40 -87 -47t-60.5 7.5t-22.5 44.5t27 65t56.5 57.5t51 37t37 23.5t14.5 17
q1 7 -26 8t-66.5 -9.5t-82.5 -35t-74 -66.5q-32 -42 -36.5 -89.5t10.5 -89.5t44.5 -73.5t67.5 -42.5q40 -11 82 -4.5t81 30t72.5 63.5t55 95.5t29 126.5t-5.5 156q-9 60 -19 104.5t-20 77t-20 54t-19 35.5q-21 32 -42 31q-13 2 -26 -2q-11 -3 -24 -11t-24 -25
q-15 -23 -27.5 -47t-24 -43.5t-23 -31.5t-23.5 -10q-14 1 -18.5 14t-5 32t0.5 41t-2 41.5t-11.5 33.5t-28.5 16zM276 668q9 19 23 20t26 -9t18 -26.5t-1 -30.5q-10 -20 -22 -20.5t-22.5 10t-17 27t-4.5 29.5q1 5 0.5 0t-1.5 -10l-1 -5zM87 677q17 15 33 15t27 -24
q4 -6 12 -13t16 -14.5t13.5 -15.5t4.5 -17q-4 -18 -15.5 -25.5t-26.5 -6.5t-30.5 9t-26 22t-14 32t6.5 38q2 2 -1 -4.5t-6 -11.5t-2.5 -3.5t9.5 19.5z" />
    <glyph glyph-name="dotlessi" unicode="&#x131;" horiz-adv-x="325" 
d="M6 186q8 11 15 20.5t13.5 22t12 29.5t9.5 42t5 46.5t3 37t7 25.5t18 13q12 2 33.5 8t41 6t32 -11.5t6.5 -44.5q-3 -13 -5.5 -38t-4.5 -55.5t-1.5 -63t4.5 -60.5t12.5 -48t23.5 -26q30 -12 49.5 0t40.5 38q9 11 19 18.5t16.5 6t5.5 -14t-15 -42.5q-28 -60 -72 -79.5
t-104 -7.5q-33 7 -53 32t-31 52.5t-16 50.5t-9 25q-5 3 -8.5 1.5t-7.5 -5t-10 -7.5t-15 -6q-21 -4 -24.5 6.5t9.5 28.5z" />
    <glyph glyph-name="Lslash" unicode="&#x141;" 
d="M344 28q-21 2 -38 2t-33 -2.5t-33 -7.5t-37 -12q-13 -4 -24.5 -11.5t-26.5 0.5q-8 4 -18.5 11.5t-21.5 15.5t-21.5 16t-17.5 13q3 25 5.5 64t4 80.5t2.5 80t2 64.5q-12 -5 -24.5 -12t-24 -10.5t-20 -0.5t-13.5 17q-3 9 4 22.5t20 27t28 27t29 22.5q1 11 2 31.5t1.5 45.5
t2 51.5t4.5 50t8 40t14 21.5q10 6 24.5 -1.5t27.5 -20t22 -26.5t8 -20q-4 -32 0.5 -63.5t2.5 -60.5q16 2 33 8t34.5 10.5t35 6t33.5 -4.5q-5 -10 -24 -26.5t-41.5 -34t-43.5 -33t-30 -22.5q-1 -1 -2 -20.5t-2 -49t-2 -65t-1.5 -68.5t-0.5 -58.5v-35.5q33 10 56.5 15
t45.5 5.5t46 -4t58 -13.5q23 -6 45 -18t45 -19q13 -3 19 -9.5t6 -12.5t-7 -10t-20 -2q-4 -6 -142 6z" />
    <glyph glyph-name="lslash" unicode="&#x142;" 
d="M451 154q14 16 22 19.5t11.5 -0.5t3.5 -13t-3 -16q-17 -43 -43 -76q-23 -28 -60 -50.5t-91 -19.5q-47 8 -81 34t-56.5 63.5t-36 83t-19.5 93.5q-3 -2 -5 -2.5t-4 -1.5t-3 -1q-12 -5 -26.5 -8.5t-26 -2.5t-18.5 7t-4 20q2 14 25 32t56 36q-2 40 -1 77t3 65.5t4.5 46.5
t2.5 22q7 42 27 75.5t46.5 56t56 33.5t55.5 9q16 -2 32.5 -10t28 -24.5t14 -42.5t-7.5 -63q-11 -36 -35.5 -64.5t-50 -47.5t-44 -29t-16.5 -9q-1 -5 -1 -11v-30q46 17 82.5 23t47.5 -7q4 -6 -5.5 -16t-28 -22.5t-43 -27t-49.5 -27.5q4 -45 14.5 -95t33.5 -95
q21 -42 48.5 -51.5t54.5 -0.5t51 29.5t39 38.5zM282 668q-24 7 -40 -15.5t-25 -53.5q-11 -36 -16 -84l3 20q15 7 28 17q11 8 23.5 19t21.5 23q5 7 10 18.5t7 23t-0.5 20.5t-11.5 12zM101 561v1v-1z" />
    <glyph glyph-name="OE" unicode="&#x152;" horiz-adv-x="837" 
d="M441 75q-3 0 -11 -9t-25.5 -21t-44.5 -22.5t-67 -13.5q-59 -6 -112 19t-92 71t-60.5 107t-18.5 126q6 115 37.5 189t76.5 115t98 54t103 7q16 0 29 -4t25.5 -9.5t25.5 -11t29 -9.5q31 32 72 44.5t85 6.5q32 0 66 -11.5t58 -29.5q16 -16 19.5 -32t-2 -26.5t-17.5 -11
t-27 15.5q-31 29 -58 36.5t-49.5 -0.5t-39.5 -28t-27.5 -46t-14 -54.5t0.5 -53.5q4 -33 19 -49t35.5 -22t44 -6t43 -1.5t33.5 -9t16 -28.5q3 -16 -14.5 -24.5t-41.5 -15.5t-48.5 -16.5t-36.5 -26.5q-13 -19 -18.5 -42.5t-2.5 -57.5q9 -58 55.5 -82t110.5 -12q27 5 52 18.5
t45 25t34.5 16.5t21.5 -5q8 -6 -1 -27.5t-34 -45.5t-66 -45t-98 -25q-53 -4 -91 7.5t-62.5 27t-38 30.5t-16.5 18zM318 631q-32 10 -57.5 1t-46 -31.5t-35.5 -54t-24.5 -65.5t-14.5 -66.5t-5 -57.5q2 -19 5 -47t9 -59t16 -62.5t25 -56.5t36 -41t50 -16q44 0 70.5 17.5
t45.5 49.5q6 9 8.5 17.5t3 18.5t1.5 23t4 32q6 28 17.5 47.5t22.5 33t19 22t7 13.5q-2 7 -14 16.5t-27.5 22.5t-30 30t-19.5 38q-9 37 -4.5 63.5t4.5 44.5q0 23 -14.5 42t-51.5 25z" />
    <glyph glyph-name="oe" unicode="&#x153;" horiz-adv-x="756" 
d="M774 192q-8 -21 -20 -46.5t-23 -45.5q-3 -4 -8.5 -15.5t-15.5 -26t-25.5 -29.5t-38 -26t-53 -16.5t-70.5 -0.5q-33 4 -59 17.5t-44 28.5t-28.5 26t-11.5 9q-14 -28 -45 -45.5t-69.5 -21.5t-79 8.5t-74 44.5t-54.5 86t-20 134q0 27 10 60.5t30.5 65.5t50.5 58t70 37
q18 6 41 7t45 -1.5t41 -8t30 -12.5q21 -16 29 -43t8 -52.5t-6 -43.5t-13 -17q0 19 -9 39t-23.5 37t-33.5 28.5t-40 13.5q-13 1 -30 -6.5t-34 -23t-31.5 -39t-21.5 -54.5q-4 -15 -6 -40t-0.5 -53.5t6.5 -58t16.5 -53t29.5 -39t44 -15.5q33 -1 54 10.5t33 27.5t16.5 32.5
t5.5 26.5v15t0.5 27t2.5 42.5t7 63.5q2 12 8 33t16.5 44t26 45t36.5 37t48 19.5t61 -8.5q40 -16 54.5 -47t11.5 -67t-19 -72t-37 -63q-6 -8 -15.5 -20.5t-21 -25t-22.5 -24t-20 -17.5q-7 -4 -2.5 -16t16.5 -25.5t29.5 -24t37.5 -10.5q15 0 31 4.5t31.5 12t29.5 17t25 20.5
q10 10 23 24t25.5 26t24 20t19.5 6q-3 -8 -4 -9t-0.5 1t2 5t2.5 3zM492 370q-31 -58 -31 -125q21 23 38.5 52t22.5 60q4 32 -6 35t-24 -22z" />
    <glyph glyph-name="Scaron" unicode="&#x160;" 
d="M362 567q22 3 41.5 -3.5t36 -13.5t29.5 -9.5t24 8.5q20 23 -17 49.5t-116 42.5q-65 11 -120.5 -1.5t-95.5 -41.5t-62 -69.5t-19 -84.5q4 -44 24 -69.5t51 -41t69 -25t77 -20.5t68.5 -30t45 -39t16 -38.5t-17.5 -28.5q-50 -27 -93 -36.5t-79.5 -9t-66.5 7.5t-52.5 14.5
t-39 12t-25.5 -0.5q-14 -8 -6 -32.5t39 -50.5t84 -46.5t129 -19.5q37 0 83.5 17t85 43t61 57t13.5 60q-17 55 -43.5 84t-59 44t-68.5 23t-70 22q-33 15 -57.5 28t-35 29t-4.5 36.5t33 50.5q28 30 48.5 46t36.5 23.5t28.5 9t24.5 3.5zM286 777q15 13 26.5 25.5t22 22.5
t21.5 15.5t25 4.5q15 -1 12.5 -13.5t-12 -29t-22.5 -33.5t-19 -26q-27 -41 -49.5 -44.5t-60.5 25.5q-15 11 -31 31t-26.5 41t-12.5 39t13 24q14 6 29 -3t29 -23.5t28 -30.5t27 -25z" />
    <glyph glyph-name="scaron" unicode="&#x161;" horiz-adv-x="369" 
d="M182 674q15 13 26.5 25.5t22 22.5t21.5 15.5t25 4.5q15 -1 12.5 -13.5t-12 -29t-22.5 -33.5t-19 -26q-27 -41 -49.5 -44.5t-60.5 25.5q-15 11 -31 31t-26.5 41t-12.5 39t13 24q14 6 29 -3t29 -23.5t28 -30.5t27 -25zM264 487q4 -8 -1 -12.5t-14.5 -9t-21.5 -11t-23 -18.5
t-18.5 -31t-7.5 -48q-1 -29 13.5 -56t35.5 -52.5t46 -50t45 -50t31.5 -52t7.5 -54.5q-5 -28 -31.5 -47.5t-64.5 -30t-82 -11.5t-82.5 7.5t-66.5 26.5t-35 46q-11 41 -6.5 69t16.5 46.5t27 29t26 16.5q23 13 30.5 0t-9.5 -41q-8 -14 -4 -31.5t18.5 -33t37 -26.5t51.5 -12
q18 -1 36.5 3.5t30.5 14t14.5 23t-10.5 30.5t-45 43t-65.5 57.5t-59 67t-25.5 71.5q0 71 25.5 104t82.5 43q28 5 46 4.5t28.5 -4.5t15.5 -9.5t8 -10.5z" />
    <glyph glyph-name="Ydieresis" unicode="&#x178;" horiz-adv-x="450" 
d="M75 646q-40 -2 -50 -20.5t-3 -46t25 -61t34 -65.5q22 -42 51.5 -68.5t56.5 -40.5q32 -17 64 -24q-13 -40 -36 -81q-20 -35 -52.5 -79t-83.5 -86q-32 -27 -31 -45.5t23 -24t59 4.5t76 39q67 49 112.5 110.5t74.5 123.5t44 119t20 96q6 42 -9.5 74t-36.5 49.5t-39.5 19
t-19.5 -16.5q-2 -41 -15 -85.5t-27 -82.5q-18 -45 -38 -88q-18 -11 -34 -5q-14 5 -27 29t-21 83q-3 30 -16 61.5t-30.5 56t-36.5 40t-34 14.5zM316 821q11 24 28.5 25t32.5 -12t23 -33.5t0 -38.5q-12 -26 -28 -26t-29 13.5t-21.5 34t-5.5 37.5q1 6 0.5 -0.5t-1.5 -13
t-1.5 -6t2.5 19.5zM76 832q22 19 42 19t34 -30q6 -8 16 -17t20 -19t16.5 -20t5.5 -21q-5 -23 -20 -32.5t-33.5 -8t-38 12t-33 28t-17.5 40t8 48.5q2 3 -2 -5.5t-7 -15t-2.5 -4.5t11.5 25z" />
    <glyph glyph-name="Zcaron" unicode="&#x17d;" horiz-adv-x="495" 
d="M348 804q15 13 26.5 23t22 16.5t21.5 9.5t25 2q15 -1 12.5 -13.5t-12 -29t-22.5 -33.5t-19 -26q-27 -41 -49.5 -44.5t-60.5 25.5q-15 11 -31.5 34.5t-28 49t-13.5 47.5t13 28q14 6 29 -4t30 -26t29.5 -33t27.5 -26zM549 53q-39 -11 -92 -22t-109 -17.5t-109.5 -8
t-93.5 6.5q-15 3 -34.5 7.5t-38.5 12t-34.5 18t-22.5 26.5q-9 20 -2 33t21 22t29.5 16t24.5 16q42 40 81 90t75 104t68.5 109t61.5 105q-23 3 -45.5 4.5t-44.5 4t-44 7.5t-43 16q-14 7 -29.5 25t-23 34.5t-1 25t38.5 -2.5q52 -18 105 -26.5t108 -3.5q17 1 37 1.5t39.5 -2.5
t37.5 -10.5t32 -21.5q7 -7 -3 -32t-31 -61.5t-49.5 -81.5t-59.5 -90.5t-61.5 -89.5t-55 -78.5t-40 -57t-16.5 -25.5q41 -5 75.5 -9t66.5 -5t63.5 2t67.5 12q23 5 48.5 7t46 1t33 -6t10.5 -12.5t-22.5 -18t-64.5 -24.5z" />
    <glyph glyph-name="zcaron" unicode="&#x17e;" horiz-adv-x="445" 
d="M161 653q14 12 24.5 23t20 18.5t19.5 12t23 3.5q14 0 12 -13.5t-11 -30.5t-21 -34t-18 -26q-12 -19 -23 -29t-22.5 -11.5t-25 4.5t-31.5 19q-9 7 -19 20t-19 29t-16 33.5t-10.5 32.5t-1.5 26.5t11 15.5q13 5 27 -5.5t28 -27.5t27.5 -34.5t25.5 -25.5zM462 169
q-17 1 -34.5 0t-37.5 -7.5t-45 -18.5t-57 -32q-14 27 -31 41t-32 19q-18 6 -36 6q23 13 44 31q18 16 36 39t27 55q5 20 4.5 42t-11 42.5t-32.5 38t-58 29.5q-39 12 -72 8t-58.5 -18t-43 -34.5t-27 -40.5t-9.5 -37t9 -24q12 -8 27.5 -3t32.5 15.5t35.5 24.5t36.5 22.5t36 9.5
t33 -13q22 -21 20 -39.5t-18 -35.5t-40.5 -33.5t-47 -32.5t-38 -32t-12.5 -33q2 -15 11 -19.5t22.5 -5t29 -0.5t32 -6t31.5 -21.5t26 -47.5q-29 -24 -59 -50.5t-56.5 -55.5t-47 -62t-31.5 -71q-18 -58 -19 -96t9.5 -62.5t28 -37.5t37.5 -20q24 -7 61 -2.5t74.5 26t69.5 63
t47 108.5q12 55 13 102t-3 82q-4 40 -14 75q13 12 29 23q14 10 31 21.5t37 20.5q18 8 33 16t22.5 14.5t4.5 11t-20 5.5zM186 -246q-17 -36 -34 -55.5t-30 -21t-20.5 15.5t-5.5 54q2 36 23.5 77.5t45.5 76.5q28 41 64 82q3 -30 0 -66q-3 -31 -12 -73t-31 -90z" />
    <glyph glyph-name="florin" unicode="&#x192;" 
d="M141 -113q14 7 24 28t17 51.5t10.5 66.5t4 73.5t-1.5 73t-7 63.5q0 7 -18 5.5t-41.5 -3.5t-47 0t-33.5 16q-11 10 -10 20.5t7.5 19.5t17.5 15.5t22 10.5q7 3 20 3.5t27 0.5t27 1t20 4q3 0 3.5 8t0 22.5t-2 33t-1.5 39.5q0 19 -2.5 47t-3.5 60t1 65t10.5 61t25 48.5
t44.5 27.5q18 2 41.5 0t44.5 -7t37 -13t20.5 -17t-6.5 -19t-44 -19q-14 -3 -21 -24t-9 -52.5t-0.5 -68.5t4 -71.5t5 -62t2.5 -39.5q0 -3 11 -2.5t28 1.5t37 2t37.5 -0.5t30.5 -6t15 -13.5q0 -7 -4.5 -15.5t-11.5 -16.5t-15 -14.5t-15 -9.5q-11 -3 -29.5 -5t-37.5 -4
t-32.5 -4t-13.5 -6q0 -35 2 -88.5t1.5 -109.5t-7 -106.5t-24.5 -78.5q-17 -28 -43 -50.5t-57.5 -32.5t-67.5 -3t-75 39q-14 10 -24 27.5t-13.5 33.5t0.5 26t18 7q10 -7 18.5 -18t19 -19t26 -10t39.5 9z" />
    <glyph glyph-name="circumflex" unicode="&#x2c6;" horiz-adv-x="391" 
d="M182 627q-16 -20 -27.5 -36.5t-23 -29t-24 -20t-30.5 -9.5t-20 15.5t4 42t16.5 49.5t16.5 38q12 28 24 44t27 21t34.5 -0.5t46.5 -19.5q20 -10 47.5 -37.5t49.5 -58.5t31 -59t-7 -39q-17 -11 -38 0.5t-43.5 30.5t-44 39.5t-39.5 28.5z" />
    <glyph glyph-name="caron" unicode="&#x2c7;" horiz-adv-x="431" 
d="M224 630q19 16 33 30.5t27.5 25t27 16.5t31.5 5q19 -1 16 -18.5t-15.5 -41t-28.5 -46.5t-24 -35q-17 -26 -31.5 -39.5t-30 -16t-34 6t-42.5 26.5q-12 9 -25.5 26.5t-26 39.5t-22.5 45.5t-14 44t-1.5 35.5t14.5 21q18 7 37 -7.5t38 -37t37 -46t34 -34.5z" />
    <glyph glyph-name="breve" unicode="&#x2d8;" horiz-adv-x="398" 
d="M154 657q24 -4 43 9.5t37 30.5t37.5 31t45.5 11q24 -3 30 -21.5t-1.5 -42t-26.5 -47.5t-44 -38q-33 -19 -70.5 -24.5t-70 4t-55.5 35t-27 69.5q-3 39 -0.5 54t9.5 14t17 -13.5t22 -28t26 -28.5t28 -15z" />
    <glyph glyph-name="dotaccent" unicode="&#x2d9;" 
d="M247 751q14 0 27 -8t21.5 -20.5t10.5 -27.5t-5 -28q-10 -18 -31.5 -33t-44.5 -17.5t-42.5 11.5t-25.5 53q-3 22 7 34t25.5 18.5t32 9.5t25.5 8z" />
    <glyph glyph-name="ring" unicode="&#x2da;" horiz-adv-x="254" 
d="M211 596q-9 -20 -26.5 -35.5t-38 -20.5t-42 4.5t-38.5 39.5q-17 26 -17 58t17 59q8 17 25.5 25.5t26.5 8.5q33 0 55.5 -14.5t34.5 -35.5t13 -45.5t-10 -43.5zM159 596q17 13 20 35t-4 39t-22.5 23.5t-34.5 -10.5q-13 -9 -15 -28.5t4.5 -37t20 -26t31.5 4.5z" />
    <glyph glyph-name="ogonek" unicode="&#x2db;" horiz-adv-x="340" 
d="M75 -51q10 41 41 65t64.5 31.5t59.5 -0.5t26 -32q-2 -7 -14.5 -12t-29.5 -10.5t-36 -12t-34.5 -16.5t-24.5 -24t-7 -34q5 -27 19 -36t33 -7.5t40.5 9.5t41 13.5t35 6t22.5 -13.5q3 -10 -6.5 -29t-31.5 -35t-56 -23.5t-78 6.5q-48 20 -63 59.5t-1 94.5z" />
    <glyph glyph-name="tilde" unicode="&#x2dc;" 
d="M191 727q22 -11 36.5 -27t26.5 -29.5t25.5 -21t33.5 -0.5q23 8 33.5 24.5t15 33.5t7 30t10.5 13q10 -1 20.5 -12t17 -28.5t7.5 -38.5t-8 -40.5t-29 -36.5t-56 -26q-28 -7 -48.5 -4.5t-37.5 12.5t-31 26.5t-29 37.5q-15 20 -30.5 18t-31.5 -11t-32 -17.5t-31 -1.5
q-5 10 2.5 32t24.5 41.5t43.5 29.5t60.5 -4z" />
    <glyph glyph-name="hungarumlaut" unicode="&#x2dd;" horiz-adv-x="425" 
d="M287 724q11 8 27.5 6.5t33 -6.5t31.5 -12t23 -10q16 -5 18.5 -11.5t-3.5 -13t-17.5 -13.5t-24 -13.5t-23.5 -11.5t-14 -9q-16 -11 -31 -32.5t-30.5 -40t-32 -27t-35.5 7.5q-11 7 -11 21.5t7 33t18.5 38.5t24 38.5t23.5 33t16 21.5zM22 566q-8 11 -5.5 27t9.5 33t14.5 32
t10.5 23q13 24 27 40.5t30 23.5t35.5 2.5t44.5 -23.5q18 -14 9.5 -29.5t-28.5 -32.5t-44.5 -34t-37.5 -33q-11 -14 -22.5 -21t-21 -9.5t-15.5 -2t-6 3.5z" />
    <glyph glyph-name="endash" unicode="&#x2013;" 
d="M348 361q20 -5 44 -14t41 -17q13 -8 17.5 -19t1.5 -22t-12 -18.5t-22 -7.5q-57 -5 -116 -9.5t-115 -10.5q-31 -2 -52.5 5t-50.5 19q-13 9 -17 20.5t-2 22.5t7.5 19.5t11.5 11.5q5 3 23.5 6.5t44.5 6.5t56 5t58 3t50 1t32 -2z" />
    <glyph glyph-name="emdash" unicode="&#x2014;" 
d="M400 350q20 -5 44 -14t41 -17q13 -8 17.5 -16.5t1.5 -16.5t-12 -13t-22 -5q-42 -8 -91.5 -7.5t-99.5 3t-97 4.5t-84 -4q-31 -2 -52.5 5t-50.5 19q-13 9 -17 18t-2 17t7.5 14t11.5 9q5 3 29 7.5t59.5 8t79 6t86.5 2t83 -5t68 -14.5z" />
    <glyph glyph-name="quoteleft" unicode="&#x2018;" horiz-adv-x="287" 
d="M201 745q3 -55 -7.5 -95.5t-27 -65.5t-35.5 -35t-35 -4q-13 4 -20.5 16.5t-10 30t1 38t11.5 40.5q9 23 28 40t39.5 27t36.5 12t19 -4z" />
    <glyph glyph-name="quoteright" unicode="&#x2019;" horiz-adv-x="273" 
d="M52 567q-3 55 2 92t17 59.5t30 31t42 5.5q24 -6 30 -24t1.5 -39.5t-15 -41t-19.5 -28.5q-8 -13 -22 -25.5t-28 -21.5t-25 -11.5t-13 3.5z" />
    <glyph glyph-name="quotesinglbase" unicode="&#x201a;" horiz-adv-x="297" 
d="M123 131q16 0 26 -3.5t18 -9t17.5 -12.5t25.5 -13q0 -25 -8.5 -46.5t-23 -39.5t-32.5 -32.5t-37 -23.5q-34 -17 -50 -11t-19 24.5t4 45t20 52t29 45.5t30 24z" />
    <glyph glyph-name="quotedblleft" unicode="&#x201c;" horiz-adv-x="402" 
d="M43 590q-22 28 -15.5 60.5t27.5 59t50 41t53 7.5q12 -3 12 -23.5t-7.5 -47.5t-21.5 -54.5t-31 -45t-34.5 -19.5t-32.5 22zM261 556q-15 -1 -26 4.5t-21.5 13.5t-21.5 17t-26 14q-2 22 5 42.5t19 38t28.5 31.5t33.5 23q30 17 45.5 11t21 -24.5t2 -46t-12.5 -53.5
t-21.5 -46.5t-25.5 -24.5q-3 0 -2.5 0h2h2.5t-2 0z" />
    <glyph glyph-name="quotedblright" unicode="&#x201d;" horiz-adv-x="402" 
d="M297 715q21 -26 14.5 -57t-26.5 -56t-47.5 -39.5t-49.5 -7.5q-11 3 -11.5 22.5t7 45t21 52t29 43t32.5 18.5t31 -21zM90 748q14 1 24.5 -4.5t20.5 -13.5t20.5 -16t24.5 -13q1 -22 -5 -41.5t-17.5 -36t-27 -29t-31.5 -21.5q-29 -16 -44 -10.5t-20 23t-2 43.5t11.5 51
t21 44t24.5 24z" />
    <glyph glyph-name="quotedblbase" unicode="&#x201e;" horiz-adv-x="378" 
d="M344 102q22 -31 13.5 -66t-33 -62.5t-57 -42t-57.5 -5.5q-13 4 -12 26.5t11 51t27 57.5t36 47.5t38 19.5t34 -26zM109 152q16 0 28 -7t23 -16.5t22.5 -19.5t27.5 -16q0 -25 -8.5 -46.5t-23 -39.5t-32.5 -32.5t-37 -23.5q-34 -17 -51 -9.5t-21.5 28t0.5 50.5t16.5 57.5
t26.5 49t29 25.5z" />
    <glyph glyph-name="dagger" unicode="&#x2020;" horiz-adv-x="474" 
d="M462 453q1 -9 -7.5 -22.5t-22.5 -26t-32 -21.5t-35 -9q-35 -2 -56.5 -2.5t-18.5 -8.5q4 -67 4.5 -130.5t-2.5 -113.5t-9.5 -81.5t-15.5 -34.5q-24 -10 -43 6t-32 61t-19 119.5t-3 181.5q-14 0 -33.5 0.5t-39.5 2t-40 4t-35 6.5q-10 1 -12.5 8.5t-1 16.5t6.5 17.5t10 12.5
q13 12 30.5 16t36 5t37.5 0.5t34 1.5q4 1 5 18t1.5 42t0.5 54.5t2.5 56t8 46.5t16.5 26q31 -6 47.5 -22t24 -38t7.5 -48.5t-0.5 -52.5t0 -50t7.5 -41q15 -1 44.5 3.5t59 8t52 2.5t23.5 -14z" />
    <glyph glyph-name="daggerdbl" unicode="&#x2021;" horiz-adv-x="483" 
d="M478 459q1 -10 -6 -21t-20 -20t-30 -15t-35 -6q-38 -2 -60.5 -2.5t-19.5 -8.5q1 -13 1 -36.5t-0.5 -51.5t-1.5 -57.5t-2 -53.5t-2 -39.5t-2 -15.5q-2 0 10.5 -1t31.5 -2.5t40.5 -4t36.5 -6t20 -7.5t-8 -8q-14 -4 -25.5 -9t-25 -10t-32.5 -10.5t-48 -10.5q-1 0 -2.5 -21
t-4 -53t-6 -70t-7 -71.5t-8 -57.5t-8.5 -29q-19 1 -32.5 19.5t-22.5 47t-14 63t-7.5 66.5t-3 57.5t-0.5 37.5q0 3 -8 4t-22 1.5t-32.5 1.5t-39.5 4q-15 1 -31.5 5.5t-26 12.5t-8 19t21.5 25q11 8 29 12t37.5 6t39 2.5t33.5 0.5q1 0 1.5 16.5t0.5 42t0.5 56t0.5 58v48.5v27
q-15 0 -35 0.5t-41.5 2t-42.5 4.5t-37 7q-11 1 -14 9t-1 17.5t7.5 18.5t10.5 13q14 12 32.5 16.5t38 5.5t39 0.5t36.5 2.5q4 1 5.5 19t1.5 44.5v57.5t2.5 59.5t8.5 49.5t18 27q33 -6 50.5 -23t25 -40.5t8 -51.5t-0.5 -56t-0.5 -53t8.5 -43q22 -8 40 -8.5t40 -2.5
q28 -3 52 -7t46 -4q0 -6 -2.5 -3t2.5 3z" />
    <glyph glyph-name="bullet" unicode="&#x2022;" 
d="M290 416q17 0 33.5 -10t27 -26t13.5 -34.5t-6 -34.5q-13 -22 -40 -40.5t-55.5 -22t-53 14t-31.5 66.5q-4 27 8.5 42t31.5 23t39.5 12t32.5 10z" />
    <glyph glyph-name="ellipsis" unicode="&#x2026;" horiz-adv-x="526" 
d="M436 21q-23 14 -30.5 29.5t17.5 34.5q12 8 27 5t28 -11t20.5 -18.5t4.5 -18.5t-10.5 -15t-16.5 -10.5t-19.5 -3t-20.5 7.5zM331 24q-7 -14 -24.5 -22.5t-33.5 0.5q-18 9 -24 22t-3.5 26.5t10.5 25.5t18.5 19t21 7.5t17.5 -8.5q1 -9 6.5 -17.5t10 -16.5t6 -17t-4.5 -19z
M162 -1q-25 -16 -45 -8t-31 26.5t-12 41t12 35.5q7 8 21 8t28.5 -6.5t27.5 -18t19 -24.5t2 -27.5t-22 -26.5z" />
    <glyph glyph-name="perthousand" unicode="&#x2030;" horiz-adv-x="761" 
d="M766 144q-3 -34 -23 -66.5t-48.5 -52t-63 -20t-67.5 29.5q-12 12 -22 36.5t-14 52.5t-0.5 54t18.5 41q12 14 39 15t54.5 -1t49 -2.5t24.5 10.5q7 -3 17 -13t19 -23.5t14.5 -29.5t2.5 -31zM694 136q2 16 -3 30t-15.5 23.5t-26 12t-34.5 -3.5q-12 -4 -19.5 -16t-10 -28
t-1 -32.5t8.5 -29.5t19 -19.5t29 -1.5q27 5 40 25.5t13 39.5zM478 161q20 -24 12.5 -49.5t-27.5 -46.5t-46 -36t-44 -19q-35 -9 -61 9t-40.5 49t-16 66.5t13 61.5t46 34.5t84.5 -15.5q1 -2 11 -7t23 -12.5t25.5 -16t19.5 -18.5zM402 86q4 8 -7 20t-26.5 23t-30.5 20t-19 12
q-11 -16 -11 -41.5t11 -45.5q19 -8 44 -5t39 17zM469 445q-17 -25 -47 -57t-67.5 -67t-78.5 -71t-79.5 -69t-71 -61.5t-52.5 -48.5q-24 -24 -35.5 -24.5t-13.5 11.5t3 32.5t14 38.5q18 41 44 76.5t54 71.5q12 16 27 31.5t31 30.5t31 31t26 34q10 18 36 48.5t57 61.5t61.5 55
t50.5 28q0 -3 6.5 -18.5t11.5 -38t5 -48t-13 -47.5zM185 657q43 -15 62.5 -48t20.5 -73t-13.5 -80.5t-39.5 -70t-57.5 -41.5t-66.5 6q-29 13 -44 34.5t-21 47t-4 53.5t7 55q3 23 16.5 45.5t34 38.5t46 21.5t52.5 -4.5q5 4 4 9t3 7zM163 411q12 13 20 33t12 42.5t2.5 44.5
t-9.5 39t-23 25.5t-38 3.5q-22 -5 -33.5 -26t-13.5 -49t3.5 -56.5t17 -47.5t27.5 -24t35 15q8 9 7.5 9t-3.5 -3.5t-5.5 -6.5t1.5 1z" />
    <glyph glyph-name="guilsinglleft" unicode="&#x2039;" horiz-adv-x="369" 
d="M210 106q-40 16 -78 44t-61.5 61.5t-25 69t31.5 65.5q17 15 39 36.5t47 39t51 26t52 -1.5q25 -11 27.5 -26.5t-9 -34t-33 -38.5t-44 -37.5t-41.5 -32.5t-27 -23q11 -7 30.5 -17.5t41.5 -23.5t44 -28t38 -31q5 -7 11 -15.5t9.5 -16t4 -14.5t-4.5 -11q-15 -11 -44.5 -6.5
t-58.5 15.5z" />
    <glyph glyph-name="guilsinglright" unicode="&#x203a;" horiz-adv-x="369" 
d="M70 144q12 21 33.5 47.5t43 50.5t38.5 41.5t20 21.5q-7 4 -25 13t-40 21t-42.5 26t-32 29t-8.5 29.5t28 27.5q22 12 48 4t51 -24.5t46.5 -36t34.5 -32.5q32 -32 36.5 -61t-9 -55.5t-39 -49t-53 -41.5t-53 -33.5t-37.5 -25.5q-12 -9 -22.5 -7t-17 10t-7.5 20t7 25z" />
    <glyph glyph-name="fraction" unicode="&#x2044;" horiz-adv-x="522" 
d="M121 39q-17 -9 -30 -9t-22.5 7.5t-14 20.5t-4.5 30q-1 30 15 63.5t38.5 66.5t47 62.5t40.5 50.5q45 57 90 111.5t87 112.5q6 7 15 23.5t20.5 35t24 35.5t25 26.5t24 7t20.5 -22.5q14 -28 9.5 -60.5t-20.5 -67t-41 -69.5t-51 -67.5t-51 -60.5t-41 -48q-18 -21 -46.5 -53.5
t-56 -67.5t-50 -69t-28.5 -58q-4 -3 -4.5 -2t0.5 2.5t2.5 2.5t1.5 -3z" />
    <glyph glyph-name="Euro" unicode="&#x20ac;" horiz-adv-x="608" 
 />
    <glyph glyph-name="trademark" unicode="&#x2122;" horiz-adv-x="675" 
d="M531 623q-10 -9 -14.5 -25t-7 -34t-5.5 -35.5t-10 -29t-20 -14.5t-35 8q-21 12 -35.5 30.5t-27 38.5t-25.5 39.5t-31 33.5q-4 -21 -7 -46t-2 -50.5t5.5 -49.5t15.5 -43q13 -16 7.5 -22t-19 -3t-29 13.5t-21.5 28.5q-7 20 -9.5 51t0 63.5t10.5 61t23 43.5q16 4 24.5 8
t14 3t12 -8t20.5 -23q17 -23 36.5 -43.5t37.5 -42.5q4 18 11.5 37.5t19 36t27 27.5t36.5 11q26 -6 49.5 -31.5t42.5 -56.5t31 -60t14 -41q3 -26 -3 -47.5t-16 -37t-20.5 -22.5t-17.5 -3q-19 9 -31.5 42t-21.5 72t-16 73.5t-13 46.5zM249 635q-24 -7 -44.5 -12t-20.5 -3
q0 1 -0.5 -25t0 -60.5t2 -69t4.5 -49.5q2 -8 -4 -19t-16 -11.5t-21.5 16t-20.5 64.5q-7 36 -10 71.5t-5 70.5q-10 3 -21 4t-23 2t-23 4t-21 11q-27 18 -16.5 31t40.5 19.5t70.5 7t74.5 -5t52 -17t3 -29.5q-5 -1 -5.5 -1t1 1t3.5 1t1 -1z" />
    <glyph glyph-name="minus" unicode="&#x2212;" 
d="M335 352q20 -8 43 -15t40 -15q13 -7 18.5 -18t4 -21.5t-11 -18.5t-25.5 -11q-26 -6 -63.5 -12.5t-81 -8t-90.5 4.5t-91 24q-14 7 -18 18t-2 22.5t8 20t12 11.5q5 3 21 7t39.5 7.5t51 6.5t54.5 4t51 0t40 -6z" />
    <glyph glyph-name="fi" unicode="&#xfb01;" horiz-adv-x="661" 
d="M613 544q-18 -14 -40 -9.5t-37.5 19t-18.5 33.5t19 34q16 12 38.5 7.5t38.5 -18t19 -32t-19 -34.5zM464 220q-41 -20 -77 -33t-63 -21t-43 -13t-16 -10q0 -9 -0.5 -31.5t-1 -51t-2.5 -61t-4.5 -62.5t-6 -53.5t-8.5 -35.5q-5 -13 -12 -12t-14 8.5t-12.5 18t-8.5 15.5
q-3 9 -7 30.5t-7.5 48.5t-7 56t-6.5 54.5t-4.5 43.5t-1.5 22q-6 0 -24 -2t-39.5 -3.5t-41.5 0t-30 9.5q-24 16 -26.5 28.5t8 22.5t31 17.5t43.5 12t44.5 7t34.5 2.5q1 0 1.5 20t0.5 53t1 75t3 85t5.5 84t9.5 72q4 14 8 32t10.5 36t16.5 32.5t25 20.5q13 6 44.5 3.5t67.5 -12
t68.5 -24.5t47.5 -34q5 -8 8.5 -16t3.5 -15.5t-4 -13.5t-14 -9q-17 -5 -32 2.5t-30.5 16t-31 12.5t-31.5 -7q-10 -11 -20 -41.5t-19 -71.5t-16.5 -87.5t-12.5 -88.5t-7 -75.5t1 -48.5q18 3 50 9t64.5 16.5t58 25t29.5 33.5q10 35 21 57t9 20q7 3 19.5 -0.5t25 -10.5
t23.5 -15t16 -14q10 -9 10 -20.5t-4 -24t-9.5 -24.5t-6.5 -22q-2 -8 -2.5 -26.5t0.5 -41t3.5 -47t7 -46t10.5 -36.5t15 -18q12 -5 11 -10.5t-9 -10t-19 -8t-17 -4.5q-10 -3 -29.5 5.5t-38 32.5t-31 66t-8.5 107z" />
    <glyph glyph-name="fl" unicode="&#xfb02;" horiz-adv-x="721" 
d="M218 156q0 -9 -0.5 -31.5t-1 -51t-2.5 -61t-4.5 -62.5t-6 -53.5t-8.5 -35.5q-5 -13 -12.5 -15t-16 3.5t-16.5 16.5t-13 25q-3 9 -6.5 35.5t-7 61.5t-6.5 73t-5.5 71t-4 56.5t-1.5 27.5q-6 0 -17.5 -0.5t-25 0t-27.5 3.5t-24 11q-17 17 -11.5 31.5t22.5 25.5t40 17t43 6
q1 0 -0.5 32.5t-2 80.5t1.5 103.5t11 102.5q4 14 8 32t10.5 36t16.5 32.5t25 20.5q13 6 36.5 3.5t49.5 -12t51 -24.5t40 -34q11 -15 11.5 -30.5t-17.5 -23.5q-9 -4 -17 2t-17.5 12.5t-21.5 9t-28 -8.5q-12 -13 -19.5 -50t-12.5 -84.5t-8 -99t-6 -93.5q35 4 62 11t47 14
q23 8 40 17q-1 19 0 45q1 23 4 56.5t10 78.5t17 84.5t29 69.5t48.5 47.5t75.5 17.5q30 -3 51 -20q18 -14 30 -44t5 -82q-10 -69 -35 -119t-52 -82q-32 -38 -69 -62q-7 -27 -5 -60q2 -29 11 -68.5t34 -89.5q15 -30 33 -43.5t37 -15.5t38.5 5t37 18.5t32.5 26t25 26.5
q15 17 23 20.5t12 -1t4 -13.5t-3 -17q-17 -45 -45 -79q-12 -15 -28 -29t-35.5 -24.5t-43.5 -16.5t-52 -4q-36 1 -63.5 14t-48 33.5t-35 46t-23.5 51.5q-22 62 -26 138q-25 -7 -50 -13q-21 -5 -46 -10t-45 -6v-82zM461 443q16 19 32 41q14 19 29 42.5t28 47.5q9 17 15.5 36
t8 35.5t-5 28t-22.5 13.5q-13 2 -23.5 -7.5t-19 -26.5t-14.5 -39t-11 -45q-11 -55 -17 -126z" />
    </font>
</defs>
</svg>
